SplineFontDB: 3.0
FontName: DeliusUnicase-Regular
FullName: DeliusUnicase-Regular
FamilyName: Delius Unicase
Weight: Book
Copyright: Copyright (c) 2010 by Natalia Raices. All rights reserved.
Version: 1.001
ItalicAngle: 0
UnderlinePosition: -150
UnderlineWidth: 50
Ascent: 800
Descent: 200
sfntRevision: 0x00010042
LayerCount: 2
Layer: 0 1 "Back"  1
Layer: 1 1 "Fore"  0
XUID: [1021 288 713564382 646063]
FSType: 0
OS2Version: 2
OS2_WeightWidthSlopeOnly: 0
OS2_UseTypoMetrics: 1
CreationTime: 1311358470
ModificationTime: 1311369405
PfmFamily: 17
TTFWeight: 400
TTFWidth: 5
LineGap: 0
VLineGap: 0
Panose: 2 0 6 3 0 0 0 0 0 0
OS2TypoAscent: -35
OS2TypoAOffset: 1
OS2TypoDescent: -30
OS2TypoDOffset: 1
OS2TypoLinegap: 0
OS2WinAscent: 5
OS2WinAOffset: 1
OS2WinDescent: 0
OS2WinDOffset: 1
HheadAscent: 0
HheadAOffset: 1
HheadDescent: 0
HheadDOffset: 1
OS2SubXSize: 0
OS2SubYSize: 0
OS2SubXOff: 0
OS2SubYOff: 0
OS2SupXSize: 0
OS2SupYSize: 0
OS2SupXOff: 0
OS2SupYOff: 0
OS2StrikeYSize: 50
OS2StrikeYPos: 250
OS2FamilyClass: 2560
OS2Vendor: 'pyrs'
OS2CodePages: 00000001.00000000
OS2UnicodeRanges: 00000061.00000000.00000000.00000000
Lookup: 258 0 0 "'kern' Horizontal Kerning in Latin lookup 0"  {"'kern' Horizontal Kerning in Latin lookup 0 subtable"  } ['kern' ('DFLT' <'dflt' > 'latn' <'dflt' > ) ]
DEI: 91125
TtTable: prep
PUSHW_1
 511
SCANCTRL
PUSHB_1
 4
SCANTYPE
EndTTInstrs
ShortTable: maxp 16
  1
  0
  238
  91
  4
  81
  4
  2
  0
  1
  1
  0
  64
  0
  2
  1
EndShort
LangName: 1033 "" "" "" "NataliaRaices: Delius Unicase: 2010" "" "Version 1.001" "" "Delius Unicase is a trademark of Natalia Raices." "Natalia Raices" "Natalia Raices" "Delius is a high quality comic book lettering typeface." "" "" "This Font Software is licensed under the SIL Open Font License, Version 1.1. This license is available with a FAQ at: http://scripts.sil.org/OFL" "http://scripts.sil.org/OFL" 
GaspTable: 1 65535 15
Encoding: UnicodeBmp
UnicodeInterp: none
NameList: Adobe Glyph List
DisplaySize: -36

StartChar: exclam
Encoding: 33 33 4
Width: 228
GlyphClass: 2
Flags: W
LayerCount: 2
Fore
SplineSet
149 85 m 128,-1,1
 160 70 160 70 160 46.5 c 128,-1,2
 160 23 160 23 145.5 4 c 128,-1,3
 131 -15 131 -15 110.5 -15 c 128,-1,4
 90 -15 90 -15 79 1 c 128,-1,5
 68 17 68 17 68 39.5 c 128,-1,6
 68 62 68 62 82.5 81 c 128,-1,7
 97 100 97 100 117.5 100 c 128,-1,0
 138 100 138 100 149 85 c 128,-1,1
147 358 m 1,8,-1
 150 256 l 1,9,10
 150 206 150 206 114 206 c 128,-1,11
 78 206 78 206 78 256 c 1,12,-1
 81 358 l 1,13,14
 81 400 81 400 77.5 462.5 c 128,-1,15
 74 525 74 525 74 530 c 0,16,17
 74 580 74 580 114 580 c 128,-1,18
 154 580 154 580 154 530 c 0,19,20
 154 525 154 525 150.5 462.5 c 128,-1,21
 147 400 147 400 147 358 c 1,8,-1
EndSplineSet
EndChar

StartChar: quotedbl
Encoding: 34 34 5
Width: 346
GlyphClass: 2
Flags: W
LayerCount: 2
Fore
SplineSet
278.5 501.5 m 128,-1,1
 289 488 289 488 289 474 c 128,-1,2
 289 460 289 460 283 416 c 128,-1,3
 277 372 277 372 275.5 341.5 c 128,-1,4
 274 311 274 311 269 295.5 c 128,-1,5
 264 280 264 280 249.5 280 c 128,-1,6
 235 280 235 280 229.5 296 c 128,-1,7
 224 312 224 312 222.5 342 c 128,-1,8
 221 372 221 372 215 415.5 c 128,-1,9
 209 459 209 459 209 473.5 c 128,-1,10
 209 488 209 488 219.5 501.5 c 128,-1,11
 230 515 230 515 249 515 c 128,-1,0
 268 515 268 515 278.5 501.5 c 128,-1,1
126.5 501.5 m 128,-1,13
 137 488 137 488 137 474 c 128,-1,14
 137 460 137 460 131 416 c 128,-1,15
 125 372 125 372 123.5 341.5 c 128,-1,16
 122 311 122 311 117 295.5 c 128,-1,17
 112 280 112 280 97.5 280 c 128,-1,18
 83 280 83 280 77.5 296 c 128,-1,19
 72 312 72 312 70.5 342 c 128,-1,20
 69 372 69 372 63 415.5 c 128,-1,21
 57 459 57 459 57 473.5 c 128,-1,22
 57 488 57 488 67.5 501.5 c 128,-1,23
 78 515 78 515 97 515 c 128,-1,12
 116 515 116 515 126.5 501.5 c 128,-1,13
EndSplineSet
EndChar

StartChar: numbersign
Encoding: 35 35 6
Width: 635
GlyphClass: 2
Flags: W
LayerCount: 2
Fore
SplineSet
375 204 m 1,0,-1
 398 311 l 1,1,-1
 260 311 l 1,2,-1
 237 204 l 1,3,-1
 375 204 l 1,0,-1
512 143 m 1,4,-1
 427 146 l 1,5,6
 420 111 420 111 413.5 73.5 c 128,-1,7
 407 36 407 36 405 27 c 0,8,9
 395 -14 395 -14 365 -14 c 0,10,11
 352 -14 352 -14 344 -5 c 128,-1,12
 336 4 336 4 336 15.5 c 128,-1,13
 336 27 336 27 339 42 c 128,-1,14
 342 57 342 57 349 88.5 c 128,-1,15
 356 120 356 120 361 146 c 1,16,-1
 227 146 l 1,17,18
 209 38 209 38 206 26 c 0,19,20
 196 -15 196 -15 166 -15 c 0,21,22
 153 -15 153 -15 145 -6 c 128,-1,23
 137 3 137 3 137 17.5 c 128,-1,24
 137 32 137 32 163 146 c 1,25,-1
 81 143 l 1,26,27
 35 143 35 143 35 175 c 128,-1,28
 35 207 35 207 81 207 c 1,29,-1
 176 204 l 1,30,-1
 199 311 l 1,31,-1
 124 308 l 1,32,33
 78 308 78 308 78 340 c 128,-1,34
 78 372 78 372 124 372 c 1,35,-1
 209 369 l 1,36,37
 213 391 213 391 217.5 415 c 128,-1,38
 222 439 222 439 224.5 452.5 c 128,-1,39
 227 466 227 466 229 474 c 0,40,41
 239 515 239 515 269 515 c 0,42,43
 282 515 282 515 290 505.5 c 128,-1,44
 298 496 298 496 298 485 c 128,-1,45
 298 474 298 474 274 369 c 1,46,-1
 407 369 l 1,47,48
 410 384 410 384 417 420 c 128,-1,49
 424 456 424 456 428 474 c 0,50,51
 438 515 438 515 469 515 c 0,52,53
 482 515 482 515 490 505.5 c 128,-1,54
 498 496 498 496 498 487 c 128,-1,55
 498 478 498 478 473 369 c 1,56,-1
 554 372 l 1,57,58
 600 372 600 372 600 340 c 128,-1,59
 600 308 600 308 554 308 c 1,60,-1
 460 311 l 1,61,-1
 437 204 l 1,62,-1
 512 207 l 1,63,64
 558 207 558 207 558 175 c 128,-1,65
 558 143 558 143 512 143 c 1,4,-1
EndSplineSet
EndChar

StartChar: dollar
Encoding: 36 36 7
Width: 453
GlyphClass: 2
Flags: W
LayerCount: 2
Fore
SplineSet
260 -4 m 1,0,-1
 261 -31 l 1,1,2
 259 -81 259 -81 226 -81 c 0,3,4
 191 -81 191 -81 191 -31 c 2,5,-1
 191 -5 l 1,6,7
 130 1 130 1 83 30.5 c 128,-1,8
 36 60 36 60 36 89 c 0,9,10
 36 104 36 104 45 113.5 c 128,-1,11
 54 123 54 123 67 123 c 128,-1,12
 80 123 80 123 94 110 c 0,13,14
 142 69 142 69 193 60 c 1,15,16
 196 127 196 127 196 247 c 1,17,18
 133 271 133 271 97.5 299.5 c 128,-1,19
 62 328 62 328 62 372.5 c 128,-1,20
 62 417 62 417 99 452.5 c 128,-1,21
 136 488 136 488 191 498 c 1,22,-1
 191 533 l 2,23,24
 191 581 191 581 225.5 581 c 128,-1,25
 260 581 260 581 260 533 c 2,26,-1
 260 500 l 1,27,28
 319 494 319 494 352 471.5 c 128,-1,29
 385 449 385 449 385 426 c 0,30,31
 385 393 385 393 350 393 c 0,32,33
 333 393 333 393 307.5 410.5 c 128,-1,34
 282 428 282 428 258 433 c 1,35,36
 256 361 256 361 256 296 c 1,37,38
 327 268 327 268 371.5 231 c 128,-1,39
 416 194 416 194 416 137.5 c 128,-1,40
 416 81 416 81 373 43 c 128,-1,41
 330 5 330 5 260 -4 c 1,0,-1
344 136 m 0,42,43
 344 190 344 190 256 224 c 1,44,45
 256 141 256 141 258 61 c 1,46,47
 297 67 297 67 320.5 86.5 c 128,-1,48
 344 106 344 106 344 136 c 0,42,43
133 376 m 0,49,50
 133 346 133 346 196 319 c 1,51,52
 194 405 194 405 194 433 c 1,53,54
 168 427 168 427 150.5 411.5 c 128,-1,55
 133 396 133 396 133 376 c 0,49,50
EndSplineSet
EndChar

StartChar: percent
Encoding: 37 37 8
Width: 834
GlyphClass: 2
Flags: W
LayerCount: 2
Fore
SplineSet
556 507 m 0,0,1
 556 464 556 464 500 403 c 1,2,3
 398 38 398 38 393 19 c 1,4,5
 381 -10 381 -10 355 -10 c 0,6,7
 342 -10 342 -10 333 -1 c 128,-1,8
 324 8 324 8 324 19 c 128,-1,9
 324 30 324 30 355.5 122.5 c 128,-1,10
 387 215 387 215 428 378 c 1,11,12
 414 370 414 370 390.5 370 c 128,-1,13
 367 370 367 370 327 384 c 1,14,15
 332 366 332 366 332 343 c 0,16,17
 332 270 332 270 291.5 220 c 128,-1,18
 251 170 251 170 185.5 170 c 128,-1,19
 120 170 120 170 79.5 218.5 c 128,-1,20
 39 267 39 267 39 341.5 c 128,-1,21
 39 416 39 416 81 466 c 128,-1,22
 123 516 123 516 182 516 c 128,-1,23
 241 516 241 516 293 473 c 1,24,25
 342 429 342 429 383.5 429 c 128,-1,26
 425 429 425 429 443 447 c 1,27,-1
 451 475 l 2,28,29
 469 540 469 540 488 554 c 0,30,31
 497 561 497 561 513.5 561 c 128,-1,32
 530 561 530 561 543 545.5 c 128,-1,33
 556 530 556 530 556 507 c 0,0,1
248.5 259.5 m 128,-1,35
 271 292 271 292 271 342 c 128,-1,36
 271 392 271 392 249 425.5 c 128,-1,37
 227 459 227 459 187 459 c 128,-1,38
 147 459 147 459 124.5 426.5 c 128,-1,39
 102 394 102 394 102 344 c 128,-1,40
 102 294 102 294 124.5 260.5 c 128,-1,41
 147 227 147 227 186.5 227 c 128,-1,34
 226 227 226 227 248.5 259.5 c 128,-1,35
757.5 283.5 m 128,-1,43
 798 235 798 235 798 160.5 c 128,-1,44
 798 86 798 86 756 36 c 128,-1,45
 714 -14 714 -14 648.5 -14 c 128,-1,46
 583 -14 583 -14 542.5 34.5 c 128,-1,47
 502 83 502 83 502 157.5 c 128,-1,48
 502 232 502 232 544 282 c 128,-1,49
 586 332 586 332 651.5 332 c 128,-1,42
 717 332 717 332 757.5 283.5 c 128,-1,43
711.5 75.5 m 128,-1,51
 734 108 734 108 734 158 c 128,-1,52
 734 208 734 208 712 241.5 c 128,-1,53
 690 275 690 275 650.5 275 c 128,-1,54
 611 275 611 275 588.5 242.5 c 128,-1,55
 566 210 566 210 566 160 c 128,-1,56
 566 110 566 110 588 76.5 c 128,-1,57
 610 43 610 43 649.5 43 c 128,-1,50
 689 43 689 43 711.5 75.5 c 128,-1,51
EndSplineSet
EndChar

StartChar: ampersand
Encoding: 38 38 9
Width: 600
GlyphClass: 2
Flags: W
LayerCount: 2
Fore
SplineSet
336 237 m 2,0,-1
 426 235 l 2,1,2
 454 235 454 235 480.5 257 c 128,-1,3
 507 279 507 279 507 305.5 c 128,-1,4
 507 332 507 332 495 346 c 128,-1,5
 483 360 483 360 468.5 364.5 c 128,-1,6
 454 369 454 369 442 379 c 128,-1,7
 430 389 430 389 430 404 c 128,-1,8
 430 419 430 419 440.5 427.5 c 128,-1,9
 451 436 451 436 465 436 c 0,10,11
 500 436 500 436 535 399 c 128,-1,12
 570 362 570 362 570 307 c 128,-1,13
 570 252 570 252 524.5 214 c 128,-1,14
 479 176 479 176 420 176 c 1,15,16
 436 151 436 151 436 121 c 0,17,18
 436 74 436 74 384.5 32 c 128,-1,19
 333 -10 333 -10 246 -10 c 128,-1,20
 159 -10 159 -10 103 40.5 c 128,-1,21
 47 91 47 91 47 162 c 0,22,23
 47 257 47 257 138 304 c 1,24,25
 79 334 79 334 79 397 c 0,26,27
 79 443 79 443 116.5 476.5 c 128,-1,28
 154 510 154 510 207 510 c 128,-1,29
 260 510 260 510 298.5 487 c 128,-1,30
 337 464 337 464 337 437 c 0,31,32
 337 421 337 421 328.5 413 c 128,-1,33
 320 405 320 405 308.5 405 c 128,-1,34
 297 405 297 405 286 414 c 0,35,36
 250 444 250 444 205 444 c 0,37,38
 182 444 182 444 162.5 430 c 128,-1,39
 143 416 143 416 143 397 c 0,40,41
 143 359 143 359 191 337 c 1,42,43
 209 343 209 343 230 343 c 128,-1,44
 251 343 251 343 266 332 c 128,-1,45
 281 321 281 321 281 302.5 c 128,-1,46
 281 284 281 284 267.5 272 c 128,-1,47
 254 260 254 260 228 260 c 128,-1,48
 202 260 202 260 187 268 c 1,49,50
 118 239 118 239 118 165 c 0,51,52
 118 120 118 120 152.5 87.5 c 128,-1,53
 187 55 187 55 244 55 c 128,-1,54
 301 55 301 55 336 79.5 c 128,-1,55
 371 104 371 104 371 137.5 c 128,-1,56
 371 171 371 171 341 171 c 0,57,58
 330 171 330 171 314 162 c 128,-1,59
 298 153 298 153 286 153 c 128,-1,60
 274 153 274 153 265 162 c 128,-1,61
 256 171 256 171 256 190.5 c 128,-1,62
 256 210 256 210 279.5 223.5 c 128,-1,63
 303 237 303 237 336 237 c 2,0,-1
EndSplineSet
EndChar

StartChar: quotesingle
Encoding: 39 39 10
Width: 194
GlyphClass: 2
Flags: W
LayerCount: 2
Fore
SplineSet
126.5 501.5 m 128,-1,1
 137 488 137 488 137 474 c 128,-1,2
 137 460 137 460 131 416 c 128,-1,3
 125 372 125 372 123.5 341.5 c 128,-1,4
 122 311 122 311 117 295.5 c 128,-1,5
 112 280 112 280 97.5 280 c 128,-1,6
 83 280 83 280 77.5 296 c 128,-1,7
 72 312 72 312 70.5 342 c 128,-1,8
 69 372 69 372 63 415.5 c 128,-1,9
 57 459 57 459 57 473.5 c 128,-1,10
 57 488 57 488 67.5 501.5 c 128,-1,11
 78 515 78 515 97 515 c 128,-1,0
 116 515 116 515 126.5 501.5 c 128,-1,1
EndSplineSet
EndChar

StartChar: parenleft
Encoding: 40 40 11
Width: 271
GlyphClass: 2
Flags: W
LayerCount: 2
Fore
SplineSet
44 262 m 0,0,1
 44 335 44 335 73 411.5 c 128,-1,2
 102 488 102 488 141 534.5 c 128,-1,3
 180 581 180 581 210 581 c 0,4,5
 227 581 227 581 236 571 c 128,-1,6
 245 561 245 561 245 548 c 128,-1,7
 245 535 245 535 236 523 c 128,-1,8
 227 511 227 511 206.5 488 c 128,-1,9
 186 465 186 465 166 433.5 c 128,-1,10
 146 402 146 402 130 343.5 c 128,-1,11
 114 285 114 285 114 239 c 0,12,13
 114 115 114 115 220 -48 c 0,14,15
 230 -62 230 -62 230 -71 c 0,16,17
 230 -90 230 -90 207.5 -90 c 128,-1,18
 185 -90 185 -90 150 -44 c 0,19,20
 44 100 44 100 44 262 c 0,0,1
EndSplineSet
EndChar

StartChar: parenright
Encoding: 41 41 12
Width: 271
GlyphClass: 2
Flags: W
LayerCount: 2
Fore
SplineSet
227 262 m 0,0,1
 227 100 227 100 120 -44 c 0,2,3
 86 -90 86 -90 63.5 -90 c 128,-1,4
 41 -90 41 -90 41 -71 c 0,5,6
 41 -62 41 -62 50 -48 c 0,7,8
 91 15 91 15 124 88 c 128,-1,9
 157 161 157 161 157 239 c 0,10,11
 157 285 157 285 141 343.5 c 128,-1,12
 125 402 125 402 105 433.5 c 128,-1,13
 85 465 85 465 64.5 488 c 128,-1,14
 44 511 44 511 35 523 c 128,-1,15
 26 535 26 535 26 548 c 128,-1,16
 26 561 26 561 35 571 c 128,-1,17
 44 581 44 581 61 581 c 0,18,19
 91 581 91 581 130 534.5 c 128,-1,20
 169 488 169 488 198 411.5 c 128,-1,21
 227 335 227 335 227 262 c 0,0,1
EndSplineSet
EndChar

StartChar: asterisk
Encoding: 42 42 13
Width: 400
GlyphClass: 2
Flags: W
LayerCount: 2
Fore
SplineSet
222 310 m 1,0,-1
 233 220 l 1,1,2
 233 202 233 202 224 190.5 c 128,-1,3
 215 179 215 179 200 179 c 128,-1,4
 185 179 185 179 176 190.5 c 128,-1,5
 167 202 167 202 167 214 c 128,-1,6
 167 226 167 226 171.5 257 c 128,-1,7
 176 288 176 288 178 310 c 1,8,9
 160 298 160 298 137.5 279.5 c 128,-1,10
 115 261 115 261 104 254.5 c 128,-1,11
 93 248 93 248 81.5 248 c 128,-1,12
 70 248 70 248 60.5 256.5 c 128,-1,13
 51 265 51 265 51 278 c 128,-1,14
 51 291 51 291 58.5 299.5 c 128,-1,15
 66 308 66 308 76.5 312 c 128,-1,16
 87 316 87 316 112 325.5 c 128,-1,17
 137 335 137 335 158 346 c 1,18,19
 137 357 137 357 112 366.5 c 128,-1,20
 87 376 87 376 76.5 380 c 128,-1,21
 66 384 66 384 58.5 392.5 c 128,-1,22
 51 401 51 401 51 414 c 128,-1,23
 51 427 51 427 60.5 435.5 c 128,-1,24
 70 444 70 444 81.5 444 c 128,-1,25
 93 444 93 444 104 437.5 c 128,-1,26
 115 431 115 431 137.5 412.5 c 128,-1,27
 160 394 160 394 178 382 c 1,28,29
 178 382 178 382 167 474 c 1,30,31
 167 492 167 492 176 503.5 c 128,-1,32
 185 515 185 515 200 515 c 128,-1,33
 215 515 215 515 224 503.5 c 128,-1,34
 233 492 233 492 233 479.5 c 128,-1,35
 233 467 233 467 228.5 435.5 c 128,-1,36
 224 404 224 404 222 382 c 1,37,38
 240 394 240 394 262.5 412.5 c 128,-1,39
 285 431 285 431 296 437.5 c 128,-1,40
 307 444 307 444 318.5 444 c 128,-1,41
 330 444 330 444 339.5 435.5 c 128,-1,42
 349 427 349 427 349 414 c 128,-1,43
 349 401 349 401 341.5 392.5 c 128,-1,44
 334 384 334 384 323.5 380 c 128,-1,45
 313 376 313 376 288 366.5 c 128,-1,46
 263 357 263 357 242 346 c 1,47,48
 263 335 263 335 288 325.5 c 128,-1,49
 313 316 313 316 323.5 312 c 128,-1,50
 334 308 334 308 341.5 299.5 c 128,-1,51
 349 291 349 291 349 278 c 128,-1,52
 349 265 349 265 339.5 256.5 c 128,-1,53
 330 248 330 248 318.5 248 c 128,-1,54
 307 248 307 248 296 254.5 c 128,-1,55
 285 261 285 261 262.5 279.5 c 128,-1,56
 240 298 240 298 222 310 c 1,0,-1
EndSplineSet
EndChar

StartChar: plus
Encoding: 43 43 14
Width: 507
GlyphClass: 2
Flags: W
LayerCount: 2
Fore
SplineSet
91 225 m 0,0,1
 36 225 36 225 36 258 c 0,2,3
 36 273 36 273 47.5 282 c 128,-1,4
 59 291 59 291 77 291 c 2,5,-1
 225 288 l 1,6,7
 221 428 221 428 221 431 c 0,8,9
 221 472 221 472 254 472 c 0,10,11
 270 472 270 472 279.5 461 c 128,-1,12
 289 450 289 450 289 439 c 128,-1,13
 289 428 289 428 285 288 c 1,14,-1
 431 291 l 2,15,16
 449 291 449 291 460.5 282 c 128,-1,17
 472 273 472 273 472 258 c 128,-1,18
 472 243 472 243 460.5 234 c 128,-1,19
 449 225 449 225 431 225 c 0,20,21
 381 225 381 225 285 228 c 1,22,-1
 289 71 l 2,23,24
 289 52 289 52 279.5 41 c 128,-1,25
 270 30 270 30 254 30 c 0,26,27
 221 30 221 30 221 71 c 0,28,29
 221 76 221 76 225 228 c 1,30,31
 123 225 123 225 91 225 c 0,0,1
EndSplineSet
EndChar

StartChar: comma
Encoding: 44 44 15
Width: 208
GlyphClass: 2
Flags: W
LayerCount: 2
Fore
SplineSet
150 49 m 0,0,1
 150 -19 150 -19 115.5 -86 c 128,-1,2
 81 -153 81 -153 47 -153 c 0,3,4
 39 -153 39 -153 33 -147.5 c 128,-1,5
 27 -142 27 -142 27 -134.5 c 128,-1,6
 27 -127 27 -127 45.5 -95.5 c 128,-1,7
 64 -64 64 -64 64 -38.5 c 128,-1,8
 64 -13 64 -13 60 5.5 c 128,-1,9
 56 24 56 24 56 44 c 128,-1,10
 56 64 56 64 70.5 83 c 128,-1,11
 85 102 85 102 106.5 102 c 128,-1,12
 128 102 128 102 139 86.5 c 128,-1,13
 150 71 150 71 150 49 c 0,0,1
EndSplineSet
EndChar

StartChar: hyphen
Encoding: 45 45 16
Width: 428
GlyphClass: 2
Flags: W
LayerCount: 2
Fore
SplineSet
214 288 m 1,0,-1
 321 291 l 2,1,2
 339 291 339 291 350.5 282 c 128,-1,3
 362 273 362 273 362 258 c 128,-1,4
 362 243 362 243 350.5 234 c 128,-1,5
 339 225 339 225 321 225 c 2,6,-1
 214 228 l 1,7,-1
 107 225 l 2,8,9
 89 225 89 225 77.5 234 c 128,-1,10
 66 243 66 243 66 258 c 128,-1,11
 66 273 66 273 77.5 282 c 128,-1,12
 89 291 89 291 107 291 c 2,13,-1
 214 288 l 1,0,-1
EndSplineSet
EndChar

StartChar: period
Encoding: 46 46 17
Width: 207
GlyphClass: 2
Flags: W
LayerCount: 2
Fore
SplineSet
139 91.5 m 128,-1,1
 150 76 150 76 150 52.5 c 128,-1,2
 150 29 150 29 135.5 9.5 c 128,-1,3
 121 -10 121 -10 100 -10 c 128,-1,4
 79 -10 79 -10 67.5 6 c 128,-1,5
 56 22 56 22 56 45.5 c 128,-1,6
 56 69 56 69 70.5 88 c 128,-1,7
 85 107 85 107 106.5 107 c 128,-1,0
 128 107 128 107 139 91.5 c 128,-1,1
EndSplineSet
EndChar

StartChar: slash
Encoding: 47 47 18
Width: 288
GlyphClass: 2
Flags: W
LayerCount: 2
Fore
SplineSet
233.5 571 m 128,-1,1
 244 561 244 561 244 543.5 c 128,-1,2
 244 526 244 526 220 426 c 0,3,4
 167 208 167 208 128 4 c 2,5,-1
 119 -43 l 1,6,7
 109 -82 109 -82 78 -82 c 0,8,9
 64 -82 64 -82 54 -72 c 128,-1,10
 44 -62 44 -62 44 -48.5 c 128,-1,11
 44 -35 44 -35 52 1 c 128,-1,12
 60 37 60 37 78 114 c 0,13,14
 119 282 119 282 161 500 c 2,15,-1
 169 542 l 2,16,17
 177 581 177 581 209 581 c 0,18,0
 223 581 223 581 233.5 571 c 128,-1,1
EndSplineSet
EndChar

StartChar: zero
Encoding: 48 48 19
Width: 512
GlyphClass: 2
Flags: W
LayerCount: 2
Fore
SplineSet
463 250 m 128,-1,1
 463 140 463 140 406 62.5 c 128,-1,2
 349 -15 349 -15 256 -15 c 128,-1,3
 163 -15 163 -15 106 62.5 c 128,-1,4
 49 140 49 140 49 250 c 128,-1,5
 49 360 49 360 106 437.5 c 128,-1,6
 163 515 163 515 256 515 c 128,-1,7
 349 515 349 515 406 437.5 c 128,-1,0
 463 360 463 360 463 250 c 128,-1,1
391 250 m 128,-1,9
 391 331 391 331 352.5 390 c 128,-1,10
 314 449 314 449 256 449 c 128,-1,11
 198 449 198 449 159.5 390 c 128,-1,12
 121 331 121 331 121 250 c 128,-1,13
 121 169 121 169 159.5 110 c 128,-1,14
 198 51 198 51 256 51 c 128,-1,15
 314 51 314 51 352.5 110 c 128,-1,8
 391 169 391 169 391 250 c 128,-1,9
EndSplineSet
EndChar

StartChar: one
Encoding: 49 49 20
Width: 329
GlyphClass: 2
Flags: W
LayerCount: 2
Fore
SplineSet
255 468.5 m 128,-1,1
 255 455 255 455 252.5 406 c 128,-1,2
 250 357 250 357 250 249.5 c 128,-1,3
 250 142 250 142 252.5 93.5 c 128,-1,4
 255 45 255 45 255 31.5 c 128,-1,5
 255 18 255 18 244 4 c 128,-1,6
 233 -10 233 -10 216 -10 c 128,-1,7
 199 -10 199 -10 188 4 c 128,-1,8
 177 18 177 18 177 31.5 c 128,-1,9
 177 45 177 45 179.5 93.5 c 128,-1,10
 182 142 182 142 182 250 c 2,11,-1
 182 402 l 1,12,-1
 130 342 l 2,13,14
 103 311 103 311 93 298 c 128,-1,15
 83 285 83 285 74.5 276.5 c 128,-1,16
 66 268 66 268 53 268 c 128,-1,17
 40 268 40 268 31 278 c 128,-1,18
 22 288 22 288 22 299.5 c 128,-1,19
 22 311 22 311 27 319 c 128,-1,20
 32 327 32 327 50.5 346 c 128,-1,21
 69 365 69 365 85.5 385 c 128,-1,22
 102 405 102 405 122.5 431 c 128,-1,23
 143 457 143 457 152 468.5 c 128,-1,24
 161 480 161 480 175.5 495 c 128,-1,25
 190 510 190 510 211 510 c 128,-1,26
 232 510 232 510 243.5 496 c 128,-1,0
 255 482 255 482 255 468.5 c 128,-1,1
EndSplineSet
EndChar

StartChar: two
Encoding: 50 50 21
Width: 415
GlyphClass: 2
Flags: W
LayerCount: 2
Fore
SplineSet
201 61 m 1,0,-1
 329 65 l 1,1,2
 379 65 379 65 379 30 c 128,-1,3
 379 -5 379 -5 329 -5 c 1,4,-1
 201 0 l 1,5,-1
 77 -5 l 2,6,7
 62 -5 62 -5 51.5 7 c 128,-1,8
 41 19 41 19 41 32 c 128,-1,9
 41 45 41 45 47 57.5 c 128,-1,10
 53 70 53 70 68 89 c 128,-1,11
 83 108 83 108 98 125 c 128,-1,12
 113 142 113 142 141 173.5 c 128,-1,13
 169 205 169 205 181 219.5 c 128,-1,14
 193 234 193 234 209 252 c 0,15,16
 233 279 233 279 257.5 312.5 c 128,-1,17
 282 346 282 346 282 373 c 128,-1,18
 282 400 282 400 258.5 422 c 128,-1,19
 235 444 235 444 204.5 444 c 128,-1,20
 174 444 174 444 153.5 433.5 c 128,-1,21
 133 423 133 423 124 411 c 0,22,23
 99 378 99 378 84.5 378 c 128,-1,24
 70 378 70 378 61 386.5 c 128,-1,25
 52 395 52 395 52 408 c 0,26,27
 52 436 52 436 96.5 473 c 128,-1,28
 141 510 141 510 206.5 510 c 128,-1,29
 272 510 272 510 310.5 469 c 128,-1,30
 349 428 349 428 349 378 c 128,-1,31
 349 328 349 328 316 284 c 1,32,33
 303 265 303 265 294 252 c 128,-1,34
 285 239 285 239 254 208 c 1,35,36
 154 95 154 95 135 61 c 1,37,-1
 201 61 l 1,0,-1
EndSplineSet
EndChar

StartChar: three
Encoding: 51 51 22
Width: 435
GlyphClass: 2
Flags: W
LayerCount: 2
Fore
SplineSet
223 500 m 1,0,-1
 305 504 l 1,1,2
 365 504 365 504 365 459 c 0,3,4
 365 445 365 445 353.5 430 c 128,-1,5
 342 415 342 415 312.5 384 c 128,-1,6
 283 353 283 353 259 323 c 1,7,8
 321 301 321 301 354 255 c 128,-1,9
 387 209 387 209 387 150.5 c 128,-1,10
 387 92 387 92 337.5 38.5 c 128,-1,11
 288 -15 288 -15 204 -15 c 0,12,13
 140 -15 140 -15 91.5 24 c 128,-1,14
 43 63 43 63 43 94 c 128,-1,15
 43 125 43 125 69 125 c 0,16,17
 87 125 87 125 117.5 88 c 128,-1,18
 148 51 148 51 214 51 c 0,19,20
 253 51 253 51 284 79.5 c 128,-1,21
 315 108 315 108 315 153.5 c 128,-1,22
 315 199 315 199 288 229 c 128,-1,23
 261 259 261 259 219 266 c 1,24,25
 181 231 181 231 158.5 231 c 128,-1,26
 136 231 136 231 124.5 242 c 128,-1,27
 113 253 113 253 113 271 c 128,-1,28
 113 289 113 289 130.5 306 c 128,-1,29
 148 323 148 323 183 330 c 1,30,-1
 274 435 l 1,31,32
 226 439 226 439 223 439 c 2,33,-1
 101 434 l 1,34,35
 53 434 53 434 53 469 c 0,36,37
 53 486 53 486 66 495.5 c 128,-1,38
 79 505 79 505 101 505 c 2,39,-1
 223 500 l 1,0,-1
EndSplineSet
EndChar

StartChar: four
Encoding: 52 52 23
Width: 448
GlyphClass: 2
Flags: W
LayerCount: 2
Fore
SplineSet
342 451 m 2,0,-1
 337 217 l 1,1,2
 361 219 361 219 374 219 c 128,-1,3
 387 219 387 219 400.5 209 c 128,-1,4
 414 199 414 199 414 183 c 128,-1,5
 414 167 414 167 400.5 157 c 128,-1,6
 387 147 387 147 368 147 c 128,-1,7
 349 147 349 147 337 148 c 1,8,9
 338 123 338 123 339 98 c 128,-1,10
 340 73 340 73 341 59 c 128,-1,11
 342 45 342 45 342 31 c 128,-1,12
 342 17 342 17 331.5 3.5 c 128,-1,13
 321 -10 321 -10 303 -10 c 128,-1,14
 285 -10 285 -10 274.5 3.5 c 128,-1,15
 264 17 264 17 264 40 c 2,16,-1
 268 150 l 1,17,-1
 214 151 l 1,18,-1
 69 147 l 2,19,20
 47 147 47 147 35.5 158 c 128,-1,21
 24 169 24 169 24 181.5 c 128,-1,22
 24 194 24 194 27 202 c 128,-1,23
 30 210 30 210 39 222.5 c 128,-1,24
 48 235 48 235 57.5 247.5 c 128,-1,25
 67 260 67 260 86.5 285.5 c 128,-1,26
 106 311 106 311 123 335 c 128,-1,27
 140 359 140 359 157 384 c 128,-1,28
 174 409 174 409 183.5 422 c 128,-1,29
 193 435 193 435 204 451 c 128,-1,30
 215 467 215 467 221 474 c 128,-1,31
 227 481 227 481 234 489 c 0,32,33
 254 510 254 510 281 510 c 128,-1,34
 308 510 308 510 325 494.5 c 128,-1,35
 342 479 342 479 342 451 c 2,0,-1
113 213 m 1,36,-1
 269 215 l 1,37,38
 271 261 271 261 271 330 c 2,39,-1
 270 427 l 1,40,41
 245 398 245 398 190 322.5 c 128,-1,42
 135 247 135 247 113 213 c 1,36,-1
EndSplineSet
EndChar

StartChar: five
Encoding: 53 53 24
Width: 458
GlyphClass: 2
Flags: W
LayerCount: 2
Fore
SplineSet
338 434 m 1,0,-1
 243 439 l 2,1,2
 236 439 236 439 140 435 c 1,3,4
 144 399 144 399 144 368 c 1,5,-1
 138 302 l 1,6,7
 197 335 197 335 240 335 c 0,8,9
 322 335 322 335 369 286.5 c 128,-1,10
 416 238 416 238 416 167 c 128,-1,11
 416 96 416 96 364 40.5 c 128,-1,12
 312 -15 312 -15 232.5 -15 c 128,-1,13
 153 -15 153 -15 99.5 24.5 c 128,-1,14
 46 64 46 64 46 99 c 0,15,16
 46 114 46 114 54.5 123.5 c 128,-1,17
 63 133 63 133 78 133 c 128,-1,18
 93 133 93 133 105.5 120 c 128,-1,19
 118 107 118 107 127 92 c 128,-1,20
 136 77 136 77 162.5 64 c 128,-1,21
 189 51 189 51 233.5 51 c 128,-1,22
 278 51 278 51 311 85.5 c 128,-1,23
 344 120 344 120 344 165.5 c 128,-1,24
 344 211 344 211 316.5 240 c 128,-1,25
 289 269 289 269 239 269 c 128,-1,26
 189 269 189 269 132 228 c 0,27,28
 113 215 113 215 104 215 c 0,29,30
 65 215 65 215 65 257 c 0,31,32
 65 262 65 262 71.5 296 c 128,-1,33
 78 330 78 330 78 359.5 c 128,-1,34
 78 389 78 389 72.5 417 c 128,-1,35
 67 445 67 445 67 458 c 0,36,37
 67 505 67 505 122 505 c 1,38,-1
 243 500 l 1,39,-1
 338 505 l 1,40,41
 360 505 360 505 373 495 c 128,-1,42
 386 485 386 485 386 468 c 0,43,44
 386 434 386 434 338 434 c 1,0,-1
EndSplineSet
EndChar

StartChar: six
Encoding: 54 54 25
Width: 448
GlyphClass: 2
Flags: W
LayerCount: 2
Fore
SplineSet
405 159 m 128,-1,1
 405 94 405 94 356 39.5 c 128,-1,2
 307 -15 307 -15 226.5 -15 c 128,-1,3
 146 -15 146 -15 97.5 43 c 128,-1,4
 49 101 49 101 49 186 c 0,5,6
 49 324 49 324 122 417 c 128,-1,7
 195 510 195 510 318 510 c 0,8,9
 382 510 382 510 382 475 c 0,10,11
 382 438 382 438 326 438 c 0,12,13
 239 438 239 438 186 390 c 128,-1,14
 133 342 133 342 125 271 c 1,15,16
 139 291 139 291 170.5 307 c 128,-1,17
 202 323 202 323 238 323 c 0,18,19
 316 323 316 323 360.5 273.5 c 128,-1,0
 405 224 405 224 405 159 c 128,-1,1
123 155 m 128,-1,21
 123 111 123 111 154 80.5 c 128,-1,22
 185 50 185 50 230 50 c 128,-1,23
 275 50 275 50 306.5 80.5 c 128,-1,24
 338 111 338 111 338 155 c 128,-1,25
 338 199 338 199 306.5 230 c 128,-1,26
 275 261 275 261 230 261 c 128,-1,27
 185 261 185 261 154 230 c 128,-1,20
 123 199 123 199 123 155 c 128,-1,21
EndSplineSet
EndChar

StartChar: seven
Encoding: 55 55 26
Width: 401
GlyphClass: 2
Flags: W
LayerCount: 2
Fore
SplineSet
189 500 m 1,0,-1
 321 505 l 1,1,2
 381 505 381 505 381 458 c 0,3,4
 381 443 381 443 361 414.5 c 128,-1,5
 341 386 341 386 302.5 331.5 c 128,-1,6
 264 277 264 277 241 233.5 c 128,-1,7
 218 190 218 190 206 162 c 0,8,9
 171 87 171 87 164 36 c 1,10,-1
 163 24 l 1,11,12
 156 -15 156 -15 125 -15 c 0,13,14
 111 -15 111 -15 102 -1.5 c 128,-1,15
 93 12 93 12 93 29 c 0,16,17
 93 101 93 101 175 250 c 0,18,19
 211 315 211 315 247.5 368.5 c 128,-1,20
 284 422 284 422 290 432 c 1,21,-1
 189 436 l 1,22,-1
 77 431 l 1,23,24
 27 431 27 431 27 468 c 128,-1,25
 27 505 27 505 77 505 c 1,26,-1
 189 500 l 1,0,-1
EndSplineSet
EndChar

StartChar: eight
Encoding: 56 56 27
Width: 452
GlyphClass: 2
Flags: W
LayerCount: 2
Fore
SplineSet
369.5 225.5 m 128,-1,1
 405 186 405 186 405 128.5 c 128,-1,2
 405 71 405 71 353.5 28 c 128,-1,3
 302 -15 302 -15 225 -15 c 128,-1,4
 148 -15 148 -15 97 28 c 128,-1,5
 46 71 46 71 46 131 c 0,6,7
 46 232 46 232 173 282 c 1,8,9
 126 305 126 305 104 330 c 128,-1,10
 82 355 82 355 82 400 c 128,-1,11
 82 445 82 445 123.5 480 c 128,-1,12
 165 515 165 515 230.5 515 c 128,-1,13
 296 515 296 515 337 480.5 c 128,-1,14
 378 446 378 446 378 400.5 c 128,-1,15
 378 355 378 355 354 331.5 c 128,-1,16
 330 308 330 308 280 285 c 1,17,0
 334 265 334 265 369.5 225.5 c 128,-1,1
333 132 m 128,-1,19
 333 170 333 170 303 198.5 c 128,-1,20
 273 227 273 227 227 243 c 1,21,22
 194 228 194 228 174 217 c 128,-1,23
 154 206 154 206 136 183 c 128,-1,24
 118 160 118 160 118 127 c 128,-1,25
 118 94 118 94 149.5 72 c 128,-1,26
 181 50 181 50 225.5 50 c 128,-1,27
 270 50 270 50 301.5 72 c 128,-1,18
 333 94 333 94 333 132 c 128,-1,19
315 396 m 0,28,29
 315 423 315 423 290.5 438.5 c 128,-1,30
 266 454 266 454 229.5 454 c 128,-1,31
 193 454 193 454 169 438.5 c 128,-1,32
 145 423 145 423 145 397.5 c 128,-1,33
 145 372 145 372 165.5 355 c 128,-1,34
 186 338 186 338 227 319 c 1,35,36
 315 353 315 353 315 396 c 0,28,29
EndSplineSet
EndChar

StartChar: nine
Encoding: 57 57 28
Width: 448
GlyphClass: 2
Flags: W
LayerCount: 2
Fore
SplineSet
43 336 m 128,-1,1
 43 401 43 401 92 455.5 c 128,-1,2
 141 510 141 510 221.5 510 c 128,-1,3
 302 510 302 510 350.5 452 c 128,-1,4
 399 394 399 394 399 309 c 0,5,6
 399 171 399 171 326 78 c 128,-1,7
 253 -15 253 -15 130 -15 c 0,8,9
 66 -15 66 -15 66 20 c 0,10,11
 66 57 66 57 122 57 c 0,12,13
 209 57 209 57 262 105 c 128,-1,14
 315 153 315 153 323 224 c 1,15,16
 309 204 309 204 277.5 188 c 128,-1,17
 246 172 246 172 210 172 c 0,18,19
 132 172 132 172 87.5 221.5 c 128,-1,0
 43 271 43 271 43 336 c 128,-1,1
325 340 m 128,-1,21
 325 384 325 384 294 414.5 c 128,-1,22
 263 445 263 445 218 445 c 128,-1,23
 173 445 173 445 141.5 414.5 c 128,-1,24
 110 384 110 384 110 340 c 128,-1,25
 110 296 110 296 141.5 265 c 128,-1,26
 173 234 173 234 218 234 c 128,-1,27
 263 234 263 234 294 265 c 128,-1,20
 325 296 325 296 325 340 c 128,-1,21
EndSplineSet
EndChar

StartChar: colon
Encoding: 58 58 29
Width: 227
GlyphClass: 2
Flags: W
LayerCount: 2
Fore
SplineSet
149 377.5 m 128,-1,1
 160 362 160 362 160 338.5 c 128,-1,2
 160 315 160 315 145.5 295.5 c 128,-1,3
 131 276 131 276 110 276 c 128,-1,4
 89 276 89 276 77.5 292 c 128,-1,5
 66 308 66 308 66 331.5 c 128,-1,6
 66 355 66 355 80.5 374 c 128,-1,7
 95 393 95 393 116.5 393 c 128,-1,0
 138 393 138 393 149 377.5 c 128,-1,1
149 91.5 m 128,-1,9
 160 76 160 76 160 52.5 c 128,-1,10
 160 29 160 29 145.5 9.5 c 128,-1,11
 131 -10 131 -10 110 -10 c 128,-1,12
 89 -10 89 -10 77.5 6 c 128,-1,13
 66 22 66 22 66 45.5 c 128,-1,14
 66 69 66 69 80.5 88 c 128,-1,15
 95 107 95 107 116.5 107 c 128,-1,8
 138 107 138 107 149 91.5 c 128,-1,9
EndSplineSet
EndChar

StartChar: semicolon
Encoding: 59 59 30
Width: 243
GlyphClass: 2
Flags: W
LayerCount: 2
Fore
SplineSet
171 49 m 0,0,1
 171 -19 171 -19 136.5 -86 c 128,-1,2
 102 -153 102 -153 68 -153 c 0,3,4
 60 -153 60 -153 54 -147.5 c 128,-1,5
 48 -142 48 -142 48 -134.5 c 128,-1,6
 48 -127 48 -127 66.5 -95.5 c 128,-1,7
 85 -64 85 -64 85 -38.5 c 128,-1,8
 85 -13 85 -13 81 5.5 c 128,-1,9
 77 24 77 24 77 44 c 128,-1,10
 77 64 77 64 91.5 83 c 128,-1,11
 106 102 106 102 127.5 102 c 128,-1,12
 149 102 149 102 160 86.5 c 128,-1,13
 171 71 171 71 171 49 c 0,0,1
156 377.5 m 128,-1,15
 167 362 167 362 167 338.5 c 128,-1,16
 167 315 167 315 152.5 295.5 c 128,-1,17
 138 276 138 276 117 276 c 128,-1,18
 96 276 96 276 84.5 292 c 128,-1,19
 73 308 73 308 73 331.5 c 128,-1,20
 73 355 73 355 87.5 374 c 128,-1,21
 102 393 102 393 123.5 393 c 128,-1,14
 145 393 145 393 156 377.5 c 128,-1,15
EndSplineSet
EndChar

StartChar: less
Encoding: 60 60 31
Width: 519
GlyphClass: 2
Flags: W
LayerCount: 2
Fore
SplineSet
42 234 m 128,-1,1
 35 245 35 245 35 257 c 128,-1,2
 35 269 35 269 38 276 c 128,-1,3
 41 283 41 283 49.5 291 c 128,-1,4
 58 299 58 299 67.5 305 c 128,-1,5
 77 311 77 311 96 320.5 c 128,-1,6
 115 330 115 330 131.5 338 c 128,-1,7
 148 346 148 346 178 360.5 c 128,-1,8
 208 375 208 375 235.5 389 c 128,-1,9
 263 403 263 403 297.5 420.5 c 128,-1,10
 332 438 332 438 347 446 c 128,-1,11
 362 454 362 454 385.5 464.5 c 128,-1,12
 409 475 409 475 425 475 c 128,-1,13
 441 475 441 475 451.5 465.5 c 128,-1,14
 462 456 462 456 462 442.5 c 128,-1,15
 462 429 462 429 455 420 c 0,16,17
 444 407 444 407 381 381.5 c 128,-1,18
 318 356 318 356 288.5 342 c 128,-1,19
 259 328 259 328 244 321 c 128,-1,20
 229 314 229 314 220 310 c 128,-1,21
 211 306 211 306 198 299 c 0,22,23
 169 284 169 284 155 275.5 c 128,-1,24
 141 267 141 267 141 260 c 0,25,26
 141 244 141 244 336 158 c 0,27,28
 374 141 374 141 393 133 c 0,29,30
 463 104 463 104 463 79 c 0,31,32
 463 60 463 60 452.5 49 c 128,-1,33
 442 38 442 38 430 38 c 128,-1,34
 418 38 418 38 406 42 c 0,35,36
 381 50 381 50 305 91 c 128,-1,37
 229 132 229 132 177 156.5 c 128,-1,38
 125 181 125 181 106 190 c 128,-1,39
 87 199 87 199 68 211 c 128,-1,0
 49 223 49 223 42 234 c 128,-1,1
EndSplineSet
EndChar

StartChar: equal
Encoding: 61 61 32
Width: 568
GlyphClass: 2
Flags: W
LayerCount: 2
Fore
SplineSet
284 361 m 1,0,-1
 461 364 l 2,1,2
 479 364 479 364 490.5 355 c 128,-1,3
 502 346 502 346 502 331 c 128,-1,4
 502 316 502 316 490.5 307 c 128,-1,5
 479 298 479 298 461 298 c 2,6,-1
 284 301 l 1,7,-1
 107 298 l 2,8,9
 89 298 89 298 77.5 307 c 128,-1,10
 66 316 66 316 66 331 c 128,-1,11
 66 346 66 346 77.5 355 c 128,-1,12
 89 364 89 364 107 364 c 2,13,14
 107 364 107 364 284 361 c 1,0,-1
284 217 m 1,15,-1
 461 220 l 2,16,17
 479 220 479 220 490.5 211 c 128,-1,18
 502 202 502 202 502 187 c 128,-1,19
 502 172 502 172 490.5 163 c 128,-1,20
 479 154 479 154 461 154 c 2,21,-1
 284 157 l 1,22,-1
 107 154 l 2,23,24
 89 154 89 154 77.5 163 c 128,-1,25
 66 172 66 172 66 187 c 128,-1,26
 66 202 66 202 77.5 211 c 128,-1,27
 89 220 89 220 107 220 c 2,28,-1
 284 217 l 1,15,-1
EndSplineSet
EndChar

StartChar: greater
Encoding: 62 62 33
Width: 519
GlyphClass: 2
Flags: W
LayerCount: 2
Fore
SplineSet
481 276 m 128,-1,1
 484 269 484 269 484 257 c 128,-1,2
 484 245 484 245 477 234 c 128,-1,3
 470 223 470 223 451 211 c 128,-1,4
 432 199 432 199 413 190 c 128,-1,5
 394 181 394 181 355.5 163 c 128,-1,6
 317 145 317 145 289 130.5 c 128,-1,7
 261 116 261 116 230 99.5 c 128,-1,8
 199 83 199 83 181.5 73.5 c 128,-1,9
 164 64 164 64 136.5 51 c 128,-1,10
 109 38 109 38 93 38 c 128,-1,11
 77 38 77 38 66.5 49 c 128,-1,12
 56 60 56 60 56 74 c 128,-1,13
 56 88 56 88 63 96 c 0,14,15
 76 112 76 112 125.5 133 c 128,-1,16
 175 154 175 154 276.5 200.5 c 128,-1,17
 378 247 378 247 378 260 c 0,18,19
 378 270 378 270 322 299 c 0,20,21
 308 306 308 306 286 315.5 c 128,-1,22
 264 325 264 325 242.5 336 c 128,-1,23
 221 347 221 347 184 362.5 c 128,-1,24
 147 378 147 378 127 386 c 128,-1,25
 107 394 107 394 89 403 c 128,-1,26
 71 412 71 412 64 420.5 c 128,-1,27
 57 429 57 429 57 442.5 c 128,-1,28
 57 456 57 456 67.5 465.5 c 128,-1,29
 78 475 78 475 89 475 c 128,-1,30
 100 475 100 475 110.5 472.5 c 128,-1,31
 121 470 121 470 139 462 c 128,-1,32
 157 454 157 454 172 446 c 128,-1,33
 187 438 187 438 221.5 420.5 c 128,-1,34
 256 403 256 403 283.5 389 c 128,-1,35
 311 375 311 375 341 360.5 c 128,-1,36
 371 346 371 346 387.5 338 c 128,-1,37
 404 330 404 330 423 320.5 c 128,-1,38
 442 311 442 311 451.5 305 c 128,-1,39
 461 299 461 299 469.5 291 c 128,-1,0
 478 283 478 283 481 276 c 128,-1,1
EndSplineSet
EndChar

StartChar: question
Encoding: 63 63 34
Width: 412
GlyphClass: 2
Flags: W
LayerCount: 2
Fore
SplineSet
377 442 m 0,0,1
 377 410 377 410 360 384.5 c 128,-1,2
 343 359 343 359 318.5 342.5 c 128,-1,3
 294 326 294 326 270 310 c 0,4,5
 211 273 211 273 211 239 c 0,6,7
 211 183 211 183 176 183 c 0,8,9
 139 183 139 183 139 239 c 0,10,11
 139 280 139 280 165 311 c 128,-1,12
 191 342 191 342 222 357.5 c 128,-1,13
 253 373 253 373 279 395 c 128,-1,14
 305 417 305 417 305 445 c 128,-1,15
 305 473 305 473 273.5 495 c 128,-1,16
 242 517 242 517 207.5 517 c 128,-1,17
 173 517 173 517 149 505 c 128,-1,18
 125 493 125 493 114 479 c 0,19,20
 86 441 86 441 69 441 c 128,-1,21
 52 441 52 441 43.5 450.5 c 128,-1,22
 35 460 35 460 35 473 c 0,23,24
 35 508 35 508 86.5 544.5 c 128,-1,25
 138 581 138 581 208.5 581 c 128,-1,26
 279 581 279 581 328 540.5 c 128,-1,27
 377 500 377 500 377 442 c 0,0,1
210 85 m 128,-1,29
 221 70 221 70 221 46.5 c 128,-1,30
 221 23 221 23 206.5 4 c 128,-1,31
 192 -15 192 -15 171.5 -15 c 128,-1,32
 151 -15 151 -15 140 1 c 128,-1,33
 129 17 129 17 129 39.5 c 128,-1,34
 129 62 129 62 143.5 81 c 128,-1,35
 158 100 158 100 178.5 100 c 128,-1,28
 199 100 199 100 210 85 c 128,-1,29
EndSplineSet
EndChar

StartChar: at
Encoding: 64 64 35
Width: 734
GlyphClass: 2
Flags: W
LayerCount: 2
Fore
SplineSet
528 384 m 1,0,-1
 513 252 l 1,1,-1
 513 220 l 2,2,3
 513 131 513 131 558 131 c 0,4,5
 586 131 586 131 607.5 167 c 128,-1,6
 629 203 629 203 629 282 c 0,7,8
 629 378 629 378 559.5 450.5 c 128,-1,9
 490 523 490 523 375.5 523 c 128,-1,10
 261 523 261 523 187 442 c 128,-1,11
 113 361 113 361 113 246 c 128,-1,12
 113 131 113 131 182 56.5 c 128,-1,13
 251 -18 251 -18 353 -18 c 0,14,15
 429 -18 429 -18 483 8 c 0,16,17
 501 16 501 16 509.5 16 c 128,-1,18
 518 16 518 16 523.5 10 c 128,-1,19
 529 4 529 4 529 -5 c 0,20,21
 529 -24 529 -24 481.5 -51 c 128,-1,22
 434 -78 434 -78 350 -78 c 0,23,24
 214 -78 214 -78 129.5 13.5 c 128,-1,25
 45 105 45 105 45 247 c 128,-1,26
 45 389 45 389 138 488.5 c 128,-1,27
 231 588 231 588 374.5 588 c 128,-1,28
 518 588 518 588 607.5 498 c 128,-1,29
 697 408 697 408 697 280 c 0,30,31
 697 191 697 191 656.5 131 c 128,-1,32
 616 71 616 71 559 71 c 0,33,34
 478 71 478 71 465 162 c 1,35,36
 448 123 448 123 416 97 c 128,-1,37
 384 71 384 71 338 71 c 128,-1,38
 292 71 292 71 260 100 c 0,39,40
 204 151 204 151 204 235 c 128,-1,41
 204 319 204 319 250 377 c 128,-1,42
 296 435 296 435 370 435 c 0,43,44
 410 435 410 435 459 402 c 1,45,46
 466 435 466 435 490 435 c 0,47,48
 528 435 528 435 528 384 c 1,0,-1
450 233 m 1,49,-1
 450 330 l 1,50,51
 411 373 411 373 371.5 373 c 128,-1,52
 332 373 332 373 302 334.5 c 128,-1,53
 272 296 272 296 272 247.5 c 128,-1,54
 272 199 272 199 290.5 166 c 128,-1,55
 309 133 309 133 342.5 133 c 128,-1,56
 376 133 376 133 404.5 162 c 128,-1,57
 433 191 433 191 450 233 c 1,49,-1
EndSplineSet
EndChar

StartChar: A
Encoding: 65 65 36
Width: 536
GlyphClass: 2
Flags: W
LayerCount: 2
Fore
SplineSet
178 206 m 1,0,-1
 351 206 l 1,1,2
 329 265 329 265 300 335.5 c 128,-1,3
 271 406 271 406 265 406 c 0,4,5
 255 406 255 406 178 206 c 1,0,-1
420 207 m 1,6,7
 460 209 460 209 472.5 209 c 128,-1,8
 485 209 485 209 496.5 200 c 128,-1,9
 508 191 508 191 508 176 c 128,-1,10
 508 161 508 161 496.5 152 c 128,-1,11
 485 143 485 143 467 143 c 2,12,-1
 449 143 l 1,13,14
 456 126 456 126 464.5 107 c 128,-1,15
 473 88 473 88 478 76.5 c 128,-1,16
 483 65 483 65 490 49.5 c 128,-1,17
 497 34 497 34 497 22 c 128,-1,18
 497 10 497 10 488.5 0 c 128,-1,19
 480 -10 480 -10 466 -10 c 0,20,21
 437 -10 437 -10 422 29 c 2,22,-1
 377 145 l 1,23,-1
 270 146 l 2,24,25
 216 146 216 146 153 145 c 1,26,-1
 109 29 l 2,27,28
 94 -10 94 -10 68 -10 c 0,29,30
 54 -10 54 -10 44 0 c 128,-1,31
 34 10 34 10 34 19.5 c 128,-1,32
 34 29 34 29 36 36 c 0,33,34
 39 47 39 47 51.5 75 c 128,-1,35
 64 103 64 103 80 143 c 1,36,37
 32 143 32 143 32 176 c 0,38,39
 32 191 32 191 43.5 200 c 128,-1,40
 55 209 55 209 74 209 c 128,-1,41
 93 209 93 209 108 208 c 1,42,-1
 125 246 l 1,43,44
 162 326 162 326 190.5 401 c 128,-1,45
 219 476 219 476 221 479 c 0,46,47
 238 515 238 515 266 515 c 0,48,49
 279 515 279 515 289 506 c 0,50,51
 305 491 305 491 340.5 399.5 c 128,-1,52
 376 308 376 308 420 207 c 1,6,7
EndSplineSet
EndChar

StartChar: B
Encoding: 66 66 37
Width: 520
GlyphClass: 2
Flags: W
LayerCount: 2
Fore
SplineSet
323.5 442 m 128,-1,1
 298 450 298 450 238 450 c 128,-1,2
 178 450 178 450 144 440 c 1,3,-1
 144 302 l 1,4,5
 164 307 164 307 196.5 307 c 128,-1,6
 229 307 229 307 279 301 c 1,7,8
 323 301 323 301 351 323.5 c 128,-1,9
 379 346 379 346 379.5 371.5 c 128,-1,10
 380 397 380 397 364.5 415.5 c 128,-1,0
 349 434 349 434 323.5 442 c 128,-1,1
193 220 m 2,11,-1
 174 220 l 2,12,13
 162 220 162 220 144 223 c 1,14,-1
 144 59 l 1,15,16
 186 50 186 50 253 50 c 128,-1,17
 320 50 320 50 363 76 c 128,-1,18
 406 102 406 102 406 144 c 0,19,20
 406 174 406 174 375 198.5 c 128,-1,21
 344 223 344 223 300 232 c 1,22,23
 268 220 268 220 193 220 c 2,11,-1
76 252 m 1,24,-1
 70 443 l 1,25,26
 70 483 70 483 112 499 c 128,-1,27
 154 515 154 515 253 515 c 128,-1,28
 352 515 352 515 401 477 c 128,-1,29
 450 439 450 439 450 382 c 0,30,31
 450 346 450 346 426 316.5 c 128,-1,32
 402 287 402 287 363 273 c 1,33,34
 477 235 477 235 477 146 c 0,35,36
 477 79 477 79 421 32 c 128,-1,37
 365 -15 365 -15 245 -15 c 0,38,39
 152 -15 152 -15 111.5 -2 c 128,-1,40
 71 11 71 11 71 40 c 2,41,-1
 76 252 l 1,24,-1
EndSplineSet
EndChar

StartChar: C
Encoding: 67 67 38
Width: 509
GlyphClass: 2
Flags: W
LayerCount: 2
Fore
SplineSet
446 103 m 0,0,1
 471 103 471 103 471 76.5 c 128,-1,2
 471 50 471 50 413 17.5 c 128,-1,3
 355 -15 355 -15 291 -15 c 0,4,5
 186 -15 186 -15 116 62.5 c 128,-1,6
 46 140 46 140 46 250 c 128,-1,7
 46 360 46 360 116.5 437.5 c 128,-1,8
 187 515 187 515 302 515 c 0,9,10
 365 515 365 515 413.5 486.5 c 128,-1,11
 462 458 462 458 462 428 c 0,12,13
 462 412 462 412 452 401.5 c 128,-1,14
 442 391 442 391 429 391 c 128,-1,15
 416 391 416 391 399 406 c 1,16,17
 330 446 330 446 293 450 c 1,18,19
 224 450 224 450 172.5 392 c 128,-1,20
 121 334 121 334 121 251 c 128,-1,21
 121 168 121 168 173 109 c 128,-1,22
 225 50 225 50 302 50 c 0,23,24
 361 50 361 50 417 90 c 0,25,26
 436 103 436 103 446 103 c 0,0,1
EndSplineSet
EndChar

StartChar: D
Encoding: 68 68 39
Width: 549
GlyphClass: 2
Flags: W
LayerCount: 2
Fore
SplineSet
79 252 m 1,0,-1
 73 455 l 2,1,2
 73 477 73 477 78 486 c 0,3,4
 92 510 92 510 182.5 510 c 128,-1,5
 273 510 273 510 329.5 490 c 128,-1,6
 386 470 386 470 417.5 441 c 128,-1,7
 449 412 449 412 470 374 c 0,8,9
 504 311 504 311 504 248 c 0,10,11
 504 167 504 167 442 86 c 0,12,13
 409 44 409 44 346.5 17 c 128,-1,14
 284 -10 284 -10 202.5 -10 c 128,-1,15
 121 -10 121 -10 97.5 2 c 128,-1,16
 74 14 74 14 74 45 c 2,17,-1
 79 252 l 1,0,-1
369.5 109.5 m 128,-1,19
 430 164 430 164 430 245 c 128,-1,20
 430 326 430 326 374 384.5 c 128,-1,21
 318 443 318 443 211 443 c 0,22,23
 180 443 180 443 150 437 c 1,24,25
 145 391 145 391 145 312 c 128,-1,26
 145 233 145 233 149 61 c 1,27,-1
 211 55 l 1,28,18
 309 55 309 55 369.5 109.5 c 128,-1,19
EndSplineSet
EndChar

StartChar: E
Encoding: 69 69 40
Width: 475
GlyphClass: 2
Flags: W
LayerCount: 2
Fore
SplineSet
82 41 m 2,0,-1
 87 216 l 1,1,2
 36 216 36 216 36 250.5 c 128,-1,3
 36 285 36 285 87 285 c 1,4,5
 87 285 87 285 82 454 c 0,6,7
 82 475 82 475 94.5 490 c 128,-1,8
 107 505 107 505 134 505 c 1,9,-1
 264 500 l 1,10,-1
 384 505 l 1,11,12
 434 505 434 505 434 470 c 128,-1,13
 434 435 434 435 384 435 c 1,14,-1
 264 440 l 2,15,16
 258 440 258 440 158 436 c 1,17,-1
 153 281 l 1,18,19
 175 280 175 280 226 280 c 1,20,-1
 346 285 l 1,21,22
 396 285 396 285 396 250 c 128,-1,23
 396 215 396 215 346 215 c 1,24,-1
 226 220 l 1,25,-1
 153 219 l 1,26,-1
 158 59 l 1,27,28
 258 55 258 55 264 55 c 2,29,-1
 384 60 l 1,30,31
 434 60 434 60 434 25 c 128,-1,32
 434 -10 434 -10 384 -10 c 1,33,-1
 264 -5 l 1,34,-1
 134 -10 l 1,35,36
 105 -10 105 -10 93.5 2.5 c 128,-1,37
 82 15 82 15 82 41 c 2,0,-1
EndSplineSet
EndChar

StartChar: F
Encoding: 70 70 41
Width: 457
GlyphClass: 2
Flags: W
LayerCount: 2
Fore
SplineSet
216 280 m 1,0,-1
 336 285 l 1,1,2
 386 285 386 285 386 250 c 128,-1,3
 386 215 386 215 336 215 c 1,4,-1
 216 220 l 1,5,-1
 153 219 l 1,6,7
 153 219 153 219 158 40 c 1,8,9
 158 -10 158 -10 120 -10 c 128,-1,10
 82 -10 82 -10 82 40 c 1,11,-1
 87 216 l 1,12,13
 36 216 36 216 36 250.5 c 128,-1,14
 36 285 36 285 87 285 c 1,15,-1
 82 454 l 2,16,17
 82 475 82 475 94.5 490 c 128,-1,18
 107 505 107 505 134 505 c 1,19,-1
 264 500 l 1,20,-1
 384 505 l 1,21,22
 434 505 434 505 434 470 c 128,-1,23
 434 435 434 435 384 435 c 1,24,-1
 264 440 l 2,25,26
 258 440 258 440 158 436 c 1,27,-1
 153 281 l 1,28,29
 172 280 172 280 216 280 c 1,0,-1
EndSplineSet
EndChar

StartChar: G
Encoding: 71 71 42
Width: 530
GlyphClass: 2
Flags: W
LayerCount: 2
Fore
SplineSet
366 266 m 1,0,-1
 439 270 l 1,1,2
 489 270 489 270 489 213 c 0,3,4
 489 119 489 119 432 52 c 128,-1,5
 375 -15 375 -15 277.5 -15 c 128,-1,6
 180 -15 180 -15 113 62.5 c 128,-1,7
 46 140 46 140 46 250 c 128,-1,8
 46 360 46 360 116.5 437.5 c 128,-1,9
 187 515 187 515 302 515 c 0,10,11
 366 515 366 515 414 489.5 c 128,-1,12
 462 464 462 464 462 438 c 0,13,14
 462 422 462 422 452 411.5 c 128,-1,15
 442 401 442 401 429 401 c 128,-1,16
 416 401 416 401 399 414 c 0,17,18
 349 450 349 450 286.5 450 c 128,-1,19
 224 450 224 450 172.5 392 c 128,-1,20
 121 334 121 334 121 251 c 128,-1,21
 121 168 121 168 170.5 109 c 128,-1,22
 220 50 220 50 292 50 c 0,23,24
 343 50 343 50 380 90.5 c 128,-1,25
 417 131 417 131 417 203 c 1,26,-1
 374 203 l 1,27,-1
 298 199 l 1,28,29
 253 199 253 199 253 233 c 0,30,31
 253 251 253 251 265.5 260.5 c 128,-1,32
 278 270 278 270 295 270 c 2,33,34
 295 270 295 270 366 266 c 1,0,-1
EndSplineSet
EndChar

StartChar: H
Encoding: 72 72 43
Width: 604
GlyphClass: 2
Flags: W
LayerCount: 2
Fore
SplineSet
501 218 m 1,0,-1
 506 40 l 1,1,2
 506 -10 506 -10 468 -10 c 128,-1,3
 430 -10 430 -10 430 40 c 1,4,-1
 435 220 l 1,5,6
 315 223 315 223 300.5 223 c 128,-1,7
 286 223 286 223 169 220 c 1,8,-1
 174 40 l 1,9,10
 174 -10 174 -10 136 -10 c 128,-1,11
 98 -10 98 -10 98 40 c 1,12,-1
 103 218 l 1,13,-1
 82 218 l 2,14,15
 32 218 32 218 32 253 c 128,-1,16
 32 288 32 288 82 288 c 2,17,-1
 102 288 l 1,18,19
 98 444 98 444 98 460 c 0,20,21
 98 510 98 510 136 510 c 128,-1,22
 174 510 174 510 174 460 c 1,23,-1
 169 285 l 1,24,25
 247 283 247 283 301 283 c 128,-1,26
 355 283 355 283 435 285 c 1,27,-1
 430 460 l 1,28,29
 430 510 430 510 468 510 c 128,-1,30
 506 510 506 510 506 460 c 1,31,-1
 501 288 l 1,32,-1
 522 288 l 2,33,34
 572 288 572 288 572 253 c 128,-1,35
 572 218 572 218 522 218 c 2,36,-1
 501 218 l 1,0,-1
EndSplineSet
EndChar

StartChar: I
Encoding: 73 73 44
Width: 436
GlyphClass: 2
Flags: W
LayerCount: 2
Fore
SplineSet
348 -4 m 1,0,-1
 218 0 l 1,1,-1
 88 -4 l 1,2,3
 38 -4 38 -4 38 30.5 c 128,-1,4
 38 65 38 65 88 65 c 0,5,6
 95 65 95 65 180 60 c 1,7,8
 185 245 185 245 185 249.5 c 128,-1,9
 185 254 185 254 180 439 c 1,10,11
 114 436 114 436 88 436 c 0,12,13
 38 436 38 436 38 470 c 128,-1,14
 38 504 38 504 88 504 c 1,15,-1
 221 500 l 1,16,-1
 348 504 l 1,17,18
 398 504 398 504 398 471 c 0,19,20
 398 436 398 436 348 436 c 0,21,22
 322 436 322 436 256 439 c 1,23,24
 251 254 251 254 251 249.5 c 128,-1,25
 251 245 251 245 256 60 c 1,26,27
 341 65 341 65 348 65 c 0,28,29
 398 65 398 65 398 30.5 c 128,-1,30
 398 -4 398 -4 348 -4 c 1,0,-1
EndSplineSet
EndChar

StartChar: J
Encoding: 74 74 45
Width: 457
GlyphClass: 2
Flags: W
LayerCount: 2
Fore
SplineSet
365 255 m 2,0,-1
 364 167 l 2,1,2
 364 82 364 82 314.5 36 c 128,-1,3
 265 -10 265 -10 195 -10 c 128,-1,4
 125 -10 125 -10 75 24.5 c 128,-1,5
 25 59 25 59 25 93 c 128,-1,6
 25 127 25 127 56 127 c 0,7,8
 67 127 67 127 84 109 c 0,9,10
 133 55 133 55 182 55 c 0,11,12
 283 55 283 55 293 153 c 1,13,14
 299 201 299 201 299 246.5 c 128,-1,15
 299 292 299 292 298 328.5 c 128,-1,16
 297 365 297 365 295 398 c 128,-1,17
 293 431 293 431 293 439 c 1,18,19
 279 440 279 440 251 440 c 1,20,-1
 121 435 l 1,21,22
 71 435 71 435 71 470 c 128,-1,23
 71 505 71 505 121 505 c 1,24,-1
 251 500 l 1,25,-1
 381 505 l 1,26,27
 431 505 431 505 431 470 c 128,-1,28
 431 435 431 435 369 435 c 1,29,30
 365 291 365 291 365 255 c 2,0,-1
EndSplineSet
EndChar

StartChar: K
Encoding: 75 75 46
Width: 505
GlyphClass: 2
Flags: W
LayerCount: 2
Fore
SplineSet
79 250 m 1,0,-1
 74 460 l 1,1,2
 74 510 74 510 112 510 c 128,-1,3
 150 510 150 510 150 460 c 0,4,5
 150 454 150 454 147.5 396.5 c 128,-1,6
 145 339 145 339 145 297 c 1,7,8
 187 311 187 311 213.5 311 c 128,-1,9
 240 311 240 311 260 309 c 1,10,11
 296 333 296 333 326 382 c 128,-1,12
 356 431 356 431 371 475 c 0,13,14
 382 510 382 510 410 510 c 0,15,16
 423 510 423 510 432.5 500 c 128,-1,17
 442 490 442 490 442 477 c 0,18,19
 442 437 442 437 400.5 371.5 c 128,-1,20
 359 306 359 306 309 262 c 1,21,-1
 400 108 l 1,22,23
 419 80 419 80 440 70.5 c 128,-1,24
 461 61 461 61 471.5 60.5 c 128,-1,25
 482 60 482 60 482 52 c 0,26,27
 482 28 482 28 467 9.5 c 128,-1,28
 452 -9 452 -9 430.5 -9 c 128,-1,29
 409 -9 409 -9 396 -2 c 1,30,31
 374 12 374 12 335.5 80 c 128,-1,32
 297 148 297 148 250 224 c 1,33,34
 225 214 225 214 186 214 c 1,35,-1
 145 218 l 1,36,37
 150 48 150 48 150 40 c 0,38,39
 150 -10 150 -10 112 -10 c 128,-1,40
 74 -10 74 -10 74 40 c 1,41,-1
 79 250 l 1,0,-1
EndSplineSet
EndChar

StartChar: L
Encoding: 76 76 47
Width: 429
GlyphClass: 2
Flags: W
LayerCount: 2
Fore
SplineSet
246 60 m 1,0,-1
 366 65 l 1,1,2
 416 65 416 65 416 30 c 128,-1,3
 416 -5 416 -5 366 -5 c 1,4,-1
 246 0 l 1,5,-1
 126 -5 l 1,6,7
 74 -5 74 -5 74 46 c 1,8,9
 74 46 74 46 79 250 c 1,10,11
 79 250 79 250 74 460 c 1,12,13
 74 510 74 510 112 510 c 128,-1,14
 150 510 150 510 150 460 c 1,15,-1
 145 250 l 1,16,-1
 150 64 l 1,17,18
 196 60 196 60 246 60 c 1,0,-1
EndSplineSet
EndChar

StartChar: M
Encoding: 77 77 48
Width: 618
GlyphClass: 2
Flags: W
LayerCount: 2
Fore
SplineSet
539 247 m 1,0,-1
 544 40 l 1,1,2
 544 -10 544 -10 506 -10 c 128,-1,3
 468 -10 468 -10 468 40 c 1,4,-1
 473 247 l 2,5,6
 473 268 473 268 473.5 310 c 128,-1,7
 474 352 474 352 474 368 c 1,8,-1
 340 111 l 2,9,10
 328 86 328 86 309 86 c 128,-1,11
 290 86 290 86 278 113 c 1,12,13
 210 237 210 237 142 366 c 1,14,-1
 150 40 l 1,15,16
 150 -10 150 -10 112 -10 c 128,-1,17
 74 -10 74 -10 74 40 c 1,18,-1
 79 250 l 1,19,-1
 74 460 l 2,20,21
 74 483 74 483 84.5 496 c 128,-1,22
 95 509 95 509 110 509 c 128,-1,23
 125 509 125 509 134 503 c 128,-1,24
 143 497 143 497 152 484 c 0,25,26
 166 463 166 463 181 429 c 0,27,28
 233 312 233 312 309 186 c 1,29,30
 327 216 327 216 380 323.5 c 128,-1,31
 433 431 433 431 459 480 c 0,32,33
 475 510 475 510 496.5 510 c 128,-1,34
 518 510 518 510 531 494.5 c 128,-1,35
 544 479 544 479 544 457 c 2,36,-1
 539 247 l 1,0,-1
EndSplineSet
EndChar

StartChar: N
Encoding: 78 78 49
Width: 548
GlyphClass: 2
Flags: W
LayerCount: 2
Fore
SplineSet
74 460 m 1,0,1
 74 510 74 510 116 510 c 0,2,3
 137 510 137 510 154 484 c 2,4,-1
 401 126 l 1,5,6
 403 194 403 194 403 250 c 1,7,-1
 398 460 l 1,8,9
 398 510 398 510 436 510 c 128,-1,10
 474 510 474 510 474 460 c 1,11,-1
 469 250 l 1,12,-1
 474 40 l 1,13,14
 474 -10 474 -10 434 -10 c 0,15,16
 414 -10 414 -10 396 17 c 0,17,18
 388 29 388 29 329.5 111.5 c 128,-1,19
 271 194 271 194 229 254 c 128,-1,20
 187 314 187 314 147 366 c 1,21,22
 145 296 145 296 145 250 c 1,23,-1
 150 40 l 1,24,25
 150 -10 150 -10 112 -10 c 128,-1,26
 74 -10 74 -10 74 40 c 1,27,-1
 79 250 l 1,28,-1
 74 460 l 1,0,1
EndSplineSet
EndChar

StartChar: O
Encoding: 79 79 50
Width: 564
GlyphClass: 2
Flags: W
LayerCount: 2
Fore
SplineSet
446 251 m 128,-1,1
 446 334 446 334 399.5 392 c 128,-1,2
 353 450 353 450 284 450 c 128,-1,3
 215 450 215 450 166.5 391 c 128,-1,4
 118 332 118 332 118 249 c 128,-1,5
 118 166 118 166 164.5 108 c 128,-1,6
 211 50 211 50 280 50 c 128,-1,7
 349 50 349 50 397.5 109 c 128,-1,0
 446 168 446 168 446 251 c 128,-1,1
451 438.5 m 128,-1,9
 517 362 517 362 517 251 c 128,-1,10
 517 140 517 140 450 62.5 c 128,-1,11
 383 -15 383 -15 281 -15 c 128,-1,12
 179 -15 179 -15 113 61.5 c 128,-1,13
 47 138 47 138 47 249 c 128,-1,14
 47 360 47 360 113.5 437.5 c 128,-1,15
 180 515 180 515 282.5 515 c 128,-1,8
 385 515 385 515 451 438.5 c 128,-1,9
EndSplineSet
EndChar

StartChar: P
Encoding: 80 80 51
Width: 491
GlyphClass: 2
Flags: W
LayerCount: 2
Fore
SplineSet
76 262 m 1,0,-1
 70 449 l 1,1,2
 70 485 70 485 125.5 500 c 128,-1,3
 181 515 181 515 242 515 c 0,4,5
 349 515 349 515 405 464 c 128,-1,6
 461 413 461 413 461 336.5 c 128,-1,7
 461 260 461 260 401.5 212.5 c 128,-1,8
 342 165 342 165 248 165 c 0,9,10
 222 165 222 165 142 173 c 1,11,12
 146 41 146 41 146 40 c 0,13,14
 146 -10 146 -10 108.5 -10 c 128,-1,15
 71 -10 71 -10 71 40 c 1,16,-1
 76 262 l 1,0,-1
347.5 258.5 m 128,-1,18
 390 287 390 287 390 335.5 c 128,-1,19
 390 384 390 384 351 417 c 128,-1,20
 312 450 312 450 253.5 450 c 128,-1,21
 195 450 195 450 146 436 c 1,22,23
 142 264 142 264 142 238 c 1,24,25
 195 230 195 230 250 230 c 128,-1,17
 305 230 305 230 347.5 258.5 c 128,-1,18
EndSplineSet
EndChar

StartChar: Q
Encoding: 81 81 52
Width: 564
GlyphClass: 2
Flags: W
LayerCount: 2
Fore
SplineSet
517 251 m 0,0,1
 517 185 517 185 492 128.5 c 128,-1,2
 467 72 467 72 422 36 c 1,3,4
 430 22 430 22 443 1.5 c 128,-1,5
 456 -19 456 -19 461 -28.5 c 128,-1,6
 466 -38 466 -38 466 -49 c 128,-1,7
 466 -60 466 -60 457 -69 c 128,-1,8
 448 -78 448 -78 432.5 -78 c 128,-1,9
 417 -78 417 -78 402 -55 c 0,10,11
 399 -50 399 -50 388 -29.5 c 128,-1,12
 377 -9 377 -9 370 4 c 1,13,14
 326 -14 326 -14 282 -14 c 0,15,16
 179 -14 179 -14 113 62.5 c 128,-1,17
 47 139 47 139 47 250 c 128,-1,18
 47 361 47 361 113.5 438.5 c 128,-1,19
 180 516 180 516 282.5 516 c 128,-1,20
 385 516 385 516 451 439.5 c 128,-1,21
 517 363 517 363 517 251 c 0,0,1
295 130 m 2,22,23
 288 141 288 141 288 152.5 c 128,-1,24
 288 164 288 164 298 174 c 128,-1,25
 308 184 308 184 323 184 c 0,26,27
 342 184 342 184 358 151.5 c 128,-1,28
 374 119 374 119 386 97 c 1,29,30
 446 159 446 159 446 247 c 128,-1,31
 446 335 446 335 399.5 393 c 128,-1,32
 353 451 353 451 284 451 c 128,-1,33
 215 451 215 451 166.5 392 c 128,-1,34
 118 333 118 333 118 250 c 128,-1,35
 118 167 118 167 164.5 109 c 128,-1,36
 211 51 211 51 281 51 c 0,37,38
 310 51 310 51 337 63 c 1,39,-1
 295 130 l 2,22,23
EndSplineSet
EndChar

StartChar: R
Encoding: 82 82 53
Width: 517
GlyphClass: 2
Flags: W
LayerCount: 2
Fore
SplineSet
380 350 m 0,0,1
 380 390 380 390 344 420 c 128,-1,2
 308 450 308 450 251.5 450 c 128,-1,3
 195 450 195 450 146 436 c 1,4,5
 142 280 142 280 142 260 c 1,6,7
 182 269 182 269 217.5 269 c 128,-1,8
 253 269 253 269 304 257 c 1,9,10
 380 275 380 275 380 350 c 0,0,1
76 262 m 1,11,-1
 70 449 l 1,12,13
 70 485 70 485 125.5 500 c 128,-1,14
 181 515 181 515 242 515 c 0,15,16
 344 515 344 515 397.5 467 c 128,-1,17
 451 419 451 419 451 345 c 0,18,19
 451 252 451 252 352 205 c 1,20,-1
 407 108 l 1,21,22
 426 80 426 80 447 70.5 c 128,-1,23
 468 61 468 61 478.5 60.5 c 128,-1,24
 489 60 489 60 489 52 c 0,25,26
 489 28 489 28 474 9.5 c 128,-1,27
 459 -9 459 -9 438 -9 c 128,-1,28
 417 -9 417 -9 406 -4 c 128,-1,29
 395 1 395 1 381 19 c 128,-1,30
 367 37 367 37 357.5 53 c 128,-1,31
 348 69 348 69 324.5 110.5 c 128,-1,32
 301 152 301 152 281 184 c 1,33,34
 255 179 255 179 210.5 179 c 128,-1,35
 166 179 166 179 142 183 c 1,36,-1
 146 40 l 1,37,38
 146 -10 146 -10 108.5 -10 c 128,-1,39
 71 -10 71 -10 71 40 c 1,40,-1
 76 262 l 1,11,-1
EndSplineSet
EndChar

StartChar: S
Encoding: 83 83 54
Width: 455
GlyphClass: 2
Flags: W
LayerCount: 2
Fore
SplineSet
416 144 m 0,0,1
 416 76 416 76 360.5 33 c 128,-1,2
 305 -10 305 -10 227.5 -10 c 128,-1,3
 150 -10 150 -10 93 25.5 c 128,-1,4
 36 61 36 61 36 96 c 0,5,6
 36 111 36 111 45 120.5 c 128,-1,7
 54 130 54 130 65.5 130 c 128,-1,8
 77 130 77 130 84 125.5 c 128,-1,9
 91 121 91 121 103 108 c 128,-1,10
 115 95 115 95 124.5 86 c 128,-1,11
 134 77 134 77 163.5 66 c 128,-1,12
 193 55 193 55 218 55 c 0,13,14
 273 55 273 55 308.5 77.5 c 128,-1,15
 344 100 344 100 344 143 c 0,16,17
 344 195 344 195 244 230 c 0,18,19
 203 244 203 244 161.5 260.5 c 128,-1,20
 120 277 120 277 91 306 c 128,-1,21
 62 335 62 335 62 375 c 0,22,23
 62 429 62 429 111 469.5 c 128,-1,24
 160 510 160 510 231 510 c 128,-1,25
 302 510 302 510 343.5 485.5 c 128,-1,26
 385 461 385 461 385 434 c 0,27,28
 385 401 385 401 350 401 c 0,29,30
 335 401 335 401 320 412 c 0,31,32
 273 445 273 445 230 445 c 128,-1,33
 187 445 187 445 160 425.5 c 128,-1,34
 133 406 133 406 133 380.5 c 128,-1,35
 133 355 133 355 162 337 c 128,-1,36
 191 319 191 319 232.5 304 c 128,-1,37
 274 289 274 289 316 270.5 c 128,-1,38
 358 252 358 252 387 219.5 c 128,-1,39
 416 187 416 187 416 144 c 0,0,1
EndSplineSet
EndChar

StartChar: T
Encoding: 84 84 55
Width: 420
GlyphClass: 2
Flags: W
LayerCount: 2
Fore
SplineSet
215 500 m 1,0,-1
 355 505 l 1,1,2
 405 505 405 505 405 470 c 128,-1,3
 405 435 405 435 355 435 c 0,4,5
 353 435 353 435 253 439 c 1,6,-1
 248 250 l 1,7,-1
 253 40 l 1,8,9
 253 -10 253 -10 215 -10 c 128,-1,10
 177 -10 177 -10 177 40 c 1,11,-1
 182 250 l 1,12,-1
 177 439 l 1,13,-1
 65 435 l 1,14,15
 15 435 15 435 15 470 c 128,-1,16
 15 505 15 505 65 505 c 1,17,-1
 215 500 l 1,0,-1
EndSplineSet
EndChar

StartChar: U
Encoding: 85 85 56
Width: 585
GlyphClass: 2
Flags: W
LayerCount: 2
Fore
SplineSet
152 428 m 1,0,-1
 144 208 l 1,1,2
 144 140 144 140 173 97.5 c 128,-1,3
 202 55 202 55 253.5 55 c 128,-1,4
 305 55 305 55 353 112.5 c 128,-1,5
 401 170 401 170 420 242 c 1,6,-1
 417 459 l 2,7,8
 417 510 417 510 455 510 c 0,9,10
 501 510 501 510 501 439.5 c 128,-1,11
 501 369 501 369 481 242 c 1,12,13
 481 167 481 167 492 119.5 c 128,-1,14
 503 72 503 72 518 66 c 0,15,16
 524 63 524 63 532.5 62 c 128,-1,17
 541 61 541 61 544.5 59 c 128,-1,18
 548 57 548 57 548 51 c 0,19,20
 548 24 548 24 531.5 7 c 128,-1,21
 515 -10 515 -10 490 -10 c 0,22,23
 427 -10 427 -10 427 118 c 1,24,25
 353 -10 353 -10 241 -10 c 0,26,27
 161 -10 161 -10 117 49.5 c 128,-1,28
 73 109 73 109 73 195 c 1,29,-1
 79 346 l 1,30,31
 79 386 79 386 71 420.5 c 128,-1,32
 63 455 63 455 63 470 c 128,-1,33
 63 485 63 485 75 497.5 c 128,-1,34
 87 510 87 510 106 510 c 0,35,36
 152 510 152 510 152 428 c 1,0,-1
EndSplineSet
EndChar

StartChar: V
Encoding: 86 86 57
Width: 486
GlyphClass: 2
Flags: W
LayerCount: 2
Fore
SplineSet
245 80 m 128,-1,1
 248 80 248 80 253.5 90.5 c 128,-1,2
 259 101 259 101 268 124 c 0,3,4
 279 151 279 151 302 218 c 1,5,-1
 320 267 l 2,6,7
 336 311 336 311 360 386.5 c 128,-1,8
 384 462 384 462 389 474 c 0,9,10
 403 510 403 510 428 510 c 0,11,12
 443 510 443 510 453.5 500.5 c 128,-1,13
 464 491 464 491 464 477.5 c 128,-1,14
 464 464 464 464 455.5 441.5 c 128,-1,15
 447 419 447 419 424.5 361.5 c 128,-1,16
 402 304 402 304 360.5 188 c 128,-1,17
 319 72 319 72 298 31 c 128,-1,18
 277 -10 277 -10 242.5 -10 c 128,-1,19
 208 -10 208 -10 190 26 c 0,20,21
 183 40 183 40 138 158.5 c 128,-1,22
 93 277 93 277 78 315 c 128,-1,23
 63 353 63 353 54.5 374 c 128,-1,24
 46 395 46 395 35 426.5 c 128,-1,25
 24 458 24 458 24 474.5 c 128,-1,26
 24 491 24 491 34 500.5 c 128,-1,27
 44 510 44 510 59 510 c 0,28,29
 86 510 86 510 100 475 c 0,30,31
 105 463 105 463 129.5 387.5 c 128,-1,32
 154 312 154 312 165 282.5 c 128,-1,33
 176 253 176 253 188 219 c 128,-1,34
 200 185 200 185 206.5 166 c 128,-1,35
 213 147 213 147 222 124 c 128,-1,36
 231 101 231 101 236.5 90.5 c 128,-1,0
 242 80 242 80 245 80 c 128,-1,1
EndSplineSet
EndChar

StartChar: W
Encoding: 87 87 58
Width: 787
GlyphClass: 2
Flags: W
LayerCount: 2
Fore
SplineSet
229 80 m 1,0,1
 238 80 238 80 294 270 c 128,-1,2
 350 460 350 460 356 474 c 0,3,4
 370 510 370 510 400.5 510 c 128,-1,5
 431 510 431 510 442.5 475.5 c 128,-1,6
 454 441 454 441 473 370 c 128,-1,7
 492 299 492 299 501 268 c 0,8,9
 556 80 556 80 565.5 80 c 128,-1,10
 575 80 575 80 631 267 c 0,11,12
 644 310 644 310 664 384 c 128,-1,13
 684 458 684 458 688 471 c 0,14,15
 700 510 700 510 725 510 c 0,16,17
 740 510 740 510 750.5 501 c 128,-1,18
 761 492 761 492 761 479.5 c 128,-1,19
 761 467 761 467 758.5 456.5 c 128,-1,20
 756 446 756 446 749.5 426.5 c 128,-1,21
 743 407 743 407 736 385 c 128,-1,22
 729 363 729 363 715.5 323.5 c 128,-1,23
 702 284 702 284 669 180 c 128,-1,24
 636 76 636 76 617 28 c 0,25,26
 602 -10 602 -10 562 -10 c 128,-1,27
 522 -10 522 -10 504 42 c 0,28,29
 468 146 468 146 435 261.5 c 128,-1,30
 402 377 402 377 394.5 377 c 128,-1,31
 387 377 387 377 375.5 337.5 c 128,-1,32
 364 298 364 298 357.5 275.5 c 128,-1,33
 351 253 351 253 349 245 c 0,34,35
 296 61 296 61 277 25 c 1,36,37
 260 -10 260 -10 222 -10 c 128,-1,38
 184 -10 184 -10 165 45 c 0,39,40
 158 65 158 65 136.5 131 c 128,-1,41
 115 197 115 197 101.5 237.5 c 128,-1,42
 88 278 88 278 74.5 316 c 128,-1,43
 61 354 61 354 53 376 c 128,-1,44
 45 398 45 398 35 428 c 128,-1,45
 25 458 25 458 25 474 c 128,-1,46
 25 490 25 490 35.5 500 c 128,-1,47
 46 510 46 510 61 510 c 0,48,49
 90 510 90 510 101 475 c 0,50,51
 105 463 105 463 127.5 387.5 c 128,-1,52
 150 312 150 312 159.5 281.5 c 128,-1,53
 169 251 169 251 179 219 c 0,54,55
 194 171 194 171 210 124 c 1,56,57
 226 82 226 82 229 80 c 1,0,1
EndSplineSet
EndChar

StartChar: X
Encoding: 88 88 59
Width: 492
GlyphClass: 2
Flags: W
LayerCount: 2
Fore
SplineSet
385 109 m 1,0,1
 411 75 411 75 433.5 63 c 128,-1,2
 456 51 456 51 465.5 51 c 128,-1,3
 475 51 475 51 475 46 c 0,4,5
 475 21 475 21 460.5 3 c 128,-1,6
 446 -15 446 -15 430.5 -15 c 128,-1,7
 415 -15 415 -15 406 -11.5 c 128,-1,8
 397 -8 397 -8 387 2 c 128,-1,9
 377 12 377 12 368 22.5 c 128,-1,10
 359 33 359 33 344.5 54 c 128,-1,11
 330 75 330 75 317.5 93.5 c 128,-1,12
 305 112 305 112 283 145 c 128,-1,13
 261 178 261 178 242 206 c 1,14,15
 200 145 200 145 156.5 79.5 c 128,-1,16
 113 14 113 14 102.5 2 c 128,-1,17
 92 -10 92 -10 79.5 -10 c 128,-1,18
 67 -10 67 -10 56.5 -0.5 c 128,-1,19
 46 9 46 9 46 21 c 128,-1,20
 46 33 46 33 49 41 c 0,21,22
 53 53 53 53 93 104.5 c 128,-1,23
 133 156 133 156 205 261 c 1,24,-1
 119 389 l 1,25,26
 98 416 98 416 79 430 c 128,-1,27
 60 444 60 444 44 445.5 c 128,-1,28
 28 447 28 447 28 456 c 0,29,30
 28 481 28 481 41.5 498 c 128,-1,31
 55 515 55 515 79 515 c 128,-1,32
 103 515 103 515 125 489 c 128,-1,33
 147 463 147 463 183 408.5 c 128,-1,34
 219 354 219 354 223 348 c 128,-1,35
 227 342 227 342 233.5 332 c 128,-1,36
 240 322 240 322 246 313 c 1,37,38
 358 482 358 482 361 486 c 0,39,40
 378 510 378 510 392.5 510 c 128,-1,41
 407 510 407 510 417 499.5 c 128,-1,42
 427 489 427 489 427 476.5 c 128,-1,43
 427 464 427 464 415 444.5 c 128,-1,44
 403 425 403 425 359 365.5 c 128,-1,45
 315 306 315 306 283 262 c 1,46,-1
 385 109 l 1,0,1
EndSplineSet
EndChar

StartChar: Y
Encoding: 89 89 60
Width: 434
GlyphClass: 2
Flags: W
LayerCount: 2
Fore
SplineSet
253 138 m 1,0,-1
 255 39 l 2,1,2
 255 -10 255 -10 217.5 -10 c 128,-1,3
 180 -10 180 -10 180 39 c 2,4,-1
 182 138 l 1,5,-1
 182 198 l 2,6,7
 182 218 182 218 134.5 287 c 128,-1,8
 87 356 87 356 79 368.5 c 128,-1,9
 71 381 71 381 60 397 c 128,-1,10
 49 413 49 413 43.5 421.5 c 128,-1,11
 38 430 38 430 32 440 c 0,12,13
 15 466 15 466 15 478 c 128,-1,14
 15 490 15 490 25 500 c 128,-1,15
 35 510 35 510 44.5 510 c 128,-1,16
 54 510 54 510 60 507.5 c 128,-1,17
 66 505 66 505 70 502 c 128,-1,18
 74 499 74 499 79.5 491.5 c 128,-1,19
 85 484 85 484 88 479.5 c 128,-1,20
 91 475 91 475 97.5 464 c 128,-1,21
 104 453 104 453 117.5 430.5 c 128,-1,22
 131 408 131 408 172 346 c 128,-1,23
 213 284 213 284 220 284 c 0,24,25
 230 284 230 284 331 448 c 1,26,27
 361 500 361 500 376 507 c 0,28,29
 382 510 382 510 392 510 c 128,-1,30
 402 510 402 510 411 500.5 c 128,-1,31
 420 491 420 491 420 482.5 c 128,-1,32
 420 474 420 474 418 468 c 0,33,34
 414 458 414 458 387.5 419.5 c 128,-1,35
 361 381 361 381 347 360 c 128,-1,36
 333 339 333 339 319 318 c 0,37,38
 303 293 303 293 278 253.5 c 128,-1,39
 253 214 253 214 253 198 c 2,40,-1
 253 138 l 1,0,-1
EndSplineSet
EndChar

StartChar: Z
Encoding: 90 90 61
Width: 480
GlyphClass: 2
Flags: W
LayerCount: 2
Fore
SplineSet
246 60 m 1,0,-1
 396 65 l 1,1,2
 446 65 446 65 446 30 c 128,-1,3
 446 -5 446 -5 396 -5 c 1,4,-1
 246 0 l 1,5,6
 246 0 246 0 84 -5 c 1,7,8
 36 -5 36 -5 36 30 c 0,9,10
 36 56 36 56 70 96 c 0,11,12
 132 167 132 167 178.5 230.5 c 128,-1,13
 225 294 225 294 249 326 c 0,14,15
 310 406 310 406 327 437 c 1,16,17
 252 440 252 440 242 440 c 2,18,-1
 96 435 l 1,19,20
 46 435 46 435 46 470 c 128,-1,21
 46 505 46 505 96 505 c 1,22,-1
 242 500 l 1,23,-1
 384 505 l 1,24,25
 432 505 432 505 432 470 c 0,26,27
 432 448 432 448 413.5 424 c 128,-1,28
 395 400 395 400 364 363.5 c 128,-1,29
 333 327 333 327 259 227.5 c 128,-1,30
 185 128 185 128 140 62 c 1,31,32
 200 60 200 60 246 60 c 1,0,-1
EndSplineSet
EndChar

StartChar: bracketleft
Encoding: 91 91 62
Width: 350
GlyphClass: 2
Flags: W
LayerCount: 2
Fore
SplineSet
188 -18 m 1,0,-1
 275 -15 l 2,1,2
 293 -15 293 -15 304.5 -24 c 128,-1,3
 316 -33 316 -33 316 -48 c 128,-1,4
 316 -63 316 -63 304.5 -72 c 128,-1,5
 293 -81 293 -81 275 -81 c 2,6,-1
 188 -78 l 1,7,-1
 111 -82 l 2,8,9
 93 -82 93 -82 81.5 -73 c 128,-1,10
 70 -64 70 -64 70 -51 c 128,-1,11
 70 -38 70 -38 73 61.5 c 128,-1,12
 76 161 76 161 76 258.5 c 128,-1,13
 76 356 76 356 73 449.5 c 128,-1,14
 70 543 70 543 70 553.5 c 128,-1,15
 70 564 70 564 81.5 573 c 128,-1,16
 93 582 93 582 111 582 c 2,17,-1
 188 578 l 1,18,-1
 275 581 l 2,19,20
 293 581 293 581 304.5 572 c 128,-1,21
 316 563 316 563 316 548 c 128,-1,22
 316 533 316 533 304.5 524 c 128,-1,23
 293 515 293 515 275 515 c 2,24,-1
 188 518 l 1,25,-1
 144 518 l 1,26,27
 138 266 138 266 138 241 c 128,-1,28
 138 216 138 216 144 -18 c 1,29,-1
 188 -18 l 1,0,-1
EndSplineSet
EndChar

StartChar: backslash
Encoding: 92 92 63
Width: 288
GlyphClass: 2
Flags: W
LayerCount: 2
Fore
SplineSet
160 4 m 2,0,1
 121 208 121 208 82.5 367 c 128,-1,2
 44 526 44 526 44 543.5 c 128,-1,3
 44 561 44 561 54.5 571 c 128,-1,4
 65 581 65 581 79 581 c 0,5,6
 111 581 111 581 119 542 c 2,7,-1
 127 500 l 2,8,9
 169 282 169 282 206.5 126 c 128,-1,10
 244 -30 244 -30 244 -46 c 128,-1,11
 244 -62 244 -62 234 -72 c 128,-1,12
 224 -82 224 -82 210 -82 c 0,13,14
 179 -82 179 -82 169 -43 c 1,15,-1
 160 4 l 2,0,1
EndSplineSet
EndChar

StartChar: bracketright
Encoding: 93 93 64
Width: 350
GlyphClass: 2
Flags: W
LayerCount: 2
Fore
SplineSet
162 518 m 1,0,-1
 75 515 l 2,1,2
 57 515 57 515 45.5 524 c 128,-1,3
 34 533 34 533 34 548 c 128,-1,4
 34 563 34 563 45.5 572 c 128,-1,5
 57 581 57 581 75 581 c 2,6,-1
 162 578 l 1,7,-1
 239 582 l 2,8,9
 257 582 257 582 268.5 573 c 128,-1,10
 280 564 280 564 280 551 c 128,-1,11
 280 538 280 538 277 438.5 c 128,-1,12
 274 339 274 339 274 241.5 c 128,-1,13
 274 144 274 144 277 50.5 c 128,-1,14
 280 -43 280 -43 280 -53.5 c 128,-1,15
 280 -64 280 -64 268.5 -73 c 128,-1,16
 257 -82 257 -82 239 -82 c 2,17,-1
 162 -78 l 1,18,-1
 75 -81 l 2,19,20
 57 -81 57 -81 45.5 -72 c 128,-1,21
 34 -63 34 -63 34 -48 c 128,-1,22
 34 -33 34 -33 45.5 -24 c 128,-1,23
 57 -15 57 -15 75 -15 c 2,24,-1
 162 -18 l 1,25,-1
 206 -18 l 1,26,27
 212 234 212 234 212 259 c 128,-1,28
 212 284 212 284 206 518 c 1,29,-1
 162 518 l 1,0,-1
EndSplineSet
EndChar

StartChar: asciicircum
Encoding: 94 94 65
Width: 521
GlyphClass: 2
Flags: W
LayerCount: 2
Fore
SplineSet
75 229 m 0,0,1
 42 229 42 229 42 260 c 0,2,3
 42 273 42 273 103 365 c 0,4,5
 110 376 110 376 114 382.5 c 128,-1,6
 118 389 118 389 135.5 413.5 c 128,-1,7
 153 438 153 438 225 558 c 0,8,9
 238 581 238 581 261.5 581 c 128,-1,10
 285 581 285 581 298 559 c 0,11,12
 350 473 350 473 414 376 c 128,-1,13
 478 279 478 279 480 265 c 0,14,15
 481 262 481 262 481 254 c 128,-1,16
 481 246 481 246 471.5 237.5 c 128,-1,17
 462 229 462 229 445 229 c 128,-1,18
 428 229 428 229 415 253 c 0,19,20
 414 255 414 255 376 318 c 128,-1,21
 338 381 338 381 302 437 c 128,-1,22
 266 493 266 493 260 493 c 128,-1,23
 254 493 254 493 218 437 c 128,-1,24
 182 381 182 381 144 318 c 128,-1,25
 106 255 106 255 105 253 c 0,26,27
 92 229 92 229 75 229 c 0,0,1
EndSplineSet
EndChar

StartChar: underscore
Encoding: 95 95 66
Width: 582
GlyphClass: 2
Flags: W
LayerCount: 2
Fore
SplineSet
291 -27 m 1,0,-1
 488 -24 l 2,1,2
 506 -24 506 -24 517.5 -33 c 128,-1,3
 529 -42 529 -42 529 -57 c 128,-1,4
 529 -72 529 -72 517.5 -81 c 128,-1,5
 506 -90 506 -90 488 -90 c 2,6,-1
 291 -87 l 1,7,-1
 94 -90 l 2,8,9
 76 -90 76 -90 64.5 -81 c 128,-1,10
 53 -72 53 -72 53 -57 c 128,-1,11
 53 -42 53 -42 64.5 -33 c 128,-1,12
 76 -24 76 -24 94 -24 c 2,13,14
 94 -24 94 -24 291 -27 c 1,0,-1
EndSplineSet
EndChar

StartChar: grave
Encoding: 96 96 67
Width: 285
GlyphClass: 2
Flags: W
LayerCount: 2
Fore
SplineSet
215 584 m 0,0,1
 215 563 215 563 188 563 c 128,-1,2
 161 563 161 563 115.5 606 c 128,-1,3
 70 649 70 649 70 692 c 0,4,5
 70 707 70 707 79 718.5 c 128,-1,6
 88 730 88 730 106 730 c 128,-1,7
 124 730 124 730 135.5 716 c 128,-1,8
 147 702 147 702 157.5 676.5 c 128,-1,9
 168 651 168 651 175.5 641.5 c 128,-1,10
 183 632 183 632 199 614 c 128,-1,11
 215 596 215 596 215 584 c 0,0,1
EndSplineSet
EndChar

StartChar: a
Encoding: 97 97 68
Width: 571
GlyphClass: 2
Flags: W
LayerCount: 2
Fore
SplineSet
467 242 m 1,0,1
 467 167 467 167 478 119.5 c 128,-1,2
 489 72 489 72 504 66 c 0,3,4
 510 63 510 63 518.5 62 c 128,-1,5
 527 61 527 61 530.5 59 c 128,-1,6
 534 57 534 57 534 51 c 0,7,8
 534 24 534 24 519.5 7 c 128,-1,9
 505 -10 505 -10 476 -10 c 128,-1,10
 447 -10 447 -10 431 27 c 128,-1,11
 415 64 415 64 415 122 c 1,12,13
 390 66 390 66 341.5 28 c 128,-1,14
 293 -10 293 -10 232.5 -10 c 128,-1,15
 172 -10 172 -10 128 30 c 0,16,17
 48 103 48 103 48 239 c 0,18,19
 48 348 48 348 111 429 c 128,-1,20
 174 510 174 510 273 510 c 0,21,22
 348 510 348 510 403 459 c 1,23,24
 403 510 403 510 441 510 c 0,25,26
 487 510 487 510 487 439.5 c 128,-1,27
 487 369 487 369 467 242 c 1,0,1
409 233 m 1,28,-1
 404 387 l 1,29,30
 344 445 344 445 278.5 445 c 128,-1,31
 213 445 213 445 166 386 c 128,-1,32
 119 327 119 327 119 244.5 c 128,-1,33
 119 162 119 162 149.5 108.5 c 128,-1,34
 180 55 180 55 236 55 c 128,-1,35
 292 55 292 55 338 105 c 128,-1,36
 384 155 384 155 409 233 c 1,28,-1
EndSplineSet
EndChar

StartChar: b
Encoding: 98 98 69
Width: 519
GlyphClass: 2
Flags: W
LayerCount: 2
Fore
SplineSet
323.5 440 m 128,-1,1
 298 448 298 448 238 448 c 128,-1,2
 178 448 178 448 144 438 c 1,3,-1
 144 292 l 1,4,5
 164 297 164 297 196.5 297 c 128,-1,6
 229 297 229 297 279 291 c 1,7,8
 323 291 323 291 351 315.5 c 128,-1,9
 379 340 379 340 379.5 367.5 c 128,-1,10
 380 395 380 395 364.5 413.5 c 128,-1,0
 349 432 349 432 323.5 440 c 128,-1,1
193 210 m 2,11,-1
 174 210 l 2,12,13
 162 210 162 210 144 213 c 1,14,-1
 144 59 l 1,15,16
 186 50 186 50 253 50 c 128,-1,17
 320 50 320 50 363 76 c 128,-1,18
 406 102 406 102 406 144 c 0,19,20
 406 171 406 171 375 192 c 128,-1,21
 344 213 344 213 300 222 c 1,22,23
 252 210 252 210 193 210 c 2,11,-1
76 252 m 1,24,-1
 70 441 l 1,25,26
 70 481 70 481 112 497 c 128,-1,27
 154 513 154 513 253 513 c 128,-1,28
 352 513 352 513 401 475 c 128,-1,29
 450 437 450 437 450 380 c 0,30,31
 450 341 450 341 426 309.5 c 128,-1,32
 402 278 402 278 363 263 c 1,33,34
 477 227 477 227 477 146 c 0,35,36
 477 79 477 79 421 32 c 128,-1,37
 365 -15 365 -15 245 -15 c 0,38,39
 152 -15 152 -15 111.5 -2 c 128,-1,40
 71 11 71 11 71 40 c 2,41,-1
 76 252 l 1,24,-1
EndSplineSet
EndChar

StartChar: c
Encoding: 99 99 70
Width: 509
GlyphClass: 2
Flags: W
LayerCount: 2
Fore
SplineSet
446 103 m 0,0,1
 471 103 471 103 471 76.5 c 128,-1,2
 471 50 471 50 413 17.5 c 128,-1,3
 355 -15 355 -15 291 -15 c 0,4,5
 186 -15 186 -15 116 62.5 c 128,-1,6
 46 140 46 140 46 250 c 128,-1,7
 46 360 46 360 116.5 437.5 c 128,-1,8
 187 515 187 515 302 515 c 0,9,10
 365 515 365 515 413.5 486.5 c 128,-1,11
 462 458 462 458 462 428 c 0,12,13
 462 412 462 412 452 401.5 c 128,-1,14
 442 391 442 391 429 391 c 128,-1,15
 416 391 416 391 399 406 c 1,16,17
 330 446 330 446 293 450 c 1,18,19
 224 450 224 450 172.5 392 c 128,-1,20
 121 334 121 334 121 251 c 128,-1,21
 121 168 121 168 173 109 c 128,-1,22
 225 50 225 50 302 50 c 0,23,24
 361 50 361 50 417 90 c 0,25,26
 436 103 436 103 446 103 c 0,0,1
EndSplineSet
EndChar

StartChar: d
Encoding: 100 100 71
Width: 549
GlyphClass: 2
Flags: W
LayerCount: 2
Fore
SplineSet
79 252 m 1,0,-1
 73 455 l 2,1,2
 73 477 73 477 78 486 c 0,3,4
 92 510 92 510 182.5 510 c 128,-1,5
 273 510 273 510 329.5 490 c 128,-1,6
 386 470 386 470 417.5 441 c 128,-1,7
 449 412 449 412 470 374 c 0,8,9
 504 311 504 311 504 248 c 0,10,11
 504 167 504 167 442 86 c 0,12,13
 409 44 409 44 346.5 17 c 128,-1,14
 284 -10 284 -10 202.5 -10 c 128,-1,15
 121 -10 121 -10 97.5 2 c 128,-1,16
 74 14 74 14 74 45 c 2,17,-1
 79 252 l 1,0,-1
369.5 109.5 m 128,-1,19
 430 164 430 164 430 245 c 128,-1,20
 430 326 430 326 374 384.5 c 128,-1,21
 318 443 318 443 211 443 c 0,22,23
 180 443 180 443 150 437 c 1,24,25
 145 391 145 391 145 312 c 128,-1,26
 145 233 145 233 149 61 c 1,27,-1
 211 55 l 1,28,18
 309 55 309 55 369.5 109.5 c 128,-1,19
EndSplineSet
EndChar

StartChar: e
Encoding: 101 101 72
Width: 538
GlyphClass: 2
Flags: W
LayerCount: 2
Fore
SplineSet
377.5 292 m 128,-1,1
 418 315 418 315 418 354 c 128,-1,2
 418 393 418 393 391.5 421.5 c 128,-1,3
 365 450 365 450 316 450 c 0,4,5
 250 450 250 450 205 400.5 c 128,-1,6
 160 351 160 351 147 285 c 1,7,8
 202 269 202 269 269.5 269 c 128,-1,0
 337 269 337 269 377.5 292 c 128,-1,1
438.5 470 m 128,-1,10
 489 425 489 425 489 353 c 128,-1,11
 489 281 489 281 426.5 243.5 c 128,-1,12
 364 206 364 206 273 206 c 0,13,14
 221 206 221 206 146 221 c 1,15,16
 152 151 152 151 198.5 100.5 c 128,-1,17
 245 50 245 50 302 50 c 0,18,19
 336 50 336 50 365 59.5 c 128,-1,20
 394 69 394 69 421.5 90 c 128,-1,21
 449 111 449 111 461.5 111 c 128,-1,22
 474 111 474 111 481.5 103.5 c 128,-1,23
 489 96 489 96 489 85 c 0,24,25
 489 57 489 57 431.5 21 c 128,-1,26
 374 -15 374 -15 307 -15 c 0,27,28
 203 -15 203 -15 142 58 c 128,-1,29
 81 131 81 131 76 234 c 1,30,31
 23 250 23 250 23 286 c 0,32,33
 23 301 23 301 31.5 309.5 c 128,-1,34
 40 318 40 318 52 318 c 128,-1,35
 64 318 64 318 82 309 c 1,36,37
 104 399 104 399 165.5 457 c 128,-1,38
 227 515 227 515 307.5 515 c 128,-1,9
 388 515 388 515 438.5 470 c 128,-1,10
EndSplineSet
EndChar

StartChar: f
Encoding: 102 102 73
Width: 457
GlyphClass: 2
Flags: W
LayerCount: 2
Fore
SplineSet
216 280 m 1,0,-1
 336 285 l 1,1,2
 386 285 386 285 386 250 c 128,-1,3
 386 215 386 215 336 215 c 1,4,-1
 216 220 l 1,5,-1
 153 219 l 1,6,7
 153 219 153 219 158 40 c 1,8,9
 158 -10 158 -10 120 -10 c 128,-1,10
 82 -10 82 -10 82 40 c 1,11,-1
 87 216 l 1,12,13
 36 216 36 216 36 250.5 c 128,-1,14
 36 285 36 285 87 285 c 1,15,-1
 82 454 l 2,16,17
 82 475 82 475 94.5 490 c 128,-1,18
 107 505 107 505 134 505 c 1,19,-1
 264 500 l 1,20,-1
 384 505 l 1,21,22
 434 505 434 505 434 470 c 128,-1,23
 434 435 434 435 384 435 c 1,24,-1
 264 440 l 2,25,26
 258 440 258 440 158 436 c 1,27,-1
 153 281 l 1,28,29
 172 280 172 280 216 280 c 1,0,-1
EndSplineSet
EndChar

StartChar: g
Encoding: 103 103 74
Width: 530
GlyphClass: 2
Flags: W
LayerCount: 2
Fore
SplineSet
366 266 m 1,0,-1
 439 270 l 1,1,2
 489 270 489 270 489 213 c 0,3,4
 489 119 489 119 432 52 c 128,-1,5
 375 -15 375 -15 277.5 -15 c 128,-1,6
 180 -15 180 -15 113 62.5 c 128,-1,7
 46 140 46 140 46 250 c 128,-1,8
 46 360 46 360 116.5 437.5 c 128,-1,9
 187 515 187 515 302 515 c 0,10,11
 366 515 366 515 414 489.5 c 128,-1,12
 462 464 462 464 462 438 c 0,13,14
 462 422 462 422 452 411.5 c 128,-1,15
 442 401 442 401 429 401 c 128,-1,16
 416 401 416 401 399 414 c 0,17,18
 349 450 349 450 286.5 450 c 128,-1,19
 224 450 224 450 172.5 392 c 128,-1,20
 121 334 121 334 121 251 c 128,-1,21
 121 168 121 168 170.5 109 c 128,-1,22
 220 50 220 50 292 50 c 0,23,24
 343 50 343 50 380 90.5 c 128,-1,25
 417 131 417 131 417 203 c 1,26,-1
 374 203 l 1,27,-1
 298 199 l 1,28,29
 253 199 253 199 253 233 c 0,30,31
 253 251 253 251 265.5 260.5 c 128,-1,32
 278 270 278 270 295 270 c 2,33,34
 295 270 295 270 366 266 c 1,0,-1
EndSplineSet
EndChar

StartChar: h
Encoding: 104 104 75
Width: 604
GlyphClass: 2
Flags: W
LayerCount: 2
Fore
SplineSet
501 218 m 1,0,-1
 506 40 l 1,1,2
 506 -10 506 -10 468 -10 c 128,-1,3
 430 -10 430 -10 430 40 c 1,4,-1
 435 220 l 1,5,6
 315 223 315 223 300.5 223 c 128,-1,7
 286 223 286 223 169 220 c 1,8,-1
 174 40 l 1,9,10
 174 -10 174 -10 136 -10 c 128,-1,11
 98 -10 98 -10 98 40 c 1,12,-1
 103 218 l 1,13,-1
 82 218 l 2,14,15
 32 218 32 218 32 253 c 128,-1,16
 32 288 32 288 82 288 c 2,17,-1
 102 288 l 1,18,19
 98 444 98 444 98 460 c 0,20,21
 98 510 98 510 136 510 c 128,-1,22
 174 510 174 510 174 460 c 1,23,-1
 169 285 l 1,24,25
 247 283 247 283 301 283 c 128,-1,26
 355 283 355 283 435 285 c 1,27,-1
 430 460 l 1,28,29
 430 510 430 510 468 510 c 128,-1,30
 506 510 506 510 506 460 c 1,31,-1
 501 288 l 1,32,-1
 522 288 l 2,33,34
 572 288 572 288 572 253 c 128,-1,35
 572 218 572 218 522 218 c 2,36,-1
 501 218 l 1,0,-1
EndSplineSet
EndChar

StartChar: i
Encoding: 105 105 76
Width: 224
GlyphClass: 2
Flags: W
LayerCount: 2
Fore
SplineSet
109 581 m 0,0,1
 67 581 67 581 67 632 c 0,2,3
 67 655 67 655 81.5 672.5 c 128,-1,4
 96 690 96 690 117 690 c 128,-1,5
 138 690 138 690 148 676.5 c 128,-1,6
 158 663 158 663 158 642.5 c 128,-1,7
 158 622 158 622 144 601.5 c 128,-1,8
 130 581 130 581 109 581 c 0,0,1
145 250 m 1,9,-1
 150 40 l 1,10,11
 150 -10 150 -10 112 -10 c 128,-1,12
 74 -10 74 -10 74 40 c 1,13,-1
 79 250 l 1,14,-1
 74 460 l 1,15,16
 74 510 74 510 112 510 c 128,-1,17
 150 510 150 510 150 460 c 1,18,-1
 145 250 l 1,9,-1
EndSplineSet
EndChar

StartChar: j
Encoding: 106 106 77
Width: 457
GlyphClass: 2
Flags: W
LayerCount: 2
Fore
SplineSet
365 255 m 2,0,-1
 364 167 l 2,1,2
 364 82 364 82 314.5 36 c 128,-1,3
 265 -10 265 -10 195 -10 c 128,-1,4
 125 -10 125 -10 75 24.5 c 128,-1,5
 25 59 25 59 25 93 c 128,-1,6
 25 127 25 127 56 127 c 0,7,8
 67 127 67 127 84 109 c 0,9,10
 133 55 133 55 182 55 c 0,11,12
 283 55 283 55 293 153 c 1,13,14
 299 201 299 201 299 246.5 c 128,-1,15
 299 292 299 292 298 328.5 c 128,-1,16
 297 365 297 365 295 398 c 128,-1,17
 293 431 293 431 293 439 c 1,18,19
 279 440 279 440 251 440 c 1,20,-1
 121 435 l 1,21,22
 71 435 71 435 71 470 c 128,-1,23
 71 505 71 505 121 505 c 1,24,-1
 251 500 l 1,25,-1
 381 505 l 1,26,27
 431 505 431 505 431 470 c 128,-1,28
 431 435 431 435 369 435 c 1,29,30
 365 291 365 291 365 255 c 2,0,-1
EndSplineSet
EndChar

StartChar: k
Encoding: 107 107 78
Width: 505
GlyphClass: 2
Flags: W
LayerCount: 2
Fore
SplineSet
222 309 m 1,0,-1
 260 305 l 1,1,2
 296 329 296 329 326 379.5 c 128,-1,3
 356 430 356 430 369 470 c 128,-1,4
 382 510 382 510 410 510 c 0,5,6
 423 510 423 510 432.5 500 c 128,-1,7
 442 490 442 490 442 477 c 0,8,9
 442 437 442 437 400.5 371.5 c 128,-1,10
 359 306 359 306 309 262 c 1,11,-1
 400 108 l 1,12,13
 419 80 419 80 440 70.5 c 128,-1,14
 461 61 461 61 471.5 60.5 c 128,-1,15
 482 60 482 60 482 52 c 0,16,17
 482 28 482 28 467 9.5 c 128,-1,18
 452 -9 452 -9 430.5 -9 c 128,-1,19
 409 -9 409 -9 396 -2 c 1,20,21
 374 12 374 12 335.5 80 c 128,-1,22
 297 148 297 148 250 224 c 1,23,24
 225 214 225 214 186 214 c 1,25,-1
 145 218 l 1,26,27
 150 48 150 48 150 40 c 0,28,29
 150 -10 150 -10 112 -10 c 128,-1,30
 74 -10 74 -10 74 40 c 1,31,-1
 79 250 l 1,32,-1
 74 460 l 1,33,34
 74 510 74 510 112 510 c 128,-1,35
 150 510 150 510 150 460 c 0,36,37
 150 454 150 454 147.5 396.5 c 128,-1,38
 145 339 145 339 145 297 c 1,39,40
 181 309 181 309 222 309 c 1,0,-1
EndSplineSet
EndChar

StartChar: l
Encoding: 108 108 79
Width: 429
GlyphClass: 2
Flags: W
LayerCount: 2
Fore
SplineSet
246 60 m 1,0,-1
 366 65 l 1,1,2
 416 65 416 65 416 30 c 128,-1,3
 416 -5 416 -5 366 -5 c 1,4,-1
 246 0 l 1,5,-1
 126 -5 l 1,6,7
 74 -5 74 -5 74 46 c 1,8,9
 74 46 74 46 79 250 c 1,10,11
 79 250 79 250 74 460 c 1,12,13
 74 510 74 510 112 510 c 128,-1,14
 150 510 150 510 150 460 c 1,15,-1
 145 250 l 1,16,-1
 150 64 l 1,17,18
 196 60 196 60 246 60 c 1,0,-1
EndSplineSet
EndChar

StartChar: m
Encoding: 109 109 80
Width: 877
GlyphClass: 2
Flags: W
LayerCount: 2
Fore
SplineSet
794 315 m 1,0,-1
 789 158 l 2,1,2
 789 130 789 130 789.5 115.5 c 128,-1,3
 790 101 790 101 795.5 85.5 c 128,-1,4
 801 70 801 70 809 66.5 c 128,-1,5
 817 63 817 63 825.5 62 c 128,-1,6
 834 61 834 61 837.5 59 c 128,-1,7
 841 57 841 57 841 51 c 0,8,9
 841 25 841 25 824.5 7.5 c 128,-1,10
 808 -10 808 -10 786 -10 c 0,11,12
 748 -10 748 -10 733.5 20 c 128,-1,13
 719 50 719 50 719 108 c 1,14,-1
 723 292 l 1,15,16
 723 360 723 360 696.5 402 c 128,-1,17
 670 444 670 444 622.5 444 c 128,-1,18
 575 444 575 444 530 387 c 128,-1,19
 485 330 485 330 467 258 c 1,20,-1
 470 41 l 2,21,22
 470 -10 470 -10 432 -10 c 0,23,24
 386 -10 386 -10 386 60.5 c 128,-1,25
 386 131 386 131 406 258 c 1,26,27
 406 444 406 444 304 444 c 0,28,29
 257 444 257 444 212 387 c 128,-1,30
 167 330 167 330 149 258 c 1,31,-1
 152 41 l 2,32,33
 152 -10 152 -10 114 -10 c 0,34,35
 68 -10 68 -10 68 60.5 c 128,-1,36
 68 131 68 131 88 258 c 1,37,38
 88 300 88 300 79.5 374 c 128,-1,39
 71 448 71 448 71 465.5 c 128,-1,40
 71 483 71 483 81.5 496.5 c 128,-1,41
 92 510 92 510 110 510 c 128,-1,42
 128 510 128 510 138.5 496.5 c 128,-1,43
 149 483 149 483 149 466 c 128,-1,44
 149 449 149 449 148.5 424.5 c 128,-1,45
 148 400 148 400 148 383 c 1,46,47
 216 510 216 510 318 510 c 0,48,49
 377 510 377 510 414.5 475.5 c 128,-1,50
 452 441 452 441 466 383 c 1,51,52
 534 510 534 510 636 510 c 0,53,54
 711 510 711 510 752.5 453 c 128,-1,55
 794 396 794 396 794 315 c 1,0,-1
EndSplineSet
EndChar

StartChar: n
Encoding: 110 110 81
Width: 579
GlyphClass: 2
Flags: W
LayerCount: 2
Fore
SplineSet
496 315 m 1,0,-1
 491 158 l 2,1,2
 491 130 491 130 491.5 115.5 c 128,-1,3
 492 101 492 101 497.5 85.5 c 128,-1,4
 503 70 503 70 511 66.5 c 128,-1,5
 519 63 519 63 527.5 62 c 128,-1,6
 536 61 536 61 539.5 59 c 128,-1,7
 543 57 543 57 543 51 c 0,8,9
 543 25 543 25 526.5 7.5 c 128,-1,10
 510 -10 510 -10 488 -10 c 0,11,12
 450 -10 450 -10 435.5 20 c 128,-1,13
 421 50 421 50 421 108 c 1,14,-1
 425 292 l 1,15,16
 425 360 425 360 396 402 c 128,-1,17
 367 444 367 444 315.5 444 c 128,-1,18
 264 444 264 444 216 387 c 128,-1,19
 168 330 168 330 149 258 c 1,20,-1
 152 41 l 2,21,22
 152 -10 152 -10 114 -10 c 0,23,24
 68 -10 68 -10 68 60.5 c 128,-1,25
 68 131 68 131 88 258 c 1,26,27
 88 300 88 300 79.5 374 c 128,-1,28
 71 448 71 448 71 465.5 c 128,-1,29
 71 483 71 483 81.5 496.5 c 128,-1,30
 92 510 92 510 110 510 c 128,-1,31
 128 510 128 510 138.5 496.5 c 128,-1,32
 149 483 149 483 149 466 c 128,-1,33
 149 449 149 449 148.5 424.5 c 128,-1,34
 148 400 148 400 148 383 c 1,35,36
 221 510 221 510 328 510 c 0,37,38
 408 510 408 510 452 453 c 128,-1,39
 496 396 496 396 496 315 c 1,0,-1
EndSplineSet
EndChar

StartChar: o
Encoding: 111 111 82
Width: 564
GlyphClass: 2
Flags: W
LayerCount: 2
Fore
SplineSet
446 251 m 128,-1,1
 446 334 446 334 399.5 392 c 128,-1,2
 353 450 353 450 284 450 c 128,-1,3
 215 450 215 450 166.5 391 c 128,-1,4
 118 332 118 332 118 249 c 128,-1,5
 118 166 118 166 164.5 108 c 128,-1,6
 211 50 211 50 280 50 c 128,-1,7
 349 50 349 50 397.5 109 c 128,-1,0
 446 168 446 168 446 251 c 128,-1,1
451 438.5 m 128,-1,9
 517 362 517 362 517 251 c 128,-1,10
 517 140 517 140 450 62.5 c 128,-1,11
 383 -15 383 -15 281 -15 c 128,-1,12
 179 -15 179 -15 113 61.5 c 128,-1,13
 47 138 47 138 47 249 c 128,-1,14
 47 360 47 360 113.5 437.5 c 128,-1,15
 180 515 180 515 282.5 515 c 128,-1,8
 385 515 385 515 451 438.5 c 128,-1,9
EndSplineSet
EndChar

StartChar: p
Encoding: 112 112 83
Width: 491
GlyphClass: 2
Flags: W
LayerCount: 2
Fore
SplineSet
76 262 m 1,0,-1
 70 449 l 1,1,2
 70 485 70 485 125.5 500 c 128,-1,3
 181 515 181 515 242 515 c 0,4,5
 349 515 349 515 405 464 c 128,-1,6
 461 413 461 413 461 336.5 c 128,-1,7
 461 260 461 260 401.5 212.5 c 128,-1,8
 342 165 342 165 248 165 c 0,9,10
 222 165 222 165 142 173 c 1,11,12
 146 41 146 41 146 40 c 0,13,14
 146 -10 146 -10 108.5 -10 c 128,-1,15
 71 -10 71 -10 71 40 c 1,16,-1
 76 262 l 1,0,-1
347.5 258.5 m 128,-1,18
 390 287 390 287 390 335.5 c 128,-1,19
 390 384 390 384 351 417 c 128,-1,20
 312 450 312 450 253.5 450 c 128,-1,21
 195 450 195 450 146 436 c 1,22,23
 142 264 142 264 142 238 c 1,24,25
 195 230 195 230 250 230 c 128,-1,17
 305 230 305 230 347.5 258.5 c 128,-1,18
EndSplineSet
EndChar

StartChar: q
Encoding: 113 113 84
Width: 564
GlyphClass: 2
Flags: W
LayerCount: 2
Fore
SplineSet
517 251 m 0,0,1
 517 185 517 185 492 128.5 c 128,-1,2
 467 72 467 72 422 36 c 1,3,4
 430 22 430 22 443 1.5 c 128,-1,5
 456 -19 456 -19 461 -28.5 c 128,-1,6
 466 -38 466 -38 466 -49 c 128,-1,7
 466 -60 466 -60 457 -69 c 128,-1,8
 448 -78 448 -78 432.5 -78 c 128,-1,9
 417 -78 417 -78 402 -55 c 0,10,11
 399 -50 399 -50 388 -29.5 c 128,-1,12
 377 -9 377 -9 370 4 c 1,13,14
 326 -14 326 -14 282 -14 c 0,15,16
 179 -14 179 -14 113 62.5 c 128,-1,17
 47 139 47 139 47 250 c 128,-1,18
 47 361 47 361 113.5 438.5 c 128,-1,19
 180 516 180 516 282.5 516 c 128,-1,20
 385 516 385 516 451 439.5 c 128,-1,21
 517 363 517 363 517 251 c 0,0,1
295 130 m 2,22,23
 288 141 288 141 288 152.5 c 128,-1,24
 288 164 288 164 298 174 c 128,-1,25
 308 184 308 184 323 184 c 0,26,27
 342 184 342 184 358 151.5 c 128,-1,28
 374 119 374 119 386 97 c 1,29,30
 446 159 446 159 446 247 c 128,-1,31
 446 335 446 335 399.5 393 c 128,-1,32
 353 451 353 451 284 451 c 128,-1,33
 215 451 215 451 166.5 392 c 128,-1,34
 118 333 118 333 118 250 c 128,-1,35
 118 167 118 167 164.5 109 c 128,-1,36
 211 51 211 51 281 51 c 0,37,38
 310 51 310 51 337 63 c 1,39,-1
 295 130 l 2,22,23
EndSplineSet
EndChar

StartChar: r
Encoding: 114 114 85
Width: 408
GlyphClass: 2
Flags: W
LayerCount: 2
Fore
SplineSet
149 229 m 1,0,-1
 152 41 l 2,1,2
 152 -10 152 -10 114 -10 c 0,3,4
 68 -10 68 -10 68 60.5 c 128,-1,5
 68 131 68 131 88 258 c 1,6,7
 88 300 88 300 79.5 373 c 128,-1,8
 71 446 71 446 71 464 c 128,-1,9
 71 482 71 482 81.5 496 c 128,-1,10
 92 510 92 510 110 510 c 128,-1,11
 128 510 128 510 138.5 496 c 128,-1,12
 149 482 149 482 149 465.5 c 128,-1,13
 149 449 149 449 148.5 423.5 c 128,-1,14
 148 398 148 398 148 381 c 1,15,16
 168 432 168 432 210.5 471 c 128,-1,17
 253 510 253 510 298 510 c 128,-1,18
 343 510 343 510 367.5 491.5 c 128,-1,19
 392 473 392 473 392 452 c 128,-1,20
 392 431 392 431 381 419 c 128,-1,21
 370 407 370 407 352.5 407 c 128,-1,22
 335 407 335 407 314.5 425.5 c 128,-1,23
 294 444 294 444 282 444 c 0,24,25
 249 444 249 444 205 373 c 128,-1,26
 161 302 161 302 149 229 c 1,0,-1
EndSplineSet
EndChar

StartChar: s
Encoding: 115 115 86
Width: 455
GlyphClass: 2
Flags: W
LayerCount: 2
Fore
SplineSet
416 144 m 0,0,1
 416 76 416 76 360.5 33 c 128,-1,2
 305 -10 305 -10 227.5 -10 c 128,-1,3
 150 -10 150 -10 93 25.5 c 128,-1,4
 36 61 36 61 36 96 c 0,5,6
 36 111 36 111 45 120.5 c 128,-1,7
 54 130 54 130 65.5 130 c 128,-1,8
 77 130 77 130 84 125.5 c 128,-1,9
 91 121 91 121 103 108 c 128,-1,10
 115 95 115 95 124.5 86 c 128,-1,11
 134 77 134 77 163.5 66 c 128,-1,12
 193 55 193 55 218 55 c 0,13,14
 273 55 273 55 308.5 77.5 c 128,-1,15
 344 100 344 100 344 143 c 0,16,17
 344 195 344 195 244 230 c 0,18,19
 203 244 203 244 161.5 260.5 c 128,-1,20
 120 277 120 277 91 306 c 128,-1,21
 62 335 62 335 62 375 c 0,22,23
 62 429 62 429 111 469.5 c 128,-1,24
 160 510 160 510 231 510 c 128,-1,25
 302 510 302 510 343.5 485.5 c 128,-1,26
 385 461 385 461 385 434 c 0,27,28
 385 401 385 401 350 401 c 0,29,30
 335 401 335 401 320 412 c 0,31,32
 273 445 273 445 230 445 c 128,-1,33
 187 445 187 445 160 425.5 c 128,-1,34
 133 406 133 406 133 380.5 c 128,-1,35
 133 355 133 355 162 337 c 128,-1,36
 191 319 191 319 232.5 304 c 128,-1,37
 274 289 274 289 316 270.5 c 128,-1,38
 358 252 358 252 387 219.5 c 128,-1,39
 416 187 416 187 416 144 c 0,0,1
EndSplineSet
EndChar

StartChar: t
Encoding: 116 116 87
Width: 420
GlyphClass: 2
Flags: W
LayerCount: 2
Fore
SplineSet
215 500 m 1,0,-1
 355 505 l 1,1,2
 405 505 405 505 405 470 c 128,-1,3
 405 435 405 435 355 435 c 0,4,5
 353 435 353 435 253 439 c 1,6,-1
 248 250 l 1,7,-1
 253 40 l 1,8,9
 253 -10 253 -10 215 -10 c 128,-1,10
 177 -10 177 -10 177 40 c 1,11,-1
 182 250 l 1,12,-1
 177 439 l 1,13,-1
 65 435 l 1,14,15
 15 435 15 435 15 470 c 128,-1,16
 15 505 15 505 65 505 c 1,17,-1
 215 500 l 1,0,-1
EndSplineSet
EndChar

StartChar: u
Encoding: 117 117 88
Width: 585
GlyphClass: 2
Flags: W
LayerCount: 2
Fore
SplineSet
152 428 m 1,0,-1
 144 208 l 1,1,2
 144 140 144 140 173 97.5 c 128,-1,3
 202 55 202 55 253.5 55 c 128,-1,4
 305 55 305 55 353 112.5 c 128,-1,5
 401 170 401 170 420 242 c 1,6,-1
 417 459 l 2,7,8
 417 510 417 510 455 510 c 0,9,10
 501 510 501 510 501 439.5 c 128,-1,11
 501 369 501 369 481 242 c 1,12,13
 481 167 481 167 492 119.5 c 128,-1,14
 503 72 503 72 518 66 c 0,15,16
 524 63 524 63 532.5 62 c 128,-1,17
 541 61 541 61 544.5 59 c 128,-1,18
 548 57 548 57 548 51 c 0,19,20
 548 24 548 24 531.5 7 c 128,-1,21
 515 -10 515 -10 490 -10 c 0,22,23
 427 -10 427 -10 427 118 c 1,24,25
 353 -10 353 -10 241 -10 c 0,26,27
 161 -10 161 -10 117 49.5 c 128,-1,28
 73 109 73 109 73 195 c 1,29,-1
 79 346 l 1,30,31
 79 386 79 386 71 420.5 c 128,-1,32
 63 455 63 455 63 470 c 128,-1,33
 63 485 63 485 75 497.5 c 128,-1,34
 87 510 87 510 106 510 c 0,35,36
 152 510 152 510 152 428 c 1,0,-1
EndSplineSet
EndChar

StartChar: v
Encoding: 118 118 89
Width: 486
GlyphClass: 2
Flags: W
LayerCount: 2
Fore
SplineSet
245 80 m 128,-1,1
 248 80 248 80 253.5 90.5 c 128,-1,2
 259 101 259 101 268 124 c 0,3,4
 279 151 279 151 302 218 c 1,5,-1
 320 267 l 2,6,7
 336 311 336 311 360 386.5 c 128,-1,8
 384 462 384 462 389 474 c 0,9,10
 403 510 403 510 428 510 c 0,11,12
 443 510 443 510 453.5 500.5 c 128,-1,13
 464 491 464 491 464 477.5 c 128,-1,14
 464 464 464 464 455.5 441.5 c 128,-1,15
 447 419 447 419 424.5 361.5 c 128,-1,16
 402 304 402 304 360.5 188 c 128,-1,17
 319 72 319 72 298 31 c 128,-1,18
 277 -10 277 -10 242.5 -10 c 128,-1,19
 208 -10 208 -10 190 26 c 0,20,21
 183 40 183 40 138 158.5 c 128,-1,22
 93 277 93 277 78 315 c 128,-1,23
 63 353 63 353 54.5 374 c 128,-1,24
 46 395 46 395 35 426.5 c 128,-1,25
 24 458 24 458 24 474.5 c 128,-1,26
 24 491 24 491 34 500.5 c 128,-1,27
 44 510 44 510 59 510 c 0,28,29
 86 510 86 510 100 475 c 0,30,31
 105 463 105 463 129.5 387.5 c 128,-1,32
 154 312 154 312 165 282.5 c 128,-1,33
 176 253 176 253 188 219 c 128,-1,34
 200 185 200 185 206.5 166 c 128,-1,35
 213 147 213 147 222 124 c 128,-1,36
 231 101 231 101 236.5 90.5 c 128,-1,0
 242 80 242 80 245 80 c 128,-1,1
EndSplineSet
EndChar

StartChar: w
Encoding: 119 119 90
Width: 787
GlyphClass: 2
Flags: W
LayerCount: 2
Fore
SplineSet
229 80 m 1,0,1
 238 80 238 80 294 270 c 128,-1,2
 350 460 350 460 356 474 c 0,3,4
 370 510 370 510 400.5 510 c 128,-1,5
 431 510 431 510 442.5 475.5 c 128,-1,6
 454 441 454 441 473 370 c 128,-1,7
 492 299 492 299 501 268 c 0,8,9
 556 80 556 80 565.5 80 c 128,-1,10
 575 80 575 80 631 267 c 0,11,12
 644 310 644 310 664 384 c 128,-1,13
 684 458 684 458 688 471 c 0,14,15
 700 510 700 510 725 510 c 0,16,17
 740 510 740 510 750.5 501 c 128,-1,18
 761 492 761 492 761 479.5 c 128,-1,19
 761 467 761 467 758.5 456.5 c 128,-1,20
 756 446 756 446 749.5 426.5 c 128,-1,21
 743 407 743 407 736 385 c 128,-1,22
 729 363 729 363 715.5 323.5 c 128,-1,23
 702 284 702 284 669 180 c 128,-1,24
 636 76 636 76 617 28 c 0,25,26
 602 -10 602 -10 562 -10 c 128,-1,27
 522 -10 522 -10 504 42 c 0,28,29
 468 146 468 146 435 261.5 c 128,-1,30
 402 377 402 377 394.5 377 c 128,-1,31
 387 377 387 377 375.5 337.5 c 128,-1,32
 364 298 364 298 357.5 275.5 c 128,-1,33
 351 253 351 253 349 245 c 0,34,35
 296 61 296 61 277 25 c 1,36,37
 260 -10 260 -10 222 -10 c 128,-1,38
 184 -10 184 -10 165 45 c 0,39,40
 158 65 158 65 136.5 131 c 128,-1,41
 115 197 115 197 101.5 237.5 c 128,-1,42
 88 278 88 278 74.5 316 c 128,-1,43
 61 354 61 354 53 376 c 128,-1,44
 45 398 45 398 35 428 c 128,-1,45
 25 458 25 458 25 474 c 128,-1,46
 25 490 25 490 35.5 500 c 128,-1,47
 46 510 46 510 61 510 c 0,48,49
 90 510 90 510 101 475 c 0,50,51
 105 463 105 463 127.5 387.5 c 128,-1,52
 150 312 150 312 159.5 281.5 c 128,-1,53
 169 251 169 251 179 219 c 0,54,55
 194 171 194 171 210 124 c 1,56,57
 226 82 226 82 229 80 c 1,0,1
EndSplineSet
EndChar

StartChar: x
Encoding: 120 120 91
Width: 492
GlyphClass: 2
Flags: W
LayerCount: 2
Fore
SplineSet
385 109 m 1,0,1
 411 75 411 75 433.5 63 c 128,-1,2
 456 51 456 51 465.5 51 c 128,-1,3
 475 51 475 51 475 46 c 0,4,5
 475 21 475 21 460.5 3 c 128,-1,6
 446 -15 446 -15 430.5 -15 c 128,-1,7
 415 -15 415 -15 406 -11.5 c 128,-1,8
 397 -8 397 -8 387 2 c 128,-1,9
 377 12 377 12 368 22.5 c 128,-1,10
 359 33 359 33 344.5 54 c 128,-1,11
 330 75 330 75 317.5 93.5 c 128,-1,12
 305 112 305 112 283 145 c 128,-1,13
 261 178 261 178 242 206 c 1,14,15
 200 145 200 145 156.5 79.5 c 128,-1,16
 113 14 113 14 102.5 2 c 128,-1,17
 92 -10 92 -10 79.5 -10 c 128,-1,18
 67 -10 67 -10 56.5 -0.5 c 128,-1,19
 46 9 46 9 46 21 c 128,-1,20
 46 33 46 33 49 41 c 0,21,22
 53 53 53 53 93 104.5 c 128,-1,23
 133 156 133 156 205 261 c 1,24,-1
 119 389 l 1,25,26
 98 416 98 416 79 430 c 128,-1,27
 60 444 60 444 44 445.5 c 128,-1,28
 28 447 28 447 28 456 c 0,29,30
 28 481 28 481 41.5 498 c 128,-1,31
 55 515 55 515 79 515 c 128,-1,32
 103 515 103 515 125 489 c 128,-1,33
 147 463 147 463 183 408.5 c 128,-1,34
 219 354 219 354 223 348 c 128,-1,35
 227 342 227 342 233.5 332 c 128,-1,36
 240 322 240 322 246 313 c 1,37,38
 358 482 358 482 361 486 c 0,39,40
 378 510 378 510 392.5 510 c 128,-1,41
 407 510 407 510 417 499.5 c 128,-1,42
 427 489 427 489 427 476.5 c 128,-1,43
 427 464 427 464 415 444.5 c 128,-1,44
 403 425 403 425 359 365.5 c 128,-1,45
 315 306 315 306 283 262 c 1,46,-1
 385 109 l 1,0,1
EndSplineSet
EndChar

StartChar: y
Encoding: 121 121 92
Width: 434
GlyphClass: 2
Flags: W
LayerCount: 2
Fore
SplineSet
253 138 m 1,0,-1
 255 39 l 2,1,2
 255 -10 255 -10 217.5 -10 c 128,-1,3
 180 -10 180 -10 180 39 c 2,4,-1
 182 138 l 1,5,-1
 182 198 l 2,6,7
 182 218 182 218 134.5 287 c 128,-1,8
 87 356 87 356 79 368.5 c 128,-1,9
 71 381 71 381 60 397 c 128,-1,10
 49 413 49 413 43.5 421.5 c 128,-1,11
 38 430 38 430 32 440 c 0,12,13
 15 466 15 466 15 478 c 128,-1,14
 15 490 15 490 25 500 c 128,-1,15
 35 510 35 510 44.5 510 c 128,-1,16
 54 510 54 510 60 507.5 c 128,-1,17
 66 505 66 505 70 502 c 128,-1,18
 74 499 74 499 79.5 491.5 c 128,-1,19
 85 484 85 484 88 479.5 c 128,-1,20
 91 475 91 475 97.5 464 c 128,-1,21
 104 453 104 453 117.5 430.5 c 128,-1,22
 131 408 131 408 172 346 c 128,-1,23
 213 284 213 284 220 284 c 0,24,25
 230 284 230 284 331 448 c 1,26,27
 361 500 361 500 376 507 c 0,28,29
 382 510 382 510 392 510 c 128,-1,30
 402 510 402 510 411 500.5 c 128,-1,31
 420 491 420 491 420 482.5 c 128,-1,32
 420 474 420 474 418 468 c 0,33,34
 414 458 414 458 387.5 419.5 c 128,-1,35
 361 381 361 381 347 360 c 128,-1,36
 333 339 333 339 319 318 c 0,37,38
 303 293 303 293 278 253.5 c 128,-1,39
 253 214 253 214 253 198 c 2,40,-1
 253 138 l 1,0,-1
EndSplineSet
EndChar

StartChar: z
Encoding: 122 122 93
Width: 480
GlyphClass: 2
Flags: W
LayerCount: 2
Fore
SplineSet
246 60 m 1,0,-1
 396 65 l 1,1,2
 446 65 446 65 446 30 c 128,-1,3
 446 -5 446 -5 396 -5 c 1,4,-1
 246 0 l 1,5,6
 246 0 246 0 84 -5 c 1,7,8
 36 -5 36 -5 36 30 c 0,9,10
 36 56 36 56 70 96 c 0,11,12
 132 167 132 167 178.5 230.5 c 128,-1,13
 225 294 225 294 249 326 c 0,14,15
 310 406 310 406 327 437 c 1,16,17
 252 440 252 440 242 440 c 2,18,-1
 96 435 l 1,19,20
 46 435 46 435 46 470 c 128,-1,21
 46 505 46 505 96 505 c 1,22,-1
 242 500 l 1,23,-1
 384 505 l 1,24,25
 432 505 432 505 432 470 c 0,26,27
 432 448 432 448 413.5 424 c 128,-1,28
 395 400 395 400 364 363.5 c 128,-1,29
 333 327 333 327 259 227.5 c 128,-1,30
 185 128 185 128 140 62 c 1,31,32
 200 60 200 60 246 60 c 1,0,-1
EndSplineSet
EndChar

StartChar: braceleft
Encoding: 123 123 94
Width: 311
GlyphClass: 2
Flags: W
LayerCount: 2
Fore
SplineSet
34.5 213 m 128,-1,1
 19 229 19 229 19 250.5 c 128,-1,2
 19 272 19 272 34.5 287.5 c 128,-1,3
 50 303 50 303 73.5 303 c 128,-1,4
 97 303 97 303 109 297 c 1,5,6
 121 304 121 304 131 323 c 128,-1,7
 141 342 141 342 141 361.5 c 128,-1,8
 141 381 141 381 133.5 419.5 c 128,-1,9
 126 458 126 458 126 471 c 0,10,11
 126 528 126 528 158.5 559 c 128,-1,12
 191 590 191 590 234 590 c 0,13,14
 251 590 251 590 261 579.5 c 128,-1,15
 271 569 271 569 271 553.5 c 128,-1,16
 271 538 271 538 260 527.5 c 128,-1,17
 249 517 249 517 234 517 c 0,18,19
 196 517 196 517 196 461 c 0,20,21
 196 452 196 452 203.5 417 c 128,-1,22
 211 382 211 382 211 352 c 128,-1,23
 211 322 211 322 195.5 293.5 c 128,-1,24
 180 265 180 265 162 250 c 1,25,26
 180 236 180 236 195 207 c 128,-1,27
 210 178 210 178 210 148 c 128,-1,28
 210 118 210 118 202.5 83 c 128,-1,29
 195 48 195 48 195 39 c 0,30,31
 195 -17 195 -17 233 -17 c 0,32,33
 248 -17 248 -17 259 -28 c 128,-1,34
 270 -39 270 -39 270 -54 c 128,-1,35
 270 -69 270 -69 260 -79.5 c 128,-1,36
 250 -90 250 -90 233 -90 c 0,37,38
 190 -90 190 -90 157.5 -59 c 128,-1,39
 125 -28 125 -28 125 29 c 0,40,41
 125 42 125 42 132.5 80.5 c 128,-1,42
 140 119 140 119 140 138.5 c 128,-1,43
 140 158 140 158 130 177 c 128,-1,44
 120 196 120 196 108 203 c 1,45,46
 96 197 96 197 73 197 c 128,-1,0
 50 197 50 197 34.5 213 c 128,-1,1
EndSplineSet
EndChar

StartChar: bar
Encoding: 124 124 95
Width: 210
GlyphClass: 2
Flags: W
LayerCount: 2
Fore
SplineSet
135 255 m 1,0,-1
 140 -31 l 2,1,2
 140 -81 140 -81 105 -81 c 128,-1,3
 70 -81 70 -81 70 -31 c 2,4,-1
 75 255 l 1,5,-1
 71 531 l 2,6,7
 71 581 71 581 105 581 c 128,-1,8
 139 581 139 581 139 531 c 2,9,-1
 135 255 l 1,0,-1
EndSplineSet
EndChar

StartChar: braceright
Encoding: 125 125 96
Width: 311
GlyphClass: 2
Flags: W
LayerCount: 2
Fore
SplineSet
276.5 287.5 m 128,-1,1
 292 272 292 272 292 250.5 c 128,-1,2
 292 229 292 229 276.5 213 c 128,-1,3
 261 197 261 197 238 197 c 128,-1,4
 215 197 215 197 203 203 c 1,5,6
 191 196 191 196 181 177 c 128,-1,7
 171 158 171 158 171 138.5 c 128,-1,8
 171 119 171 119 178.5 80.5 c 128,-1,9
 186 42 186 42 186 29 c 0,10,11
 186 -28 186 -28 153.5 -59 c 128,-1,12
 121 -90 121 -90 78 -90 c 0,13,14
 61 -90 61 -90 51 -79.5 c 128,-1,15
 41 -69 41 -69 41 -54 c 128,-1,16
 41 -39 41 -39 52 -28 c 128,-1,17
 63 -17 63 -17 78 -17 c 0,18,19
 116 -17 116 -17 116 39 c 0,20,21
 116 48 116 48 108.5 83 c 128,-1,22
 101 118 101 118 101 148 c 128,-1,23
 101 178 101 178 116 207 c 128,-1,24
 131 236 131 236 149 250 c 1,25,26
 131 265 131 265 115.5 293.5 c 128,-1,27
 100 322 100 322 100 352 c 128,-1,28
 100 382 100 382 107.5 417 c 128,-1,29
 115 452 115 452 115 461 c 0,30,31
 115 517 115 517 77 517 c 0,32,33
 62 517 62 517 51 527.5 c 128,-1,34
 40 538 40 538 40 553.5 c 128,-1,35
 40 569 40 569 50 579.5 c 128,-1,36
 60 590 60 590 77 590 c 0,37,38
 120 590 120 590 152.5 559 c 128,-1,39
 185 528 185 528 185 471 c 0,40,41
 185 458 185 458 177.5 419.5 c 128,-1,42
 170 381 170 381 170 361.5 c 128,-1,43
 170 342 170 342 180 323 c 128,-1,44
 190 304 190 304 202 297 c 1,45,46
 214 303 214 303 237.5 303 c 128,-1,0
 261 303 261 303 276.5 287.5 c 128,-1,1
EndSplineSet
EndChar

StartChar: asciitilde
Encoding: 126 126 97
Width: 554
GlyphClass: 2
Flags: W
LayerCount: 2
Fore
SplineSet
458 232 m 128,-1,1
 422 202 422 202 383.5 202 c 128,-1,2
 345 202 345 202 291.5 231 c 128,-1,3
 238 260 238 260 208.5 260 c 128,-1,4
 179 260 179 260 147.5 229.5 c 128,-1,5
 116 199 116 199 97.5 199 c 128,-1,6
 79 199 79 199 69 208.5 c 128,-1,7
 59 218 59 218 59 232 c 0,8,9
 59 264 59 264 102 293 c 128,-1,10
 145 322 145 322 195.5 322 c 128,-1,11
 246 322 246 322 300.5 293 c 128,-1,12
 355 264 355 264 378.5 264 c 128,-1,13
 402 264 402 264 419 276.5 c 128,-1,14
 436 289 436 289 448 301.5 c 128,-1,15
 460 314 460 314 471 314 c 0,16,17
 494 314 494 314 494 288 c 128,-1,0
 494 262 494 262 458 232 c 128,-1,1
EndSplineSet
EndChar

StartChar: exclamdown
Encoding: 161 161 99
Width: 229
GlyphClass: 2
Flags: W
LayerCount: 2
Fore
SplineSet
81 141 m 1,0,-1
 78 243 l 1,1,2
 78 293 78 293 114 293 c 128,-1,3
 150 293 150 293 150 243 c 1,4,-1
 147 141 l 1,5,6
 147 99 147 99 150.5 36.5 c 128,-1,7
 154 -26 154 -26 154 -31 c 0,8,9
 154 -81 154 -81 114 -81 c 128,-1,10
 74 -81 74 -81 74 -31 c 0,11,12
 74 -26 74 -26 77.5 36.5 c 128,-1,13
 81 99 81 99 81 141 c 1,0,-1
79 414 m 128,-1,15
 68 429 68 429 68 452.5 c 128,-1,16
 68 476 68 476 82.5 495 c 128,-1,17
 97 514 97 514 117.5 514 c 128,-1,18
 138 514 138 514 149 498 c 128,-1,19
 160 482 160 482 160 459.5 c 128,-1,20
 160 437 160 437 145.5 418 c 128,-1,21
 131 399 131 399 110.5 399 c 128,-1,14
 90 399 90 399 79 414 c 128,-1,15
EndSplineSet
EndChar

StartChar: cent
Encoding: 162 162 100
Width: 497
GlyphClass: 2
Flags: W
LayerCount: 2
Fore
SplineSet
305 594 m 1,0,-1
 303 514 l 1,1,2
 363 511 363 511 407.5 483.5 c 128,-1,3
 452 456 452 456 452 428 c 0,4,5
 452 412 452 412 442 401.5 c 128,-1,6
 432 391 432 391 419 391 c 128,-1,7
 406 391 406 391 372.5 417.5 c 128,-1,8
 339 444 339 444 302 449 c 1,9,10
 301 397 301 397 301 279.5 c 128,-1,11
 301 162 301 162 303 50 c 1,12,13
 346 53 346 53 387 78 c 128,-1,14
 428 103 428 103 436 103 c 0,15,16
 461 103 461 103 461 78 c 128,-1,17
 461 53 461 53 412 22.5 c 128,-1,18
 363 -8 363 -8 304 -14 c 1,19,-1
 306 -84 l 1,20,21
 306 -135 306 -135 271 -135 c 128,-1,22
 236 -135 236 -135 236 -84 c 0,23,24
 236 -47 236 -47 237 -11 c 1,25,26
 148 5 148 5 92 78.5 c 128,-1,27
 36 152 36 152 36 249 c 128,-1,28
 36 346 36 346 90.5 419 c 128,-1,29
 145 492 145 492 238 510 c 1,30,31
 237 552 237 552 237 598.5 c 128,-1,32
 237 645 237 645 271 645 c 128,-1,33
 305 645 305 645 305 594 c 1,0,-1
239 58 m 1,34,35
 241 168 241 168 241 232.5 c 128,-1,36
 241 297 241 297 240.5 358.5 c 128,-1,37
 240 420 240 420 240 443 c 1,38,39
 185 426 185 426 148 373 c 128,-1,40
 111 320 111 320 111 252 c 128,-1,41
 111 184 111 184 146.5 130.5 c 128,-1,42
 182 77 182 77 239 58 c 1,34,35
EndSplineSet
EndChar

StartChar: sterling
Encoding: 163 163 101
Width: 448
GlyphClass: 2
Flags: W
LayerCount: 2
Fore
SplineSet
291 221 m 2,0,-1
 201 224 l 1,1,2
 203 202 203 202 203 191 c 128,-1,3
 203 180 203 180 202.5 168.5 c 128,-1,4
 202 157 202 157 193 134.5 c 128,-1,5
 184 112 184 112 175.5 100 c 128,-1,6
 167 88 167 88 149 65 c 1,7,8
 171 64 171 64 220.5 64 c 128,-1,9
 270 64 270 64 313 67.5 c 128,-1,10
 356 71 356 71 369.5 71 c 128,-1,11
 383 71 383 71 396.5 61 c 128,-1,12
 410 51 410 51 410 33 c 128,-1,13
 410 15 410 15 396.5 5 c 128,-1,14
 383 -5 383 -5 360 -5 c 2,15,-1
 239 0 l 1,16,-1
 107 -5 l 2,17,18
 84 -5 84 -5 70 8 c 128,-1,19
 56 21 56 21 56 37.5 c 128,-1,20
 56 54 56 54 68 69 c 128,-1,21
 80 84 80 84 95 97.5 c 128,-1,22
 110 111 110 111 122.5 135 c 128,-1,23
 135 159 135 159 135.5 170.5 c 128,-1,24
 136 182 136 182 136 192.5 c 128,-1,25
 136 203 136 203 134 222 c 1,26,-1
 87 221 l 2,27,28
 69 221 69 221 57.5 230 c 128,-1,29
 46 239 46 239 46 254 c 128,-1,30
 46 269 46 269 57.5 278 c 128,-1,31
 69 287 69 287 79 287 c 128,-1,32
 89 287 89 287 101.5 286.5 c 128,-1,33
 114 286 114 286 124 286 c 1,34,35
 122 293 122 293 115 311.5 c 128,-1,36
 108 330 108 330 101.5 348.5 c 128,-1,37
 95 367 95 367 95 389 c 0,38,39
 95 442 95 442 138 478.5 c 128,-1,40
 181 515 181 515 243.5 515 c 128,-1,41
 306 515 306 515 344 490.5 c 128,-1,42
 382 466 382 466 383 439 c 0,43,44
 383 428 383 428 375 418 c 128,-1,45
 367 408 367 408 353.5 408 c 128,-1,46
 340 408 340 408 310 428.5 c 128,-1,47
 280 449 280 449 246 449 c 128,-1,48
 212 449 212 449 189.5 433.5 c 128,-1,49
 167 418 167 418 167 396 c 128,-1,50
 167 374 167 374 170.5 357.5 c 128,-1,51
 174 341 174 341 181.5 318 c 128,-1,52
 189 295 189 295 192 284 c 1,53,-1
 291 287 l 2,54,55
 309 287 309 287 320.5 278 c 128,-1,56
 332 269 332 269 332 254 c 128,-1,57
 332 239 332 239 320.5 230 c 128,-1,58
 309 221 309 221 291 221 c 2,0,-1
EndSplineSet
EndChar

StartChar: currency
Encoding: 164 164 102
Width: 617
GlyphClass: 2
Flags: W
LayerCount: 2
Fore
SplineSet
486 370 m 1,0,1
 517 316 517 316 517 249.5 c 128,-1,2
 517 183 517 183 486 129 c 1,3,-1
 546 72 l 2,4,5
 566 54 566 54 566 37.5 c 128,-1,6
 566 21 566 21 555 10 c 128,-1,7
 544 -1 544 -1 529.5 -1 c 128,-1,8
 515 -1 515 -1 499 13.5 c 128,-1,9
 483 28 483 28 441 73 c 1,10,11
 385 25 385 25 308 25 c 128,-1,12
 231 25 231 25 176 74 c 1,13,-1
 123 19 l 1,14,15
 101 0 101 0 86 0 c 128,-1,16
 71 0 71 0 60.5 10.5 c 128,-1,17
 50 21 50 21 50 37.5 c 128,-1,18
 50 54 50 54 70 72 c 2,19,-1
 131 131 l 1,20,21
 102 183 102 183 102 248 c 128,-1,22
 102 313 102 313 132 367 c 1,23,24
 76 421 76 421 63 435.5 c 128,-1,25
 50 450 50 450 50 464.5 c 128,-1,26
 50 479 50 479 61 490 c 128,-1,27
 72 501 72 501 88.5 501 c 128,-1,28
 105 501 105 501 123 481 c 2,29,-1
 178 424 l 1,30,31
 234 472 234 472 308.5 472 c 128,-1,32
 383 472 383 472 440 425 c 1,33,-1
 493 481 l 1,34,35
 515 500 515 500 530 500 c 128,-1,36
 545 500 545 500 555.5 489.5 c 128,-1,37
 566 479 566 479 566 462.5 c 128,-1,38
 566 446 566 446 546 428 c 1,39,40
 517 399 517 399 486 370 c 1,0,1
407.5 138 m 128,-1,42
 449 185 449 185 449 250.5 c 128,-1,43
 449 316 449 316 409.5 361.5 c 128,-1,44
 370 407 370 407 312 407 c 128,-1,45
 254 407 254 407 212.5 360 c 128,-1,46
 171 313 171 313 171 247.5 c 128,-1,47
 171 182 171 182 210.5 136.5 c 128,-1,48
 250 91 250 91 308 91 c 128,-1,41
 366 91 366 91 407.5 138 c 128,-1,42
EndSplineSet
EndChar

StartChar: yen
Encoding: 165 165 103
Width: 479
GlyphClass: 2
Flags: W
LayerCount: 2
Fore
SplineSet
275 156 m 1,0,1
 338 159 338 159 366 159 c 0,2,3
 407 159 407 159 407 131 c 128,-1,4
 407 103 407 103 366 103 c 0,5,6
 338 103 338 103 275 106 c 1,7,-1
 277 39 l 1,8,9
 277 -10 277 -10 239.5 -10 c 128,-1,10
 202 -10 202 -10 202 39 c 0,11,12
 202 50 202 50 204 106 c 1,13,14
 138 103 138 103 112 103 c 0,15,16
 71 103 71 103 71 131 c 128,-1,17
 71 159 71 159 112 159 c 0,18,19
 138 159 138 159 204 156 c 1,20,-1
 204 196 l 1,21,22
 138 193 138 193 112 193 c 0,23,24
 71 193 71 193 71 221 c 128,-1,25
 71 249 71 249 112 249 c 0,26,27
 134 249 134 249 182 246 c 1,28,29
 169 269 169 269 138.5 313 c 128,-1,30
 108 357 108 357 103 365 c 0,31,32
 93 381 93 381 82 397 c 128,-1,33
 71 413 71 413 65.5 421.5 c 128,-1,34
 60 430 60 430 54 440 c 0,35,36
 37 466 37 466 37 478 c 128,-1,37
 37 490 37 490 47 500 c 128,-1,38
 57 510 57 510 66.5 510 c 128,-1,39
 76 510 76 510 82 507.5 c 128,-1,40
 88 505 88 505 92 502 c 128,-1,41
 96 499 96 499 101.5 491.5 c 128,-1,42
 107 484 107 484 110 479.5 c 128,-1,43
 113 475 113 475 119.5 464 c 128,-1,44
 126 453 126 453 139.5 430.5 c 128,-1,45
 153 408 153 408 194 346 c 128,-1,46
 235 284 235 284 242 284 c 0,47,48
 252 284 252 284 353 448 c 1,49,50
 383 500 383 500 398 507 c 0,51,52
 404 510 404 510 414 510 c 128,-1,53
 424 510 424 510 433 500.5 c 128,-1,54
 442 491 442 491 442 482.5 c 128,-1,55
 442 474 442 474 440 468 c 0,56,57
 436 458 436 458 409.5 419.5 c 128,-1,58
 383 381 383 381 370 361 c 128,-1,59
 357 341 357 341 331.5 303 c 128,-1,60
 306 265 306 265 295 246 c 1,61,-1
 366 249 l 1,62,63
 407 249 407 249 407 221 c 128,-1,64
 407 193 407 193 366 193 c 0,65,66
 338 193 338 193 275 196 c 1,67,-1
 275 156 l 1,0,1
EndSplineSet
EndChar

StartChar: brokenbar
Encoding: 166 166 104
Width: 216
GlyphClass: 2
Flags: W
LayerCount: 2
Fore
SplineSet
138 445 m 1,0,-1
 143 347 l 1,1,2
 143 326 143 326 133.5 313.5 c 128,-1,3
 124 301 124 301 107 301 c 0,4,5
 73 301 73 301 73 347 c 1,6,-1
 78 445 l 1,7,8
 78 445 78 445 74 546 c 1,9,10
 74 589 74 589 107 589 c 0,11,12
 142 589 142 589 142 546 c 1,13,-1
 138 445 l 1,0,-1
138 54 m 1,14,-1
 143 -44 l 1,15,16
 143 -65 143 -65 133.5 -77.5 c 128,-1,17
 124 -90 124 -90 107 -90 c 0,18,19
 73 -90 73 -90 73 -44 c 1,20,-1
 78 54 l 1,21,-1
 74 155 l 1,22,23
 74 198 74 198 107 198 c 0,24,25
 142 198 142 198 142 155 c 1,26,-1
 138 54 l 1,14,-1
EndSplineSet
EndChar

StartChar: section
Encoding: 167 167 105
Width: 466
GlyphClass: 2
Flags: W
LayerCount: 2
Fore
SplineSet
94 191.5 m 128,-1,1
 65 218 65 218 65 252.5 c 128,-1,2
 65 287 65 287 87.5 315.5 c 128,-1,3
 110 344 110 344 147 360 c 1,4,5
 65 401 65 401 65 466 c 0,6,7
 65 516 65 516 114 553.5 c 128,-1,8
 163 591 163 591 234 591 c 128,-1,9
 305 591 305 591 346.5 566.5 c 128,-1,10
 388 542 388 542 388 515 c 0,11,12
 388 482 388 482 353 482 c 0,13,14
 338 482 338 482 322 493 c 0,15,16
 276 526 276 526 233 526 c 128,-1,17
 190 526 190 526 163 509 c 128,-1,18
 136 492 136 492 136 469 c 128,-1,19
 136 446 136 446 165 429.5 c 128,-1,20
 194 413 194 413 236 398.5 c 128,-1,21
 278 384 278 384 319.5 366 c 128,-1,22
 361 348 361 348 390 317 c 128,-1,23
 419 286 419 286 419 245 c 0,24,25
 419 180 419 180 356 138 c 1,26,27
 419 97 419 97 419 41 c 128,-1,28
 419 -15 419 -15 363.5 -52.5 c 128,-1,29
 308 -90 308 -90 230.5 -90 c 128,-1,30
 153 -90 153 -90 96 -54.5 c 128,-1,31
 39 -19 39 -19 39 16 c 0,32,33
 39 31 39 31 48 40.5 c 128,-1,34
 57 50 57 50 69.5 50 c 128,-1,35
 82 50 82 50 102 32 c 1,36,37
 180 -20 180 -20 220 -25 c 1,38,39
 276 -25 276 -25 311.5 -7.5 c 128,-1,40
 347 10 347 10 347 39.5 c 128,-1,41
 347 69 347 69 318 88.5 c 128,-1,42
 289 108 289 108 247.5 121.5 c 128,-1,43
 206 135 206 135 164.5 150 c 128,-1,0
 123 165 123 165 94 191.5 c 128,-1,1
200 206 m 0,44,45
 215 200 215 200 242.5 190.5 c 128,-1,46
 270 181 270 181 285 175 c 1,47,48
 347 193 347 193 347 244 c 0,49,50
 347 269 347 269 302.5 294.5 c 128,-1,51
 258 320 258 320 226 320 c 128,-1,52
 194 320 194 320 165 301 c 128,-1,53
 136 282 136 282 136 255.5 c 128,-1,54
 136 229 136 229 200 206 c 0,44,45
EndSplineSet
EndChar

StartChar: dieresis
Encoding: 168 168 106
Width: 391
GlyphClass: 2
Flags: W
LayerCount: 2
Fore
SplineSet
112 581 m 0,0,1
 70 581 70 581 70 632 c 0,2,3
 70 655 70 655 84.5 672.5 c 128,-1,4
 99 690 99 690 120 690 c 128,-1,5
 141 690 141 690 151 676.5 c 128,-1,6
 161 663 161 663 161 642.5 c 128,-1,7
 161 622 161 622 147 601.5 c 128,-1,8
 133 581 133 581 112 581 c 0,0,1
272 581 m 0,9,10
 230 581 230 581 230 632 c 0,11,12
 230 655 230 655 244.5 672.5 c 128,-1,13
 259 690 259 690 280 690 c 128,-1,14
 301 690 301 690 311 676.5 c 128,-1,15
 321 663 321 663 321 642.5 c 128,-1,16
 321 622 321 622 307 601.5 c 128,-1,17
 293 581 293 581 272 581 c 0,9,10
EndSplineSet
EndChar

StartChar: copyright
Encoding: 169 169 107
Width: 618
GlyphClass: 2
Flags: W
LayerCount: 2
Fore
SplineSet
571 250 m 128,-1,1
 571 140 571 140 494 62.5 c 128,-1,2
 417 -15 417 -15 309 -15 c 128,-1,3
 201 -15 201 -15 124 62.5 c 128,-1,4
 47 140 47 140 47 250 c 128,-1,5
 47 360 47 360 124 437.5 c 128,-1,6
 201 515 201 515 309 515 c 128,-1,7
 417 515 417 515 494 437.5 c 128,-1,0
 571 360 571 360 571 250 c 128,-1,1
522 250 m 128,-1,9
 522 342 522 342 459.5 404.5 c 128,-1,10
 397 467 397 467 308 467 c 128,-1,11
 219 467 219 467 157 404.5 c 128,-1,12
 95 342 95 342 95 250 c 128,-1,13
 95 158 95 158 157 96 c 128,-1,14
 219 34 219 34 308 34 c 128,-1,15
 397 34 397 34 459.5 96 c 128,-1,8
 522 158 522 158 522 250 c 128,-1,9
313 414 m 0,16,17
 348 414 348 414 377.5 399.5 c 128,-1,18
 407 385 407 385 407 367 c 0,19,20
 407 344 407 344 384 344 c 0,21,22
 378 344 378 344 357.5 355.5 c 128,-1,23
 337 367 337 367 317 367 c 0,24,25
 268 367 268 367 241 332.5 c 128,-1,26
 214 298 214 298 214 250.5 c 128,-1,27
 214 203 214 203 244 169.5 c 128,-1,28
 274 136 274 136 317 136 c 0,29,30
 341 136 341 136 366 146 c 128,-1,31
 391 156 391 156 396 156 c 0,32,33
 414 156 414 156 414 138 c 0,34,35
 414 124 414 124 385 106.5 c 128,-1,36
 356 89 356 89 313 89 c 0,37,38
 250 89 250 89 206.5 137 c 128,-1,39
 163 185 163 185 163 252 c 128,-1,40
 163 319 163 319 205 366.5 c 128,-1,41
 247 414 247 414 313 414 c 0,16,17
EndSplineSet
EndChar

StartChar: ordfeminine
Encoding: 170 170 108
Width: 415
GlyphClass: 2
Flags: W
LayerCount: 2
Fore
SplineSet
322 416 m 1,0,1
 322 394 322 394 328 357 c 128,-1,2
 334 320 334 320 352 316 c 0,3,4
 356 315 356 315 361 314 c 128,-1,5
 366 313 366 313 366 309 c 0,6,7
 366 288 366 288 353.5 275 c 128,-1,8
 341 262 341 262 320 262 c 0,9,10
 281 262 281 262 273 342 c 1,11,12
 260 309 260 309 230.5 285.5 c 128,-1,13
 201 262 201 262 166 262 c 0,14,15
 112 262 112 262 81.5 309 c 128,-1,16
 51 356 51 356 51 418.5 c 128,-1,17
 51 481 51 481 91 530.5 c 128,-1,18
 131 580 131 580 192 580 c 0,19,20
 236 580 236 580 268 548 c 1,21,22
 273 580 273 580 301 580 c 0,23,24
 334 580 334 580 334 523 c 0,25,26
 334 514 334 514 322 416 c 1,0,1
270 420 m 1,27,-1
 267 493 l 1,28,29
 235 525 235 525 197 525 c 128,-1,30
 159 525 159 525 134 493.5 c 128,-1,31
 109 462 109 462 109 417.5 c 128,-1,32
 109 373 109 373 125.5 344 c 128,-1,33
 142 315 142 315 170.5 315 c 128,-1,34
 199 315 199 315 228 346.5 c 128,-1,35
 257 378 257 378 270 420 c 1,27,-1
EndSplineSet
EndChar

StartChar: guillemotleft
Encoding: 171 171 109
Width: 511
GlyphClass: 2
Flags: W
LayerCount: 2
Fore
SplineSet
51 237 m 128,-1,1
 44 248 44 248 44 260.5 c 128,-1,2
 44 273 44 273 52 284 c 128,-1,3
 60 295 60 295 86 318.5 c 128,-1,4
 112 342 112 342 123 353 c 128,-1,5
 134 364 134 364 148.5 380 c 128,-1,6
 163 396 163 396 175 408 c 128,-1,7
 187 420 187 420 202.5 420 c 128,-1,8
 218 420 218 420 227 410.5 c 128,-1,9
 236 401 236 401 236 387.5 c 128,-1,10
 236 374 236 374 226.5 364 c 128,-1,11
 217 354 217 354 196.5 339.5 c 128,-1,12
 176 325 176 325 166 316 c 0,13,14
 118 273 118 273 118 259 c 128,-1,15
 118 245 118 245 166 202 c 0,16,17
 176 193 176 193 196.5 178.5 c 128,-1,18
 217 164 217 164 226.5 154 c 128,-1,19
 236 144 236 144 236 130.5 c 128,-1,20
 236 117 236 117 227 107.5 c 128,-1,21
 218 98 218 98 206.5 98 c 128,-1,22
 195 98 195 98 185.5 103.5 c 128,-1,23
 176 109 176 109 169.5 115.5 c 128,-1,24
 163 122 163 122 148.5 138 c 128,-1,25
 134 154 134 154 122.5 165.5 c 128,-1,26
 111 177 111 177 93 193.5 c 128,-1,27
 75 210 75 210 66.5 218 c 128,-1,0
 58 226 58 226 51 237 c 128,-1,1
260 237 m 128,-1,29
 253 248 253 248 253 260.5 c 128,-1,30
 253 273 253 273 261 284 c 128,-1,31
 269 295 269 295 295 318.5 c 128,-1,32
 321 342 321 342 332 353 c 128,-1,33
 343 364 343 364 357.5 380 c 128,-1,34
 372 396 372 396 384 408 c 128,-1,35
 396 420 396 420 411.5 420 c 128,-1,36
 427 420 427 420 436 410.5 c 128,-1,37
 445 401 445 401 445 387.5 c 128,-1,38
 445 374 445 374 435.5 364 c 128,-1,39
 426 354 426 354 405.5 339.5 c 128,-1,40
 385 325 385 325 375 316 c 0,41,42
 327 273 327 273 327 259 c 128,-1,43
 327 245 327 245 375 202 c 0,44,45
 385 193 385 193 405.5 178.5 c 128,-1,46
 426 164 426 164 435.5 154 c 128,-1,47
 445 144 445 144 445 130.5 c 128,-1,48
 445 117 445 117 436 107.5 c 128,-1,49
 427 98 427 98 415.5 98 c 128,-1,50
 404 98 404 98 394.5 103.5 c 128,-1,51
 385 109 385 109 378.5 115.5 c 128,-1,52
 372 122 372 122 357.5 138 c 128,-1,53
 343 154 343 154 331.5 165.5 c 128,-1,54
 320 177 320 177 302 193.5 c 128,-1,55
 284 210 284 210 275.5 218 c 128,-1,28
 267 226 267 226 260 237 c 128,-1,29
EndSplineSet
EndChar

StartChar: logicalnot
Encoding: 172 172 110
Width: 601
GlyphClass: 2
Flags: W
LayerCount: 2
Fore
SplineSet
533 191 m 1,0,-1
 535 131 l 2,1,2
 535 113 535 113 525 101.5 c 128,-1,3
 515 90 515 90 500 90 c 128,-1,4
 485 90 485 90 475 101.5 c 128,-1,5
 465 113 465 113 465 131 c 2,6,-1
 468 191 l 1,7,-1
 468 229 l 1,8,9
 390 231 390 231 295 231 c 1,10,-1
 98 228 l 2,11,12
 79 228 79 228 68 237 c 128,-1,13
 57 246 57 246 57 261 c 128,-1,14
 57 276 57 276 68 285 c 128,-1,15
 79 294 79 294 98 294 c 2,16,-1
 295 291 l 1,17,-1
 492 294 l 2,18,19
 535 294 535 294 535 251 c 1,20,-1
 533 191 l 1,0,-1
EndSplineSet
EndChar

StartChar: registered
Encoding: 174 174 111
Width: 618
GlyphClass: 2
Flags: W
LayerCount: 2
Fore
SplineSet
571 250 m 128,-1,1
 571 140 571 140 494 62.5 c 128,-1,2
 417 -15 417 -15 309 -15 c 128,-1,3
 201 -15 201 -15 124 62.5 c 128,-1,4
 47 140 47 140 47 250 c 128,-1,5
 47 360 47 360 124 437.5 c 128,-1,6
 201 515 201 515 309 515 c 128,-1,7
 417 515 417 515 494 437.5 c 128,-1,0
 571 360 571 360 571 250 c 128,-1,1
522 250 m 128,-1,9
 522 342 522 342 459.5 404.5 c 128,-1,10
 397 467 397 467 308 467 c 128,-1,11
 219 467 219 467 157 404.5 c 128,-1,12
 95 342 95 342 95 250 c 128,-1,13
 95 158 95 158 157 96 c 128,-1,14
 219 34 219 34 308 34 c 128,-1,15
 397 34 397 34 459.5 96 c 128,-1,8
 522 158 522 158 522 250 c 128,-1,9
207 260 m 1,16,-1
 203 374 l 1,17,18
 203 414 203 414 305 414 c 0,19,20
 365 414 365 414 396.5 384 c 128,-1,21
 428 354 428 354 428 316 c 0,22,23
 428 256 428 256 360 224 c 1,24,25
 369 210 369 210 379.5 191.5 c 128,-1,26
 390 173 390 173 399 160.5 c 128,-1,27
 408 148 408 148 418.5 144.5 c 128,-1,28
 429 141 429 141 434.5 141 c 128,-1,29
 440 141 440 141 440 131 c 128,-1,30
 440 121 440 121 429.5 109.5 c 128,-1,31
 419 98 419 98 403.5 98 c 128,-1,32
 388 98 388 98 375.5 111.5 c 128,-1,33
 363 125 363 125 343 163 c 128,-1,34
 323 201 323 201 314 214 c 1,35,36
 293 210 293 210 283 210 c 128,-1,37
 273 210 273 210 253 214 c 1,38,-1
 255 128 l 2,39,40
 255 116 255 116 247.5 106.5 c 128,-1,41
 240 97 240 97 229 97 c 0,42,43
 203 97 203 97 203 128 c 2,44,-1
 207 260 l 1,16,-1
363.5 278 m 128,-1,46
 379 294 379 294 379 315.5 c 128,-1,47
 379 337 379 337 361.5 352.5 c 128,-1,48
 344 368 344 368 307.5 368 c 128,-1,49
 271 368 271 368 253 361 c 1,50,51
 253 350 253 350 251.5 316.5 c 128,-1,52
 250 283 250 283 250 264 c 1,53,54
 263 270 263 270 286.5 270 c 128,-1,55
 310 270 310 270 332 262 c 1,56,45
 348 262 348 262 363.5 278 c 128,-1,46
EndSplineSet
EndChar

StartChar: macron
Encoding: 175 175 112
Width: 436
GlyphClass: 2
Flags: W
LayerCount: 2
Fore
SplineSet
218 660 m 1,0,-1
 345 663 l 2,1,2
 363 663 363 663 374.5 654 c 128,-1,3
 386 645 386 645 386 630 c 128,-1,4
 386 615 386 615 374.5 606 c 128,-1,5
 363 597 363 597 345 597 c 2,6,-1
 218 600 l 1,7,-1
 91 597 l 2,8,9
 73 597 73 597 61.5 606 c 128,-1,10
 50 615 50 615 50 630 c 128,-1,11
 50 645 50 645 61.5 654 c 128,-1,12
 73 663 73 663 91 663 c 2,13,-1
 218 660 l 1,0,-1
EndSplineSet
EndChar

StartChar: degree
Encoding: 176 176 113
Width: 336
GlyphClass: 2
Flags: W
LayerCount: 2
Fore
SplineSet
286 369 m 128,-1,1
 286 307 286 307 253.5 265 c 128,-1,2
 221 223 221 223 168 223 c 128,-1,3
 115 223 115 223 82.5 265 c 128,-1,4
 50 307 50 307 50 369 c 128,-1,5
 50 431 50 431 82.5 473 c 128,-1,6
 115 515 115 515 168 515 c 128,-1,7
 221 515 221 515 253.5 473 c 128,-1,0
 286 431 286 431 286 369 c 128,-1,1
226 369 m 128,-1,9
 226 409 226 409 211 434.5 c 128,-1,10
 196 460 196 460 168.5 460 c 128,-1,11
 141 460 141 460 125.5 434 c 128,-1,12
 110 408 110 408 110 369 c 128,-1,13
 110 330 110 330 125.5 304 c 128,-1,14
 141 278 141 278 168.5 278 c 128,-1,15
 196 278 196 278 211 303.5 c 128,-1,8
 226 329 226 329 226 369 c 128,-1,9
EndSplineSet
EndChar

StartChar: plusminus
Encoding: 177 177 114
Width: 540
GlyphClass: 2
Flags: W
LayerCount: 2
Fore
SplineSet
270 60 m 1,0,-1
 447 63 l 2,1,2
 465 63 465 63 476.5 54 c 128,-1,3
 488 45 488 45 488 30 c 128,-1,4
 488 15 488 15 476.5 6 c 128,-1,5
 465 -3 465 -3 447 -3 c 2,6,-1
 270 0 l 1,7,-1
 93 -3 l 2,8,9
 75 -3 75 -3 63.5 6 c 128,-1,10
 52 15 52 15 52 30 c 128,-1,11
 52 45 52 45 63.5 54 c 128,-1,12
 75 63 75 63 93 63 c 2,13,14
 93 63 93 63 270 60 c 1,0,-1
107 293 m 0,15,16
 52 293 52 293 52 326 c 0,17,18
 52 341 52 341 63.5 350 c 128,-1,19
 75 359 75 359 93 359 c 2,20,-1
 241 356 l 1,21,22
 237 464 237 464 237 469 c 0,23,24
 237 510 237 510 270 510 c 0,25,26
 286 510 286 510 295.5 499 c 128,-1,27
 305 488 305 488 305 476 c 128,-1,28
 305 464 305 464 301 356 c 1,29,-1
 447 359 l 2,30,31
 465 359 465 359 476.5 350 c 128,-1,32
 488 341 488 341 488 326 c 128,-1,33
 488 311 488 311 476.5 302 c 128,-1,34
 465 293 465 293 447 293 c 0,35,36
 397 293 397 293 301 296 c 1,37,-1
 305 169 l 2,38,39
 305 150 305 150 295.5 139 c 128,-1,40
 286 128 286 128 270 128 c 0,41,42
 237 128 237 128 237 169 c 0,43,44
 237 172 237 172 241 296 c 1,45,46
 139 293 139 293 107 293 c 0,15,16
EndSplineSet
EndChar

StartChar: twosuperior
Encoding: 178 178 115
Width: 347
GlyphClass: 2
Flags: W
LayerCount: 2
Fore
SplineSet
168 288 m 1,0,-1
 258 292 l 2,1,2
 275 292 275 292 285 283.5 c 128,-1,3
 295 275 295 275 295 261 c 0,4,5
 295 230 295 230 258 230 c 1,6,-1
 169 233 l 1,7,-1
 93 230 l 2,8,9
 79 230 79 230 65.5 240 c 128,-1,10
 52 250 52 250 52 263 c 128,-1,11
 52 276 52 276 55 285 c 128,-1,12
 58 294 58 294 67.5 307 c 128,-1,13
 77 320 77 320 84.5 329.5 c 128,-1,14
 92 339 92 339 112 361.5 c 128,-1,15
 132 384 132 384 145 400 c 1,16,-1
 166 422 l 2,17,18
 209 467 209 467 209 490 c 0,19,20
 209 504 209 504 199.5 516.5 c 128,-1,21
 190 529 190 529 170 529 c 128,-1,22
 150 529 150 529 136 518 c 128,-1,23
 122 507 122 507 112 496 c 128,-1,24
 102 485 102 485 93 485 c 0,25,26
 64 485 64 485 64 515 c 0,27,28
 64 541 64 541 96.5 562.5 c 128,-1,29
 129 584 129 584 173.5 584 c 128,-1,30
 218 584 218 584 245 560 c 128,-1,31
 272 536 272 536 272 502.5 c 128,-1,32
 272 469 272 469 241 429.5 c 128,-1,33
 210 390 210 390 197 377 c 1,34,35
 127 293 127 293 123 288 c 1,36,-1
 168 288 l 1,0,-1
EndSplineSet
EndChar

StartChar: threesuperior
Encoding: 179 179 116
Width: 329
GlyphClass: 2
Flags: W
LayerCount: 2
Fore
SplineSet
157 580 m 1,0,-1
 220 582 l 2,1,2
 235 582 235 582 251 573 c 128,-1,3
 267 564 267 564 267 549.5 c 128,-1,4
 267 535 267 535 258 524.5 c 128,-1,5
 249 514 249 514 227 493 c 128,-1,6
 205 472 205 472 186 448 c 1,7,8
 233 438 233 438 258 409 c 128,-1,9
 283 380 283 380 283 335.5 c 128,-1,10
 283 291 283 291 249 254.5 c 128,-1,11
 215 218 215 218 165 218 c 128,-1,12
 115 218 115 218 79 242.5 c 128,-1,13
 43 267 43 267 43 285.5 c 128,-1,14
 43 304 43 304 51.5 311 c 128,-1,15
 60 318 60 318 68.5 318 c 128,-1,16
 77 318 77 318 102.5 298 c 128,-1,17
 128 278 128 278 160 278 c 128,-1,18
 192 278 192 278 211 295 c 128,-1,19
 230 312 230 312 230 336.5 c 128,-1,20
 230 361 230 361 207.5 382 c 128,-1,21
 185 403 185 403 155 405 c 1,22,23
 128 377 128 377 110.5 377 c 128,-1,24
 93 377 93 377 83.5 386 c 128,-1,25
 74 395 74 395 74 409.5 c 128,-1,26
 74 424 74 424 88 437 c 128,-1,27
 102 450 102 450 129 455 c 1,28,29
 178 506 178 506 193 524 c 1,30,31
 167 526 167 526 149 526 c 2,32,-1
 89 524 l 2,33,34
 75 524 75 524 65 532.5 c 128,-1,35
 55 541 55 541 55 553.5 c 128,-1,36
 55 566 55 566 64 574 c 128,-1,37
 73 582 73 582 89 582 c 2,38,-1
 157 580 l 1,0,-1
EndSplineSet
EndChar

StartChar: acute
Encoding: 180 180 117
Width: 285
GlyphClass: 2
Flags: W
LayerCount: 2
Fore
SplineSet
215 692 m 0,0,1
 215 649 215 649 169.5 606 c 128,-1,2
 124 563 124 563 97 563 c 128,-1,3
 70 563 70 563 70 584 c 0,4,5
 70 596 70 596 86 614 c 128,-1,6
 102 632 102 632 109.5 641.5 c 128,-1,7
 117 651 117 651 127.5 676.5 c 128,-1,8
 138 702 138 702 149.5 716 c 128,-1,9
 161 730 161 730 179 730 c 128,-1,10
 197 730 197 730 206 718.5 c 128,-1,11
 215 707 215 707 215 692 c 0,0,1
EndSplineSet
EndChar

StartChar: mu
Encoding: 181 181 118
Width: 589
GlyphClass: 2
Flags: W
LayerCount: 2
Fore
SplineSet
149 40 m 1,0,-1
 156 -39 l 1,1,2
 156 -62 156 -62 145.5 -76 c 128,-1,3
 135 -90 135 -90 117 -90 c 128,-1,4
 99 -90 99 -90 88.5 -76 c 128,-1,5
 78 -62 78 -62 78 -48.5 c 128,-1,6
 78 -35 78 -35 81 13 c 128,-1,7
 84 61 84 61 84 135 c 2,8,-1
 84 170 l 1,9,10
 69 376 69 376 69 434 c 0,11,12
 69 509 69 509 115 509 c 0,13,14
 155 509 155 509 155 448 c 0,15,16
 155 438 155 438 152.5 386.5 c 128,-1,17
 150 335 150 335 150 189 c 0,18,19
 150 130 150 130 180 93 c 128,-1,20
 210 56 210 56 260 56 c 128,-1,21
 310 56 310 56 358 113 c 128,-1,22
 406 170 406 170 425 242 c 1,23,-1
 422 459 l 2,24,25
 422 510 422 510 460 510 c 0,26,27
 506 510 506 510 506 439.5 c 128,-1,28
 506 369 506 369 486 242 c 1,29,30
 486 167 486 167 497 119.5 c 128,-1,31
 508 72 508 72 523 66 c 0,32,33
 529 63 529 63 537.5 62 c 128,-1,34
 546 61 546 61 549.5 59 c 128,-1,35
 553 57 553 57 553 51 c 0,36,37
 553 24 553 24 536.5 7 c 128,-1,38
 520 -10 520 -10 495 -10 c 0,39,40
 432 -10 432 -10 432 118 c 1,41,42
 404 70 404 70 358 30 c 128,-1,43
 312 -10 312 -10 255.5 -10 c 128,-1,44
 199 -10 199 -10 149 40 c 1,0,-1
EndSplineSet
EndChar

StartChar: paragraph
Encoding: 182 182 119
Width: 539
GlyphClass: 2
Flags: W
LayerCount: 2
Fore
SplineSet
340 507 m 1,0,-1
 417 510 l 2,1,2
 439 510 439 510 452 496 c 128,-1,3
 465 482 465 482 465 465.5 c 128,-1,4
 465 449 465 449 462.5 358 c 128,-1,5
 460 267 460 267 460 140 c 128,-1,6
 460 13 460 13 461.5 -45 c 128,-1,7
 463 -103 463 -103 464.5 -138 c 128,-1,8
 466 -173 466 -173 466 -187.5 c 128,-1,9
 466 -202 466 -202 455.5 -216 c 128,-1,10
 445 -230 445 -230 427 -230 c 128,-1,11
 409 -230 409 -230 398.5 -216 c 128,-1,12
 388 -202 388 -202 388 -187.5 c 128,-1,13
 388 -173 388 -173 391 -103 c 128,-1,14
 394 -33 394 -33 394 75 c 1,15,-1
 389 445 l 1,16,17
 361 447 361 447 340 447 c 128,-1,18
 319 447 319 447 291 445 c 1,19,20
 286 195 286 195 286 104 c 128,-1,21
 286 13 286 13 287.5 -45 c 128,-1,22
 289 -103 289 -103 290.5 -138 c 128,-1,23
 292 -173 292 -173 292 -179 c 0,24,25
 292 -230 292 -230 253 -230 c 128,-1,26
 214 -230 214 -230 214 -179 c 0,27,28
 214 -173 214 -173 217 -103 c 128,-1,29
 220 -33 220 -33 220 75 c 2,30,-1
 220 138 l 1,31,32
 139 142 139 142 86 194 c 128,-1,33
 33 246 33 246 33 325.5 c 128,-1,34
 33 405 33 405 91 457 c 128,-1,35
 149 509 149 509 249 510 c 1,36,-1
 340 507 l 1,0,-1
EndSplineSet
EndChar

StartChar: periodcentered
Encoding: 183 183 120
Width: 220
GlyphClass: 2
Flags: W
LayerCount: 2
Fore
SplineSet
146 302.5 m 128,-1,1
 157 287 157 287 157 263.5 c 128,-1,2
 157 240 157 240 142.5 220.5 c 128,-1,3
 128 201 128 201 107 201 c 128,-1,4
 86 201 86 201 74.5 217 c 128,-1,5
 63 233 63 233 63 256.5 c 128,-1,6
 63 280 63 280 77.5 299 c 128,-1,7
 92 318 92 318 113.5 318 c 128,-1,0
 135 318 135 318 146 302.5 c 128,-1,1
EndSplineSet
EndChar

StartChar: cedilla
Encoding: 184 184 121
Width: 331
GlyphClass: 2
Flags: W
LayerCount: 2
Fore
SplineSet
271 -137 m 0,0,1
 271 -177 271 -177 236 -203.5 c 128,-1,2
 201 -230 201 -230 152 -230 c 128,-1,3
 103 -230 103 -230 73 -207 c 128,-1,4
 43 -184 43 -184 43 -160 c 0,5,6
 43 -153 43 -153 48 -147 c 128,-1,7
 53 -141 53 -141 61 -141 c 128,-1,8
 69 -141 69 -141 95.5 -153.5 c 128,-1,9
 122 -166 122 -166 144.5 -166 c 128,-1,10
 167 -166 167 -166 182.5 -157 c 128,-1,11
 198 -148 198 -148 198 -136 c 128,-1,12
 198 -124 198 -124 183 -112.5 c 128,-1,13
 168 -101 168 -101 150 -91.5 c 128,-1,14
 132 -82 132 -82 117 -64.5 c 128,-1,15
 102 -47 102 -47 102 -26 c 2,16,-1
 102 12 l 1,17,-1
 166 12 l 1,18,-1
 166 -10 l 2,19,20
 166 -40 166 -40 218 -68 c 0,21,22
 238 -79 238 -79 254.5 -97 c 128,-1,23
 271 -115 271 -115 271 -137 c 0,0,1
EndSplineSet
EndChar

StartChar: onesuperior
Encoding: 185 185 122
Width: 283
GlyphClass: 2
Flags: W
LayerCount: 2
Fore
SplineSet
214 367 m 1,0,-1
 216 260 l 2,1,2
 216 243 216 243 207.5 231.5 c 128,-1,3
 199 220 199 220 184.5 220 c 128,-1,4
 170 220 170 220 161 231 c 128,-1,5
 152 242 152 242 152 260 c 2,6,-1
 155 367 l 1,7,-1
 155 500 l 1,8,-1
 122 452 l 2,9,10
 119 446 119 446 111.5 437 c 128,-1,11
 104 428 104 428 99 421 c 128,-1,12
 94 414 94 414 90.5 411 c 128,-1,13
 87 408 87 408 80.5 402 c 128,-1,14
 74 396 74 396 65 396 c 0,15,16
 34 396 34 396 34 426 c 0,17,18
 34 440 34 440 59.5 469 c 128,-1,19
 85 498 85 498 107.5 527 c 128,-1,20
 130 556 130 556 145.5 569 c 128,-1,21
 161 582 161 582 179 582 c 128,-1,22
 197 582 197 582 207 567.5 c 128,-1,23
 217 553 217 553 217 531 c 2,24,-1
 214 367 l 1,0,-1
EndSplineSet
EndChar

StartChar: ordmasculine
Encoding: 186 186 123
Width: 364
GlyphClass: 2
Flags: W
LayerCount: 2
Fore
SplineSet
276.5 535 m 128,-1,1
 313 489 313 489 313 419 c 128,-1,2
 313 349 313 349 276.5 304 c 128,-1,3
 240 259 240 259 182 259 c 128,-1,4
 124 259 124 259 87.5 304 c 128,-1,5
 51 349 51 349 51 419 c 128,-1,6
 51 489 51 489 87.5 535 c 128,-1,7
 124 581 124 581 182 581 c 128,-1,0
 240 581 240 581 276.5 535 c 128,-1,1
234.5 342.5 m 128,-1,9
 253 371 253 371 253 419 c 128,-1,10
 253 467 253 467 234 496.5 c 128,-1,11
 215 526 215 526 182 526 c 128,-1,12
 149 526 149 526 130 496 c 128,-1,13
 111 466 111 466 111 418.5 c 128,-1,14
 111 371 111 371 130 342.5 c 128,-1,15
 149 314 149 314 182.5 314 c 128,-1,8
 216 314 216 314 234.5 342.5 c 128,-1,9
EndSplineSet
EndChar

StartChar: guillemotright
Encoding: 187 187 124
Width: 511
GlyphClass: 2
Flags: W
LayerCount: 2
Fore
SplineSet
460 282 m 128,-1,1
 467 271 467 271 467 258.5 c 128,-1,2
 467 246 467 246 459 235 c 128,-1,3
 451 224 451 224 425 200.5 c 128,-1,4
 399 177 399 177 388 166 c 128,-1,5
 377 155 377 155 362.5 139 c 128,-1,6
 348 123 348 123 336 111 c 128,-1,7
 324 99 324 99 308.5 99 c 128,-1,8
 293 99 293 99 284 108.5 c 128,-1,9
 275 118 275 118 275 131.5 c 128,-1,10
 275 145 275 145 284.5 155 c 128,-1,11
 294 165 294 165 314.5 179.5 c 128,-1,12
 335 194 335 194 345 203 c 0,13,14
 393 246 393 246 393 260 c 128,-1,15
 393 274 393 274 345 317 c 0,16,17
 335 326 335 326 314.5 340.5 c 128,-1,18
 294 355 294 355 284.5 365 c 128,-1,19
 275 375 275 375 275 388.5 c 128,-1,20
 275 402 275 402 284 411.5 c 128,-1,21
 293 421 293 421 304.5 421 c 128,-1,22
 316 421 316 421 325.5 415.5 c 128,-1,23
 335 410 335 410 341.5 403.5 c 128,-1,24
 348 397 348 397 362.5 381 c 128,-1,25
 377 365 377 365 388.5 353.5 c 128,-1,26
 400 342 400 342 418 325.5 c 128,-1,27
 436 309 436 309 444.5 301 c 128,-1,0
 453 293 453 293 460 282 c 128,-1,1
251 282 m 128,-1,29
 258 271 258 271 258 258.5 c 128,-1,30
 258 246 258 246 250 235 c 128,-1,31
 242 224 242 224 216 200.5 c 128,-1,32
 190 177 190 177 179 166 c 128,-1,33
 168 155 168 155 153.5 139 c 128,-1,34
 139 123 139 123 127 111 c 128,-1,35
 115 99 115 99 99.5 99 c 128,-1,36
 84 99 84 99 75 108.5 c 128,-1,37
 66 118 66 118 66 131.5 c 128,-1,38
 66 145 66 145 75.5 155 c 128,-1,39
 85 165 85 165 105.5 179.5 c 128,-1,40
 126 194 126 194 136 203 c 0,41,42
 184 246 184 246 184 260 c 128,-1,43
 184 274 184 274 136 317 c 0,44,45
 126 326 126 326 105.5 340.5 c 128,-1,46
 85 355 85 355 75.5 365 c 128,-1,47
 66 375 66 375 66 388.5 c 128,-1,48
 66 402 66 402 75 411.5 c 128,-1,49
 84 421 84 421 95.5 421 c 128,-1,50
 107 421 107 421 116.5 415.5 c 128,-1,51
 126 410 126 410 132.5 403.5 c 128,-1,52
 139 397 139 397 153.5 381 c 128,-1,53
 168 365 168 365 179.5 353.5 c 128,-1,54
 191 342 191 342 209 325.5 c 128,-1,55
 227 309 227 309 235.5 301 c 128,-1,28
 244 293 244 293 251 282 c 128,-1,29
EndSplineSet
EndChar

StartChar: onequarter
Encoding: 188 188 125
Width: 743
GlyphClass: 2
Flags: W
LayerCount: 2
Fore
SplineSet
645 99 m 1,0,-1
 648 29 l 1,1,2
 648 -14 648 -14 617.5 -14 c 128,-1,3
 587 -14 587 -14 587 29 c 1,4,5
 587 29 587 29 590 101 c 1,6,-1
 551 102 l 1,7,-1
 460 99 l 2,8,9
 443 99 443 99 435 108 c 128,-1,10
 427 117 427 117 427 130.5 c 128,-1,11
 427 144 427 144 443.5 169.5 c 128,-1,12
 460 195 460 195 503 252.5 c 128,-1,13
 546 310 546 310 550.5 316.5 c 128,-1,14
 555 323 555 323 556.5 324.5 c 128,-1,15
 558 326 558 326 562 331 c 128,-1,16
 566 336 566 336 568 338 c 0,17,18
 583 349 583 349 602 349 c 128,-1,19
 621 349 621 349 633.5 335.5 c 128,-1,20
 646 322 646 322 646 299 c 2,21,-1
 646 276 l 1,22,-1
 645 151 l 1,23,24
 675 153 675 153 683.5 153 c 128,-1,25
 692 153 692 153 700.5 144.5 c 128,-1,26
 709 136 709 136 709 126 c 128,-1,27
 709 116 709 116 700.5 107 c 128,-1,28
 692 98 692 98 676.5 98 c 128,-1,29
 661 98 661 98 645 99 c 1,0,-1
591 151 m 1,30,-1
 592 213 l 2,31,32
 592 225 592 225 589 282 c 1,33,34
 569 259 569 259 536 208.5 c 128,-1,35
 503 158 503 158 498 151 c 1,36,-1
 591 151 l 1,30,-1
441.5 506 m 128,-1,38
 449 497 449 497 449 482.5 c 128,-1,39
 449 468 449 468 420.5 379 c 128,-1,40
 392 290 392 290 356.5 171.5 c 128,-1,41
 321 53 321 53 312.5 19 c 128,-1,42
 304 -15 304 -15 275 -15 c 0,43,44
 265 -15 265 -15 257 -5.5 c 128,-1,45
 249 4 249 4 249 15.5 c 128,-1,46
 249 27 249 27 257 52.5 c 128,-1,47
 265 78 265 78 283 131.5 c 128,-1,48
 301 185 301 185 337 309 c 128,-1,49
 373 433 373 433 383 476 c 1,50,51
 394 515 394 515 424 515 c 0,52,37
 434 515 434 515 441.5 506 c 128,-1,38
212 300 m 1,53,-1
 214 193 l 2,54,55
 214 176 214 176 205.5 164.5 c 128,-1,56
 197 153 197 153 182.5 153 c 128,-1,57
 168 153 168 153 159 164 c 128,-1,58
 150 175 150 175 150 193 c 2,59,-1
 153 300 l 1,60,-1
 153 433 l 1,61,-1
 120 385 l 2,62,63
 117 379 117 379 109.5 370 c 128,-1,64
 102 361 102 361 97 354 c 128,-1,65
 92 347 92 347 88.5 344 c 128,-1,66
 85 341 85 341 78.5 335 c 128,-1,67
 72 329 72 329 63 329 c 0,68,69
 32 329 32 329 32 359 c 0,70,71
 32 373 32 373 57.5 402 c 128,-1,72
 83 431 83 431 105.5 460 c 128,-1,73
 128 489 128 489 143.5 502 c 128,-1,74
 159 515 159 515 177 515 c 128,-1,75
 195 515 195 515 205 500.5 c 128,-1,76
 215 486 215 486 215 464 c 2,77,-1
 212 300 l 1,53,-1
EndSplineSet
EndChar

StartChar: onehalf
Encoding: 189 189 126
Width: 754
GlyphClass: 2
Flags: W
LayerCount: 2
Fore
SplineSet
586 56 m 1,0,-1
 676 60 l 2,1,2
 693 60 693 60 703 51.5 c 128,-1,3
 713 43 713 43 713 29 c 0,4,5
 713 -2 713 -2 676 -2 c 1,6,-1
 587 1 l 1,7,-1
 511 -2 l 2,8,9
 497 -2 497 -2 483.5 8 c 128,-1,10
 470 18 470 18 470 31 c 128,-1,11
 470 44 470 44 473 53 c 128,-1,12
 476 62 476 62 485.5 75 c 128,-1,13
 495 88 495 88 502.5 97.5 c 128,-1,14
 510 107 510 107 530 129.5 c 128,-1,15
 550 152 550 152 563 168 c 1,16,-1
 584 190 l 2,17,18
 627 235 627 235 627 258 c 0,19,20
 627 272 627 272 617.5 284.5 c 128,-1,21
 608 297 608 297 588 297 c 128,-1,22
 568 297 568 297 554 286 c 128,-1,23
 540 275 540 275 530 264 c 128,-1,24
 520 253 520 253 511 253 c 0,25,26
 482 253 482 253 482 283 c 0,27,28
 482 309 482 309 514.5 330.5 c 128,-1,29
 547 352 547 352 591.5 352 c 128,-1,30
 636 352 636 352 663 328 c 128,-1,31
 690 304 690 304 690 270.5 c 128,-1,32
 690 237 690 237 659 197.5 c 128,-1,33
 628 158 628 158 615 145 c 1,34,35
 545 61 545 61 541 56 c 1,36,-1
 586 56 l 1,0,-1
212 300 m 1,37,-1
 214 193 l 2,38,39
 214 176 214 176 205.5 164.5 c 128,-1,40
 197 153 197 153 182.5 153 c 128,-1,41
 168 153 168 153 159 164 c 128,-1,42
 150 175 150 175 150 193 c 2,43,-1
 153 300 l 1,44,-1
 153 433 l 1,45,-1
 120 385 l 2,46,47
 81 329 81 329 63 329 c 0,48,49
 32 329 32 329 32 359 c 0,50,51
 32 373 32 373 57.5 402 c 128,-1,52
 83 431 83 431 105.5 460 c 128,-1,53
 128 489 128 489 143.5 502 c 128,-1,54
 159 515 159 515 177 515 c 128,-1,55
 195 515 195 515 205 500.5 c 128,-1,56
 215 486 215 486 215 464 c 2,57,-1
 212 300 l 1,37,-1
442.5 506 m 128,-1,59
 450 497 450 497 450 482.5 c 128,-1,60
 450 468 450 468 421.5 379 c 128,-1,61
 393 290 393 290 357.5 171.5 c 128,-1,62
 322 53 322 53 313.5 19 c 128,-1,63
 305 -15 305 -15 276 -15 c 0,64,65
 266 -15 266 -15 258 -5.5 c 128,-1,66
 250 4 250 4 250 15.5 c 128,-1,67
 250 27 250 27 258 52.5 c 128,-1,68
 266 78 266 78 284 131.5 c 128,-1,69
 302 185 302 185 338 309 c 128,-1,70
 374 433 374 433 384 476 c 1,71,72
 395 515 395 515 425 515 c 0,73,58
 435 515 435 515 442.5 506 c 128,-1,59
EndSplineSet
EndChar

StartChar: threequarters
Encoding: 190 190 127
Width: 772
GlyphClass: 2
Flags: W
LayerCount: 2
Fore
SplineSet
158 501 m 1,0,-1
 221 503 l 2,1,2
 236 503 236 503 252 494 c 128,-1,3
 268 485 268 485 268 470.5 c 128,-1,4
 268 456 268 456 259 445.5 c 128,-1,5
 250 435 250 435 228 414 c 128,-1,6
 206 393 206 393 187 369 c 1,7,8
 234 359 234 359 259 330 c 128,-1,9
 284 301 284 301 284 256.5 c 128,-1,10
 284 212 284 212 250 175.5 c 128,-1,11
 216 139 216 139 166 139 c 128,-1,12
 116 139 116 139 80 163.5 c 128,-1,13
 44 188 44 188 44 206.5 c 128,-1,14
 44 225 44 225 52.5 232 c 128,-1,15
 61 239 61 239 69.5 239 c 128,-1,16
 78 239 78 239 103.5 219 c 128,-1,17
 129 199 129 199 161 199 c 128,-1,18
 193 199 193 199 212 216 c 128,-1,19
 231 233 231 233 231 257.5 c 128,-1,20
 231 282 231 282 208.5 303 c 128,-1,21
 186 324 186 324 156 326 c 1,22,23
 129 298 129 298 111.5 298 c 128,-1,24
 94 298 94 298 84.5 307 c 128,-1,25
 75 316 75 316 75 330.5 c 128,-1,26
 75 345 75 345 89 358 c 128,-1,27
 103 371 103 371 130 376 c 1,28,29
 179 427 179 427 194 445 c 1,30,31
 168 447 168 447 150 447 c 2,32,-1
 90 445 l 2,33,34
 76 445 76 445 66 453.5 c 128,-1,35
 56 462 56 462 56 474.5 c 128,-1,36
 56 487 56 487 65 495 c 128,-1,37
 74 503 74 503 90 503 c 2,38,-1
 158 501 l 1,0,-1
675 99 m 1,39,-1
 678 29 l 1,40,41
 678 -14 678 -14 647.5 -14 c 128,-1,42
 617 -14 617 -14 617 29 c 1,43,-1
 620 101 l 1,44,-1
 581 102 l 1,45,-1
 490 99 l 2,46,47
 473 99 473 99 465 108 c 128,-1,48
 457 117 457 117 457 130.5 c 128,-1,49
 457 144 457 144 473.5 169.5 c 128,-1,50
 490 195 490 195 533 252.5 c 128,-1,51
 576 310 576 310 580.5 316.5 c 128,-1,52
 585 323 585 323 586.5 324.5 c 128,-1,53
 588 326 588 326 592 331 c 128,-1,54
 596 336 596 336 598 338 c 0,55,56
 613 349 613 349 632 349 c 128,-1,57
 651 349 651 349 663.5 335.5 c 128,-1,58
 676 322 676 322 676 299 c 2,59,-1
 676 276 l 1,60,-1
 675 151 l 1,61,62
 705 153 705 153 713.5 153 c 128,-1,63
 722 153 722 153 730.5 144.5 c 128,-1,64
 739 136 739 136 739 126 c 128,-1,65
 739 116 739 116 730.5 107 c 128,-1,66
 722 98 722 98 706.5 98 c 128,-1,67
 691 98 691 98 675 99 c 1,39,-1
621 151 m 1,68,-1
 622 213 l 2,69,70
 622 225 622 225 619 282 c 1,71,72
 599 259 599 259 566 208.5 c 128,-1,73
 533 158 533 158 528 151 c 1,74,-1
 621 151 l 1,68,-1
477.5 506 m 128,-1,76
 485 497 485 497 485 482.5 c 128,-1,77
 485 468 485 468 456.5 379 c 128,-1,78
 428 290 428 290 392.5 171.5 c 128,-1,79
 357 53 357 53 348.5 19 c 128,-1,80
 340 -15 340 -15 311 -15 c 0,81,82
 301 -15 301 -15 293 -5.5 c 128,-1,83
 285 4 285 4 285 15.5 c 128,-1,84
 285 27 285 27 293 52.5 c 128,-1,85
 301 78 301 78 319 131.5 c 128,-1,86
 337 185 337 185 373 309 c 128,-1,87
 409 433 409 433 419 476 c 1,88,89
 430 515 430 515 460 515 c 0,90,75
 470 515 470 515 477.5 506 c 128,-1,76
EndSplineSet
EndChar

StartChar: questiondown
Encoding: 191 191 128
Width: 412
GlyphClass: 2
Flags: W
LayerCount: 2
Fore
SplineSet
377 27 m 0,0,1
 377 -8 377 -8 325.5 -44.5 c 128,-1,2
 274 -81 274 -81 203.5 -81 c 128,-1,3
 133 -81 133 -81 84 -40.5 c 128,-1,4
 35 0 35 0 35 58 c 0,5,6
 35 90 35 90 52 115.5 c 128,-1,7
 69 141 69 141 93.5 157.5 c 128,-1,8
 118 174 118 174 142 190 c 0,9,10
 201 227 201 227 201 261 c 0,11,12
 201 317 201 317 236 317 c 0,13,14
 273 317 273 317 273 261 c 0,15,16
 273 220 273 220 247 189 c 128,-1,17
 221 158 221 158 190 142.5 c 128,-1,18
 159 127 159 127 133 105 c 128,-1,19
 107 83 107 83 107 55 c 128,-1,20
 107 27 107 27 138.5 5 c 128,-1,21
 170 -17 170 -17 204.5 -17 c 128,-1,22
 239 -17 239 -17 263 -5 c 128,-1,23
 287 7 287 7 298 21 c 0,24,25
 326 59 326 59 343 59 c 128,-1,26
 360 59 360 59 368.5 49.5 c 128,-1,27
 377 40 377 40 377 27 c 0,0,1
202 415 m 128,-1,29
 191 430 191 430 191 453.5 c 128,-1,30
 191 477 191 477 205.5 496 c 128,-1,31
 220 515 220 515 240.5 515 c 128,-1,32
 261 515 261 515 272 499 c 128,-1,33
 283 483 283 483 283 460.5 c 128,-1,34
 283 438 283 438 268.5 419 c 128,-1,35
 254 400 254 400 233.5 400 c 128,-1,28
 213 400 213 400 202 415 c 128,-1,29
EndSplineSet
EndChar

StartChar: Aacute
Encoding: 193 193 130
Width: 536
GlyphClass: 2
Flags: W
LayerCount: 2
Fore
SplineSet
178 206 m 1,0,-1
 351 206 l 1,1,2
 329 265 329 265 300 335.5 c 128,-1,3
 271 406 271 406 265 406 c 0,4,5
 255 406 255 406 178 206 c 1,0,-1
420 207 m 1,6,7
 460 209 460 209 472.5 209 c 128,-1,8
 485 209 485 209 496.5 200 c 128,-1,9
 508 191 508 191 508 176 c 128,-1,10
 508 161 508 161 496.5 152 c 128,-1,11
 485 143 485 143 467 143 c 2,12,-1
 449 143 l 1,13,14
 456 126 456 126 464.5 107 c 128,-1,15
 473 88 473 88 478 76.5 c 128,-1,16
 483 65 483 65 490 49.5 c 128,-1,17
 497 34 497 34 497 22 c 128,-1,18
 497 10 497 10 488.5 0 c 128,-1,19
 480 -10 480 -10 466 -10 c 0,20,21
 437 -10 437 -10 422 29 c 2,22,-1
 377 145 l 1,23,-1
 270 146 l 2,24,25
 216 146 216 146 153 145 c 1,26,-1
 109 29 l 2,27,28
 94 -10 94 -10 68 -10 c 0,29,30
 54 -10 54 -10 44 0 c 128,-1,31
 34 10 34 10 34 19.5 c 128,-1,32
 34 29 34 29 36 36 c 0,33,34
 39 47 39 47 51.5 75 c 128,-1,35
 64 103 64 103 80 143 c 1,36,37
 32 143 32 143 32 176 c 0,38,39
 32 191 32 191 43.5 200 c 128,-1,40
 55 209 55 209 74 209 c 128,-1,41
 93 209 93 209 108 208 c 1,42,-1
 125 246 l 1,43,44
 162 326 162 326 190.5 401 c 128,-1,45
 219 476 219 476 221 479 c 0,46,47
 238 515 238 515 266 515 c 0,48,49
 279 515 279 515 289 506 c 0,50,51
 305 491 305 491 340.5 399.5 c 128,-1,52
 376 308 376 308 420 207 c 1,6,7
352 692 m 0,53,54
 352 649 352 649 306.5 606 c 128,-1,55
 261 563 261 563 234 563 c 128,-1,56
 207 563 207 563 207 584 c 0,57,58
 207 596 207 596 223 614 c 128,-1,59
 239 632 239 632 246.5 641.5 c 128,-1,60
 254 651 254 651 264.5 676.5 c 128,-1,61
 275 702 275 702 286.5 716 c 128,-1,62
 298 730 298 730 316 730 c 128,-1,63
 334 730 334 730 343 718.5 c 128,-1,64
 352 707 352 707 352 692 c 0,53,54
EndSplineSet
EndChar

StartChar: Atilde
Encoding: 195 195 132
Width: 536
GlyphClass: 2
Flags: W
LayerCount: 2
Fore
SplineSet
178 206 m 1,0,-1
 351 206 l 1,1,2
 329 265 329 265 300 335.5 c 128,-1,3
 271 406 271 406 265 406 c 0,4,5
 255 406 255 406 178 206 c 1,0,-1
420 207 m 1,6,7
 460 209 460 209 472.5 209 c 128,-1,8
 485 209 485 209 496.5 200 c 128,-1,9
 508 191 508 191 508 176 c 128,-1,10
 508 161 508 161 496.5 152 c 128,-1,11
 485 143 485 143 467 143 c 2,12,-1
 449 143 l 1,13,14
 456 126 456 126 464.5 107 c 128,-1,15
 473 88 473 88 478 76.5 c 128,-1,16
 483 65 483 65 490 49.5 c 128,-1,17
 497 34 497 34 497 22 c 128,-1,18
 497 10 497 10 488.5 0 c 128,-1,19
 480 -10 480 -10 466 -10 c 0,20,21
 437 -10 437 -10 422 29 c 2,22,-1
 377 145 l 1,23,-1
 270 146 l 2,24,25
 216 146 216 146 153 145 c 1,26,-1
 109 29 l 2,27,28
 94 -10 94 -10 68 -10 c 0,29,30
 54 -10 54 -10 44 0 c 128,-1,31
 34 10 34 10 34 19.5 c 128,-1,32
 34 29 34 29 36 36 c 0,33,34
 39 47 39 47 51.5 75 c 128,-1,35
 64 103 64 103 80 143 c 1,36,37
 32 143 32 143 32 176 c 0,38,39
 32 191 32 191 43.5 200 c 128,-1,40
 55 209 55 209 74 209 c 128,-1,41
 93 209 93 209 108 208 c 1,42,-1
 125 246 l 1,43,44
 162 326 162 326 190.5 401 c 128,-1,45
 219 476 219 476 221 479 c 0,46,47
 238 515 238 515 266 515 c 0,48,49
 279 515 279 515 289 506 c 0,50,51
 305 491 305 491 340.5 399.5 c 128,-1,52
 376 308 376 308 420 207 c 1,6,7
448 652 m 0,53,54
 448 618 448 618 422.5 592.5 c 128,-1,55
 397 567 397 567 362.5 567 c 128,-1,56
 328 567 328 567 280 594.5 c 128,-1,57
 232 622 232 622 211.5 622 c 128,-1,58
 191 622 191 622 177.5 607 c 128,-1,59
 164 592 164 592 152 576.5 c 128,-1,60
 140 561 140 561 125.5 561 c 128,-1,61
 111 561 111 561 101 572 c 128,-1,62
 91 583 91 583 91 597 c 0,63,64
 91 632 91 632 123 658.5 c 128,-1,65
 155 685 155 685 196.5 685 c 128,-1,66
 238 685 238 685 289.5 657 c 128,-1,67
 341 629 341 629 362.5 629 c 128,-1,68
 384 629 384 629 401 654.5 c 128,-1,69
 418 680 418 680 427 680 c 128,-1,70
 436 680 436 680 442 671.5 c 128,-1,71
 448 663 448 663 448 652 c 0,53,54
EndSplineSet
EndChar

StartChar: Aring
Encoding: 197 197 134
Width: 536
GlyphClass: 2
Flags: W
LayerCount: 2
Fore
SplineSet
178 206 m 1,0,-1
 351 206 l 1,1,2
 329 265 329 265 300 335.5 c 128,-1,3
 271 406 271 406 265 406 c 0,4,5
 255 406 255 406 178 206 c 1,0,-1
420 207 m 1,6,7
 460 209 460 209 472.5 209 c 128,-1,8
 485 209 485 209 496.5 200 c 128,-1,9
 508 191 508 191 508 176 c 128,-1,10
 508 161 508 161 496.5 152 c 128,-1,11
 485 143 485 143 467 143 c 2,12,-1
 449 143 l 1,13,14
 456 126 456 126 464.5 107 c 128,-1,15
 473 88 473 88 478 76.5 c 128,-1,16
 483 65 483 65 490 49.5 c 128,-1,17
 497 34 497 34 497 22 c 128,-1,18
 497 10 497 10 488.5 0 c 128,-1,19
 480 -10 480 -10 466 -10 c 0,20,21
 437 -10 437 -10 422 29 c 2,22,-1
 377 145 l 1,23,-1
 270 146 l 2,24,25
 216 146 216 146 153 145 c 1,26,-1
 109 29 l 2,27,28
 94 -10 94 -10 68 -10 c 0,29,30
 54 -10 54 -10 44 0 c 128,-1,31
 34 10 34 10 34 19.5 c 128,-1,32
 34 29 34 29 36 36 c 0,33,34
 39 47 39 47 51.5 75 c 128,-1,35
 64 103 64 103 80 143 c 1,36,37
 32 143 32 143 32 176 c 0,38,39
 32 191 32 191 43.5 200 c 128,-1,40
 55 209 55 209 74 209 c 128,-1,41
 93 209 93 209 108 208 c 1,42,-1
 125 246 l 1,43,44
 162 326 162 326 190.5 401 c 128,-1,45
 219 476 219 476 221 479 c 0,46,47
 238 515 238 515 266 515 c 0,48,49
 279 515 279 515 289 506 c 0,50,51
 305 491 305 491 340.5 399.5 c 128,-1,52
 376 308 376 308 420 207 c 1,6,7
355 670 m 128,-1,54
 355 630 355 630 330 603 c 128,-1,55
 305 576 305 576 264 576 c 128,-1,56
 223 576 223 576 198 602.5 c 128,-1,57
 173 629 173 629 173 669.5 c 128,-1,58
 173 710 173 710 199 737.5 c 128,-1,59
 225 765 225 765 264 765 c 128,-1,60
 303 765 303 765 329 737.5 c 128,-1,53
 355 710 355 710 355 670 c 128,-1,54
295 637.5 m 128,-1,62
 308 652 308 652 308 670.5 c 128,-1,63
 308 689 308 689 294.5 703.5 c 128,-1,64
 281 718 281 718 264 718 c 128,-1,65
 247 718 247 718 233.5 703.5 c 128,-1,66
 220 689 220 689 220 670.5 c 128,-1,67
 220 652 220 652 233 637.5 c 128,-1,68
 246 623 246 623 264 623 c 128,-1,61
 282 623 282 623 295 637.5 c 128,-1,62
EndSplineSet
EndChar

StartChar: AE
Encoding: 198 198 135
Width: 660
GlyphClass: 2
Flags: W
LayerCount: 2
Fore
SplineSet
326 140 m 1,0,-1
 269 141 l 2,1,2
 215 141 215 141 152 140 c 1,3,-1
 108 24 l 2,4,5
 93 -15 93 -15 67 -15 c 0,6,7
 53 -15 53 -15 43 -5 c 128,-1,8
 33 5 33 5 33 19.5 c 128,-1,9
 33 34 33 34 79 138 c 1,10,11
 31 138 31 138 31 171 c 0,12,13
 31 186 31 186 42.5 195 c 128,-1,14
 54 204 54 204 73 204 c 128,-1,15
 92 204 92 204 107 203 c 1,16,-1
 125 246 l 1,17,18
 163 334 163 334 190.5 404.5 c 128,-1,19
 218 475 218 475 220 479 c 0,20,21
 236 515 236 515 265 515 c 2,22,-1
 396 511 l 1,23,-1
 506 516 l 1,24,25
 556 516 556 516 556 481 c 128,-1,26
 556 446 556 446 506 446 c 1,27,-1
 396 451 l 1,28,29
 370 451 370 451 326 447 c 1,30,31
 336 383 336 383 357 292 c 1,32,33
 379 291 379 291 438 291 c 1,34,-1
 508 293 l 1,35,36
 558 293 558 293 558 260.5 c 128,-1,37
 558 228 558 228 508 228 c 1,38,-1
 438 231 l 2,39,40
 424 231 424 231 401 230.5 c 128,-1,41
 378 230 378 230 368 230 c 1,42,43
 394 98 394 98 408 54 c 1,44,-1
 481 50 l 1,45,-1
 601 55 l 1,46,47
 651 55 651 55 651 20 c 128,-1,48
 651 -15 651 -15 601 -15 c 1,49,-1
 481 -10 l 1,50,51
 446 -10 446 -10 423 -12.5 c 128,-1,52
 400 -15 400 -15 396 -15 c 0,53,54
 361 -15 361 -15 352 24 c 2,55,-1
 326 140 l 1,0,-1
177 201 m 1,56,-1
 310 201 l 1,57,58
 306 221 306 221 288.5 321 c 128,-1,59
 271 421 271 421 266.5 421 c 128,-1,60
 262 421 262 421 245 380 c 128,-1,61
 228 339 228 339 205 276.5 c 128,-1,62
 182 214 182 214 177 201 c 1,56,-1
EndSplineSet
EndChar

StartChar: Ccedilla
Encoding: 199 199 136
Width: 509
GlyphClass: 2
Flags: W
LayerCount: 2
Fore
SplineSet
398 -137 m 0,0,1
 398 -177 398 -177 363 -203.5 c 128,-1,2
 328 -230 328 -230 279 -230 c 128,-1,3
 230 -230 230 -230 200 -207 c 128,-1,4
 170 -184 170 -184 170 -160 c 0,5,6
 170 -153 170 -153 175 -147 c 128,-1,7
 180 -141 180 -141 188 -141 c 128,-1,8
 196 -141 196 -141 222.5 -153.5 c 128,-1,9
 249 -166 249 -166 271.5 -166 c 128,-1,10
 294 -166 294 -166 309.5 -157 c 128,-1,11
 325 -148 325 -148 325 -136 c 128,-1,12
 325 -124 325 -124 310 -112 c 128,-1,13
 295 -100 295 -100 277 -89 c 128,-1,14
 259 -78 259 -78 244 -56 c 128,-1,15
 229 -34 229 -34 229 -6 c 1,16,17
 147 15 147 15 96.5 86 c 128,-1,18
 46 157 46 157 46 258.5 c 128,-1,19
 46 360 46 360 116.5 437.5 c 128,-1,20
 187 515 187 515 302 515 c 0,21,22
 365 515 365 515 413.5 486.5 c 128,-1,23
 462 458 462 458 462 428 c 0,24,25
 462 412 462 412 452 401.5 c 128,-1,26
 442 391 442 391 429 391 c 128,-1,27
 416 391 416 391 399 406 c 1,28,29
 330 446 330 446 293 450 c 1,30,31
 224 450 224 450 172.5 392 c 128,-1,32
 121 334 121 334 121 251 c 128,-1,33
 121 168 121 168 173 109 c 128,-1,34
 225 50 225 50 302 50 c 0,35,36
 361 50 361 50 417 90 c 0,37,38
 436 103 436 103 446 103 c 0,39,40
 471 103 471 103 471 76.5 c 128,-1,41
 471 50 471 50 414 18 c 128,-1,42
 357 -14 357 -14 293 -15 c 1,43,44
 296 -43 296 -43 348 -70 c 0,45,46
 367 -80 367 -80 382.5 -97.5 c 128,-1,47
 398 -115 398 -115 398 -137 c 0,0,1
EndSplineSet
EndChar

StartChar: Eacute
Encoding: 201 201 138
Width: 475
GlyphClass: 2
Flags: W
LayerCount: 2
Fore
SplineSet
82 454 m 2,0,1
 82 475 82 475 94.5 490 c 128,-1,2
 107 505 107 505 134 505 c 1,3,-1
 264 500 l 1,4,-1
 384 505 l 1,5,6
 434 505 434 505 434 470 c 128,-1,7
 434 435 434 435 384 435 c 1,8,-1
 264 440 l 2,9,10
 258 440 258 440 158 436 c 1,11,-1
 153 281 l 1,12,13
 175 280 175 280 226 280 c 1,14,-1
 346 285 l 1,15,16
 396 285 396 285 396 250 c 128,-1,17
 396 215 396 215 346 215 c 1,18,-1
 226 220 l 1,19,-1
 153 219 l 1,20,-1
 158 59 l 1,21,22
 258 55 258 55 264 55 c 2,23,-1
 384 60 l 1,24,25
 434 60 434 60 434 25 c 128,-1,26
 434 -10 434 -10 384 -10 c 1,27,-1
 264 -5 l 1,28,-1
 134 -10 l 1,29,30
 105 -10 105 -10 93.5 2.5 c 128,-1,31
 82 15 82 15 82 41 c 2,32,-1
 87 216 l 1,33,34
 36 216 36 216 36 250.5 c 128,-1,35
 36 285 36 285 87 285 c 1,36,-1
 82 454 l 2,0,1
351 692 m 0,37,38
 351 649 351 649 305.5 606 c 128,-1,39
 260 563 260 563 233 563 c 128,-1,40
 206 563 206 563 206 584 c 0,41,42
 206 596 206 596 222 614 c 128,-1,43
 238 632 238 632 245.5 641.5 c 128,-1,44
 253 651 253 651 263.5 676.5 c 128,-1,45
 274 702 274 702 285.5 716 c 128,-1,46
 297 730 297 730 315 730 c 128,-1,47
 333 730 333 730 342 718.5 c 128,-1,48
 351 707 351 707 351 692 c 0,37,38
EndSplineSet
EndChar

StartChar: Edieresis
Encoding: 203 203 140
Width: 475
GlyphClass: 2
Flags: W
LayerCount: 2
Fore
SplineSet
82 454 m 2,0,1
 82 475 82 475 94.5 490 c 128,-1,2
 107 505 107 505 134 505 c 1,3,-1
 264 500 l 1,4,-1
 384 505 l 1,5,6
 434 505 434 505 434 470 c 128,-1,7
 434 435 434 435 384 435 c 1,8,-1
 264 440 l 2,9,10
 258 440 258 440 158 436 c 1,11,-1
 153 281 l 1,12,13
 175 280 175 280 226 280 c 1,14,-1
 346 285 l 1,15,16
 396 285 396 285 396 250 c 128,-1,17
 396 215 396 215 346 215 c 1,18,-1
 226 220 l 1,19,-1
 153 219 l 1,20,-1
 158 59 l 1,21,22
 258 55 258 55 264 55 c 2,23,-1
 384 60 l 1,24,25
 434 60 434 60 434 25 c 128,-1,26
 434 -10 434 -10 384 -10 c 1,27,-1
 264 -5 l 1,28,-1
 134 -10 l 1,29,30
 105 -10 105 -10 93.5 2.5 c 128,-1,31
 82 15 82 15 82 41 c 2,32,-1
 87 216 l 1,33,34
 36 216 36 216 36 250.5 c 128,-1,35
 36 285 36 285 87 285 c 1,36,-1
 82 454 l 2,0,1
175 581 m 0,37,38
 133 581 133 581 133 632 c 0,39,40
 133 655 133 655 147.5 672.5 c 128,-1,41
 162 690 162 690 183 690 c 128,-1,42
 204 690 204 690 214 676.5 c 128,-1,43
 224 663 224 663 224 642.5 c 128,-1,44
 224 622 224 622 210 601.5 c 128,-1,45
 196 581 196 581 175 581 c 0,37,38
335 581 m 0,46,47
 293 581 293 581 293 632 c 0,48,49
 293 655 293 655 307.5 672.5 c 128,-1,50
 322 690 322 690 343 690 c 128,-1,51
 364 690 364 690 374 676.5 c 128,-1,52
 384 663 384 663 384 642.5 c 128,-1,53
 384 622 384 622 370 601.5 c 128,-1,54
 356 581 356 581 335 581 c 0,46,47
EndSplineSet
EndChar

StartChar: Iacute
Encoding: 205 205 142
Width: 436
GlyphClass: 2
Flags: W
LayerCount: 2
Fore
SplineSet
348 -4 m 1,0,-1
 218 0 l 1,1,-1
 88 -4 l 1,2,3
 38 -4 38 -4 38 30.5 c 128,-1,4
 38 65 38 65 88 65 c 0,5,6
 95 65 95 65 180 60 c 1,7,8
 185 245 185 245 185 249.5 c 128,-1,9
 185 254 185 254 180 439 c 1,10,11
 114 436 114 436 88 436 c 0,12,13
 38 436 38 436 38 470 c 128,-1,14
 38 504 38 504 88 504 c 1,15,-1
 221 500 l 1,16,-1
 348 504 l 1,17,18
 398 504 398 504 398 471 c 0,19,20
 398 436 398 436 348 436 c 0,21,22
 322 436 322 436 256 439 c 1,23,24
 251 254 251 254 251 249.5 c 128,-1,25
 251 245 251 245 256 60 c 1,26,27
 341 65 341 65 348 65 c 0,28,29
 398 65 398 65 398 30.5 c 128,-1,30
 398 -4 398 -4 348 -4 c 1,0,-1
310 692 m 0,31,32
 310 649 310 649 264.5 606 c 128,-1,33
 219 563 219 563 192 563 c 128,-1,34
 165 563 165 563 165 584 c 0,35,36
 165 596 165 596 181 614 c 128,-1,37
 197 632 197 632 204.5 641.5 c 128,-1,38
 212 651 212 651 222.5 676.5 c 128,-1,39
 233 702 233 702 244.5 716 c 128,-1,40
 256 730 256 730 274 730 c 128,-1,41
 292 730 292 730 301 718.5 c 128,-1,42
 310 707 310 707 310 692 c 0,31,32
EndSplineSet
EndChar

StartChar: Idieresis
Encoding: 207 207 144
Width: 436
GlyphClass: 2
Flags: W
LayerCount: 2
Fore
SplineSet
348 -4 m 1,0,-1
 218 0 l 1,1,-1
 88 -4 l 1,2,3
 38 -4 38 -4 38 30.5 c 128,-1,4
 38 65 38 65 88 65 c 0,5,6
 95 65 95 65 180 60 c 1,7,8
 185 245 185 245 185 249.5 c 128,-1,9
 185 254 185 254 180 439 c 1,10,11
 114 436 114 436 88 436 c 0,12,13
 38 436 38 436 38 470 c 128,-1,14
 38 504 38 504 88 504 c 1,15,-1
 221 500 l 1,16,-1
 348 504 l 1,17,18
 398 504 398 504 398 471 c 0,19,20
 398 436 398 436 348 436 c 0,21,22
 322 436 322 436 256 439 c 1,23,24
 251 254 251 254 251 249.5 c 128,-1,25
 251 245 251 245 256 60 c 1,26,27
 341 65 341 65 348 65 c 0,28,29
 398 65 398 65 398 30.5 c 128,-1,30
 398 -4 398 -4 348 -4 c 1,0,-1
134 581 m 0,31,32
 92 581 92 581 92 632 c 0,33,34
 92 655 92 655 106.5 672.5 c 128,-1,35
 121 690 121 690 142 690 c 128,-1,36
 163 690 163 690 173 676.5 c 128,-1,37
 183 663 183 663 183 642.5 c 128,-1,38
 183 622 183 622 169 601.5 c 128,-1,39
 155 581 155 581 134 581 c 0,31,32
294 581 m 0,40,41
 252 581 252 581 252 632 c 0,42,43
 252 655 252 655 266.5 672.5 c 128,-1,44
 281 690 281 690 302 690 c 128,-1,45
 323 690 323 690 333 676.5 c 128,-1,46
 343 663 343 663 343 642.5 c 128,-1,47
 343 622 343 622 329 601.5 c 128,-1,48
 315 581 315 581 294 581 c 0,40,41
EndSplineSet
EndChar

StartChar: Eth
Encoding: 208 208 145
Width: 572
GlyphClass: 2
Flags: W
LayerCount: 2
Fore
SplineSet
101 290 m 1,0,-1
 96 455 l 2,1,2
 96 477 96 477 102 486 c 0,3,4
 115 510 115 510 205.5 510 c 128,-1,5
 296 510 296 510 352.5 490 c 128,-1,6
 409 470 409 470 440.5 441 c 128,-1,7
 472 412 472 412 492 374 c 0,8,9
 527 311 527 311 527 248 c 0,10,11
 527 167 527 167 464 86 c 0,12,13
 432 44 432 44 369.5 17 c 128,-1,14
 307 -10 307 -10 225.5 -10 c 128,-1,15
 144 -10 144 -10 120.5 2 c 128,-1,16
 97 14 97 14 97 45 c 2,17,-1
 102 229 l 1,18,19
 48 227 48 227 36.5 227 c 128,-1,20
 25 227 25 227 13.5 236 c 128,-1,21
 2 245 2 245 2 260 c 128,-1,22
 2 275 2 275 13.5 284 c 128,-1,23
 25 293 25 293 42 293 c 128,-1,24
 59 293 59 293 101 290 c 1,0,-1
286.5 236 m 128,-1,26
 275 227 275 227 253 227 c 128,-1,27
 231 227 231 227 168 230 c 1,28,29
 168 213 168 213 172 61 c 1,30,-1
 234 55 l 1,31,32
 332 55 332 55 392.5 109.5 c 128,-1,33
 453 164 453 164 453 245 c 128,-1,34
 453 326 453 326 397 384.5 c 128,-1,35
 341 443 341 443 234 443 c 0,36,37
 203 443 203 443 173 437 c 1,38,39
 168 400 168 400 168 290 c 1,40,-1
 257 293 l 2,41,42
 275 293 275 293 286.5 284 c 128,-1,43
 298 275 298 275 298 260 c 128,-1,25
 298 245 298 245 286.5 236 c 128,-1,26
EndSplineSet
EndChar

StartChar: Ntilde
Encoding: 209 209 146
Width: 548
GlyphClass: 2
Flags: W
LayerCount: 2
Fore
SplineSet
74 460 m 1,0,1
 74 510 74 510 116 510 c 0,2,3
 137 510 137 510 154 484 c 2,4,-1
 401 126 l 1,5,6
 403 194 403 194 403 250 c 1,7,-1
 398 460 l 1,8,9
 398 510 398 510 436 510 c 128,-1,10
 474 510 474 510 474 460 c 1,11,-1
 469 250 l 1,12,-1
 474 40 l 1,13,14
 474 -10 474 -10 434 -10 c 0,15,16
 414 -10 414 -10 396 17 c 0,17,18
 388 29 388 29 329.5 111.5 c 128,-1,19
 271 194 271 194 229 254 c 128,-1,20
 187 314 187 314 147 366 c 1,21,22
 145 296 145 296 145 250 c 1,23,-1
 150 40 l 1,24,25
 150 -10 150 -10 112 -10 c 128,-1,26
 74 -10 74 -10 74 40 c 1,27,-1
 79 250 l 1,28,-1
 74 460 l 1,0,1
457 652 m 0,29,30
 457 618 457 618 431.5 592.5 c 128,-1,31
 406 567 406 567 371.5 567 c 128,-1,32
 337 567 337 567 289 594.5 c 128,-1,33
 241 622 241 622 220.5 622 c 128,-1,34
 200 622 200 622 186.5 607 c 128,-1,35
 173 592 173 592 161 576.5 c 128,-1,36
 149 561 149 561 134.5 561 c 128,-1,37
 120 561 120 561 110 572 c 128,-1,38
 100 583 100 583 100 597 c 0,39,40
 100 632 100 632 132 658.5 c 128,-1,41
 164 685 164 685 205.5 685 c 128,-1,42
 247 685 247 685 298.5 657 c 128,-1,43
 350 629 350 629 371.5 629 c 128,-1,44
 393 629 393 629 410 654.5 c 128,-1,45
 427 680 427 680 436 680 c 128,-1,46
 445 680 445 680 451 671.5 c 128,-1,47
 457 663 457 663 457 652 c 0,29,30
EndSplineSet
EndChar

StartChar: Oacute
Encoding: 211 211 148
Width: 564
GlyphClass: 2
Flags: W
LayerCount: 2
Fore
SplineSet
446 251 m 128,-1,1
 446 334 446 334 399.5 392 c 128,-1,2
 353 450 353 450 284 450 c 128,-1,3
 215 450 215 450 166.5 391 c 128,-1,4
 118 332 118 332 118 249 c 128,-1,5
 118 166 118 166 164.5 108 c 128,-1,6
 211 50 211 50 280 50 c 128,-1,7
 349 50 349 50 397.5 109 c 128,-1,0
 446 168 446 168 446 251 c 128,-1,1
451 438.5 m 128,-1,9
 517 362 517 362 517 251 c 128,-1,10
 517 140 517 140 450 62.5 c 128,-1,11
 383 -15 383 -15 281 -15 c 128,-1,12
 179 -15 179 -15 113 61.5 c 128,-1,13
 47 138 47 138 47 249 c 128,-1,14
 47 360 47 360 113.5 437.5 c 128,-1,15
 180 515 180 515 282.5 515 c 128,-1,8
 385 515 385 515 451 438.5 c 128,-1,9
384 692 m 0,16,17
 384 649 384 649 338.5 606 c 128,-1,18
 293 563 293 563 266 563 c 128,-1,19
 239 563 239 563 239 584 c 0,20,21
 239 596 239 596 255 614 c 128,-1,22
 271 632 271 632 278.5 641.5 c 128,-1,23
 286 651 286 651 296.5 676.5 c 128,-1,24
 307 702 307 702 318.5 716 c 128,-1,25
 330 730 330 730 348 730 c 128,-1,26
 366 730 366 730 375 718.5 c 128,-1,27
 384 707 384 707 384 692 c 0,16,17
EndSplineSet
EndChar

StartChar: Otilde
Encoding: 213 213 150
Width: 564
GlyphClass: 2
Flags: W
LayerCount: 2
Fore
SplineSet
446 251 m 128,-1,1
 446 334 446 334 399.5 392 c 128,-1,2
 353 450 353 450 284 450 c 128,-1,3
 215 450 215 450 166.5 391 c 128,-1,4
 118 332 118 332 118 249 c 128,-1,5
 118 166 118 166 164.5 108 c 128,-1,6
 211 50 211 50 280 50 c 128,-1,7
 349 50 349 50 397.5 109 c 128,-1,0
 446 168 446 168 446 251 c 128,-1,1
451 438.5 m 128,-1,9
 517 362 517 362 517 251 c 128,-1,10
 517 140 517 140 450 62.5 c 128,-1,11
 383 -15 383 -15 281 -15 c 128,-1,12
 179 -15 179 -15 113 61.5 c 128,-1,13
 47 138 47 138 47 249 c 128,-1,14
 47 360 47 360 113.5 437.5 c 128,-1,15
 180 515 180 515 282.5 515 c 128,-1,8
 385 515 385 515 451 438.5 c 128,-1,9
460 652 m 0,16,17
 460 618 460 618 434.5 592.5 c 128,-1,18
 409 567 409 567 374.5 567 c 128,-1,19
 340 567 340 567 292 594.5 c 128,-1,20
 244 622 244 622 223.5 622 c 128,-1,21
 203 622 203 622 189.5 607 c 128,-1,22
 176 592 176 592 164 576.5 c 128,-1,23
 152 561 152 561 137.5 561 c 128,-1,24
 123 561 123 561 113 572 c 128,-1,25
 103 583 103 583 103 597 c 0,26,27
 103 632 103 632 135 658.5 c 128,-1,28
 167 685 167 685 208.5 685 c 128,-1,29
 250 685 250 685 301.5 657 c 128,-1,30
 353 629 353 629 374.5 629 c 128,-1,31
 396 629 396 629 413 654.5 c 128,-1,32
 430 680 430 680 439 680 c 128,-1,33
 448 680 448 680 454 671.5 c 128,-1,34
 460 663 460 663 460 652 c 0,16,17
EndSplineSet
EndChar

StartChar: multiply
Encoding: 215 215 152
Width: 474
GlyphClass: 2
Flags: W
LayerCount: 2
Fore
SplineSet
406 435.5 m 128,-1,1
 416 426 416 426 416 412.5 c 128,-1,2
 416 399 416 399 406.5 388.5 c 128,-1,3
 397 378 397 378 350.5 333 c 128,-1,4
 304 288 304 288 278 260 c 1,5,6
 306 231 306 231 353 185 c 128,-1,7
 400 139 400 139 409.5 129.5 c 128,-1,8
 419 120 419 120 419 106.5 c 128,-1,9
 419 93 419 93 409.5 83 c 128,-1,10
 400 73 400 73 386 73 c 128,-1,11
 372 73 372 73 360.5 84 c 128,-1,12
 349 95 349 95 319 128 c 128,-1,13
 289 161 289 161 237 216 c 1,14,15
 128 97 128 97 115 84.5 c 128,-1,16
 102 72 102 72 88 72 c 128,-1,17
 74 72 74 72 64.5 82 c 128,-1,18
 55 92 55 92 55 105.5 c 128,-1,19
 55 119 55 119 64.5 128.5 c 128,-1,20
 74 138 74 138 121 184 c 128,-1,21
 168 230 168 230 196 259 c 1,22,23
 170 287 170 287 123.5 332 c 128,-1,24
 77 377 77 377 67.5 387.5 c 128,-1,25
 58 398 58 398 58 411.5 c 128,-1,26
 58 425 58 425 68 434.5 c 128,-1,27
 78 444 78 444 92 444 c 128,-1,28
 106 444 106 444 117.5 432.5 c 128,-1,29
 129 421 129 421 169.5 376.5 c 128,-1,30
 210 332 210 332 237 304 c 1,31,32
 337 414 337 414 352.5 429.5 c 128,-1,33
 368 445 368 445 382 445 c 128,-1,0
 396 445 396 445 406 435.5 c 128,-1,1
EndSplineSet
EndChar

StartChar: Oslash
Encoding: 216 216 153
Width: 564
GlyphClass: 2
Flags: W
LayerCount: 2
Fore
SplineSet
517 250 m 0,0,1
 517 140 517 140 450 62.5 c 128,-1,2
 383 -15 383 -15 282 -15 c 0,3,4
 254 -15 254 -15 218 -6 c 1,5,-1
 200 -56 l 1,6,7
 186 -91 186 -91 159 -91 c 0,8,9
 144 -91 144 -91 134 -80 c 128,-1,10
 124 -69 124 -69 124 -54 c 128,-1,11
 124 -39 124 -39 151 26 c 1,12,13
 102 61 102 61 74.5 120 c 128,-1,14
 47 179 47 179 47 250 c 0,15,16
 47 360 47 360 113.5 437.5 c 128,-1,17
 180 515 180 515 281 515 c 0,18,19
 314 515 314 515 344 506 c 1,20,21
 348 520 348 520 362 553.5 c 128,-1,22
 376 587 376 587 402 587 c 0,23,24
 417 587 417 587 427 576.5 c 128,-1,25
 437 566 437 566 437 549 c 128,-1,26
 437 532 437 532 411 474 c 1,27,28
 461 439 461 439 489 380 c 128,-1,29
 517 321 517 321 517 250 c 0,0,1
397.5 109 m 128,-1,31
 446 168 446 168 446 259 c 128,-1,32
 446 350 446 350 383 410 c 1,33,34
 322 269 322 269 241 55 c 1,35,36
 263 50 263 50 281 50 c 0,37,30
 349 50 349 50 397.5 109 c 128,-1,31
180 91 m 1,38,39
 254 260 254 260 322 444 c 1,40,41
 304 450 304 450 283 450 c 0,42,43
 215 450 215 450 166.5 391 c 128,-1,44
 118 332 118 332 118 240 c 128,-1,45
 118 148 118 148 180 91 c 1,38,39
EndSplineSet
EndChar

StartChar: Uacute
Encoding: 218 218 155
Width: 585
GlyphClass: 2
Flags: W
LayerCount: 2
Fore
SplineSet
152 428 m 1,0,-1
 144 208 l 1,1,2
 144 140 144 140 173 97.5 c 128,-1,3
 202 55 202 55 253.5 55 c 128,-1,4
 305 55 305 55 353 112.5 c 128,-1,5
 401 170 401 170 420 242 c 1,6,-1
 417 459 l 2,7,8
 417 510 417 510 455 510 c 0,9,10
 501 510 501 510 501 439.5 c 128,-1,11
 501 369 501 369 481 242 c 1,12,13
 481 167 481 167 492 119.5 c 128,-1,14
 503 72 503 72 518 66 c 0,15,16
 524 63 524 63 532.5 62 c 128,-1,17
 541 61 541 61 544.5 59 c 128,-1,18
 548 57 548 57 548 51 c 0,19,20
 548 24 548 24 531.5 7 c 128,-1,21
 515 -10 515 -10 490 -10 c 0,22,23
 427 -10 427 -10 427 118 c 1,24,25
 353 -10 353 -10 241 -10 c 0,26,27
 161 -10 161 -10 117 49.5 c 128,-1,28
 73 109 73 109 73 195 c 1,29,-1
 79 346 l 1,30,31
 79 386 79 386 71 420.5 c 128,-1,32
 63 455 63 455 63 470 c 128,-1,33
 63 485 63 485 75 497.5 c 128,-1,34
 87 510 87 510 106 510 c 0,35,36
 152 510 152 510 152 428 c 1,0,-1
385 692 m 0,37,38
 385 649 385 649 339.5 606 c 128,-1,39
 294 563 294 563 267 563 c 128,-1,40
 240 563 240 563 240 584 c 0,41,42
 240 596 240 596 256 614 c 128,-1,43
 272 632 272 632 279.5 641.5 c 128,-1,44
 287 651 287 651 297.5 676.5 c 128,-1,45
 308 702 308 702 319.5 716 c 128,-1,46
 331 730 331 730 349 730 c 128,-1,47
 367 730 367 730 376 718.5 c 128,-1,48
 385 707 385 707 385 692 c 0,37,38
EndSplineSet
EndChar

StartChar: Udieresis
Encoding: 220 220 157
Width: 585
GlyphClass: 2
Flags: W
LayerCount: 2
Fore
SplineSet
152 428 m 1,0,-1
 144 208 l 1,1,2
 144 140 144 140 173 97.5 c 128,-1,3
 202 55 202 55 253.5 55 c 128,-1,4
 305 55 305 55 353 112.5 c 128,-1,5
 401 170 401 170 420 242 c 1,6,-1
 417 459 l 2,7,8
 417 510 417 510 455 510 c 0,9,10
 501 510 501 510 501 439.5 c 128,-1,11
 501 369 501 369 481 242 c 1,12,13
 481 167 481 167 492 119.5 c 128,-1,14
 503 72 503 72 518 66 c 0,15,16
 524 63 524 63 532.5 62 c 128,-1,17
 541 61 541 61 544.5 59 c 128,-1,18
 548 57 548 57 548 51 c 0,19,20
 548 24 548 24 531.5 7 c 128,-1,21
 515 -10 515 -10 490 -10 c 0,22,23
 427 -10 427 -10 427 118 c 1,24,25
 353 -10 353 -10 241 -10 c 0,26,27
 161 -10 161 -10 117 49.5 c 128,-1,28
 73 109 73 109 73 195 c 1,29,-1
 79 346 l 1,30,31
 79 386 79 386 71 420.5 c 128,-1,32
 63 455 63 455 63 470 c 128,-1,33
 63 485 63 485 75 497.5 c 128,-1,34
 87 510 87 510 106 510 c 0,35,36
 152 510 152 510 152 428 c 1,0,-1
209 581 m 0,37,38
 167 581 167 581 167 632 c 0,39,40
 167 655 167 655 181.5 672.5 c 128,-1,41
 196 690 196 690 217 690 c 128,-1,42
 238 690 238 690 248 676.5 c 128,-1,43
 258 663 258 663 258 642.5 c 128,-1,44
 258 622 258 622 244 601.5 c 128,-1,45
 230 581 230 581 209 581 c 0,37,38
369 581 m 0,46,47
 327 581 327 581 327 632 c 0,48,49
 327 655 327 655 341.5 672.5 c 128,-1,50
 356 690 356 690 377 690 c 128,-1,51
 398 690 398 690 408 676.5 c 128,-1,52
 418 663 418 663 418 642.5 c 128,-1,53
 418 622 418 622 404 601.5 c 128,-1,54
 390 581 390 581 369 581 c 0,46,47
EndSplineSet
EndChar

StartChar: Thorn
Encoding: 222 222 159
Width: 543
GlyphClass: 2
Flags: W
LayerCount: 2
Fore
SplineSet
79 375 m 1,0,-1
 74 710 l 2,1,2
 74 760 74 760 112 760 c 128,-1,3
 150 760 150 760 150 710 c 0,4,5
 150 692 150 692 147 605 c 1,6,7
 195 622 195 622 265 622 c 0,8,9
 377 622 377 622 446 562 c 128,-1,10
 515 502 515 502 515 411.5 c 128,-1,11
 515 321 515 321 446 261 c 128,-1,12
 377 201 377 201 264 201 c 0,13,14
 194 201 194 201 146 218 c 1,15,-1
 150 40 l 1,16,17
 150 -10 150 -10 112 -10 c 128,-1,18
 74 -10 74 -10 74 40 c 2,19,-1
 79 375 l 1,0,-1
390.5 304.5 m 128,-1,21
 440 345 440 345 440 411.5 c 128,-1,22
 440 478 440 478 391 518.5 c 128,-1,23
 342 559 342 559 271 559 c 128,-1,24
 200 559 200 559 148 543 c 1,25,26
 146 501 146 501 146 411.5 c 128,-1,27
 146 322 146 322 147 280 c 1,28,29
 199 264 199 264 270 264 c 128,-1,20
 341 264 341 264 390.5 304.5 c 128,-1,21
EndSplineSet
EndChar

StartChar: germandbls
Encoding: 223 223 160
Width: 520
GlyphClass: 2
Flags: W
LayerCount: 2
Fore
SplineSet
352 55 m 0,0,1
 418 55 418 55 418 96 c 0,2,3
 418 117 418 117 391 135 c 128,-1,4
 364 153 364 153 332 163 c 128,-1,5
 300 173 300 173 273 196.5 c 128,-1,6
 246 220 246 220 246 250.5 c 128,-1,7
 246 281 246 281 263 301.5 c 128,-1,8
 280 322 280 322 301 332 c 0,9,10
 356 360 356 360 356 386 c 0,11,12
 356 414 356 414 335.5 432 c 128,-1,13
 315 450 315 450 280.5 450 c 128,-1,14
 246 450 246 450 211.5 418.5 c 128,-1,15
 177 387 177 387 177 326 c 0,16,17
 177 160 177 160 180 101 c 128,-1,18
 183 42 183 42 183 41 c 0,19,20
 183 18 183 18 172.5 4 c 128,-1,21
 162 -10 162 -10 144 -10 c 128,-1,22
 126 -10 126 -10 115.5 4 c 128,-1,23
 105 18 105 18 105 32 c 128,-1,24
 105 46 105 46 108 105 c 128,-1,25
 111 164 111 164 111 255 c 2,26,-1
 111 292 l 1,27,-1
 60 290 l 1,28,29
 22 290 22 290 22 320 c 0,30,31
 22 336 22 336 33 344 c 128,-1,32
 44 352 44 352 60 352 c 2,33,-1
 110 351 l 1,34,35
 110 393 110 393 127.5 425.5 c 128,-1,36
 145 458 145 458 172 476 c 0,37,38
 225 510 225 510 278 510 c 0,39,40
 355 510 355 510 392 468.5 c 128,-1,41
 429 427 429 427 429 383 c 0,42,43
 429 356 429 356 411.5 334.5 c 128,-1,44
 394 313 394 313 373 301 c 128,-1,45
 352 289 352 289 334.5 277 c 128,-1,46
 317 265 317 265 317 255 c 128,-1,47
 317 245 317 245 344 230.5 c 128,-1,48
 371 216 371 216 403.5 202 c 128,-1,49
 436 188 436 188 463 159 c 128,-1,50
 490 130 490 130 490 89 c 128,-1,51
 490 48 490 48 451 19 c 128,-1,52
 412 -10 412 -10 358.5 -10 c 128,-1,53
 305 -10 305 -10 267.5 18.5 c 128,-1,54
 230 47 230 47 230 76 c 0,55,56
 230 110 230 110 263 110 c 0,57,58
 274 110 274 110 299 82.5 c 128,-1,59
 324 55 324 55 352 55 c 0,0,1
EndSplineSet
EndChar

StartChar: aacute
Encoding: 225 225 162
Width: 571
GlyphClass: 2
Flags: W
LayerCount: 2
Fore
SplineSet
467 242 m 1,0,1
 467 167 467 167 478 119.5 c 128,-1,2
 489 72 489 72 504 66 c 0,3,4
 510 63 510 63 518.5 62 c 128,-1,5
 527 61 527 61 530.5 59 c 128,-1,6
 534 57 534 57 534 51 c 0,7,8
 534 24 534 24 519.5 7 c 128,-1,9
 505 -10 505 -10 476 -10 c 128,-1,10
 447 -10 447 -10 431 27 c 128,-1,11
 415 64 415 64 415 122 c 1,12,13
 390 66 390 66 341.5 28 c 128,-1,14
 293 -10 293 -10 232.5 -10 c 128,-1,15
 172 -10 172 -10 128 30 c 0,16,17
 48 103 48 103 48 239 c 0,18,19
 48 348 48 348 111 429 c 128,-1,20
 174 510 174 510 273 510 c 0,21,22
 348 510 348 510 403 459 c 1,23,24
 403 510 403 510 441 510 c 0,25,26
 487 510 487 510 487 439.5 c 128,-1,27
 487 369 487 369 467 242 c 1,0,1
409 233 m 1,28,-1
 404 387 l 1,29,30
 344 445 344 445 278.5 445 c 128,-1,31
 213 445 213 445 166 386 c 128,-1,32
 119 327 119 327 119 244.5 c 128,-1,33
 119 162 119 162 149.5 108.5 c 128,-1,34
 180 55 180 55 236 55 c 128,-1,35
 292 55 292 55 338 105 c 128,-1,36
 384 155 384 155 409 233 c 1,28,-1
388 692 m 0,37,38
 388 649 388 649 342.5 606 c 128,-1,39
 297 563 297 563 270 563 c 128,-1,40
 243 563 243 563 243 584 c 0,41,42
 243 596 243 596 259 614 c 128,-1,43
 275 632 275 632 282.5 641.5 c 128,-1,44
 290 651 290 651 300.5 676.5 c 128,-1,45
 311 702 311 702 322.5 716 c 128,-1,46
 334 730 334 730 352 730 c 128,-1,47
 370 730 370 730 379 718.5 c 128,-1,48
 388 707 388 707 388 692 c 0,37,38
EndSplineSet
EndChar

StartChar: acircumflex
Encoding: 226 226 163
Width: 571
GlyphClass: 2
Flags: W
LayerCount: 2
Fore
SplineSet
467 242 m 1,0,1
 467 167 467 167 478 119.5 c 128,-1,2
 489 72 489 72 504 66 c 0,3,4
 510 63 510 63 518.5 62 c 128,-1,5
 527 61 527 61 530.5 59 c 128,-1,6
 534 57 534 57 534 51 c 0,7,8
 534 24 534 24 519.5 7 c 128,-1,9
 505 -10 505 -10 476 -10 c 128,-1,10
 447 -10 447 -10 431 27 c 128,-1,11
 415 64 415 64 415 122 c 1,12,13
 390 66 390 66 341.5 28 c 128,-1,14
 293 -10 293 -10 232.5 -10 c 128,-1,15
 172 -10 172 -10 128 30 c 0,16,17
 48 103 48 103 48 239 c 0,18,19
 48 348 48 348 111 429 c 128,-1,20
 174 510 174 510 273 510 c 0,21,22
 348 510 348 510 403 459 c 1,23,24
 403 510 403 510 441 510 c 0,25,26
 487 510 487 510 487 439.5 c 128,-1,27
 487 369 487 369 467 242 c 1,0,1
409 233 m 1,28,-1
 404 387 l 1,29,30
 344 445 344 445 278.5 445 c 128,-1,31
 213 445 213 445 166 386 c 128,-1,32
 119 327 119 327 119 244.5 c 128,-1,33
 119 162 119 162 149.5 108.5 c 128,-1,34
 180 55 180 55 236 55 c 128,-1,35
 292 55 292 55 338 105 c 128,-1,36
 384 155 384 155 409 233 c 1,28,-1
427 603.5 m 128,-1,38
 431 596 431 596 431 585.5 c 128,-1,39
 431 575 431 575 422 566.5 c 128,-1,40
 413 558 413 558 400.5 558 c 128,-1,41
 388 558 388 558 377 567 c 128,-1,42
 366 576 366 576 355.5 590.5 c 128,-1,43
 345 605 345 605 341 608 c 1,44,45
 301 656 301 656 285.5 656 c 128,-1,46
 270 656 270 656 230 608 c 1,47,48
 226 605 226 605 216 590 c 1,49,50
 192 558 192 558 175 558 c 128,-1,51
 158 558 158 558 149 566.5 c 128,-1,52
 140 575 140 575 140 585.5 c 128,-1,53
 140 596 140 596 144.5 603.5 c 128,-1,54
 149 611 149 611 153.5 615.5 c 128,-1,55
 158 620 158 620 171.5 631.5 c 128,-1,56
 185 643 185 643 197 654.5 c 128,-1,57
 209 666 209 666 226.5 689 c 128,-1,58
 244 712 244 712 255.5 721 c 128,-1,59
 267 730 267 730 285 730 c 128,-1,60
 303 730 303 730 315 721 c 128,-1,61
 327 712 327 712 345 689 c 128,-1,62
 363 666 363 666 375 654.5 c 128,-1,63
 387 643 387 643 400 631.5 c 128,-1,64
 413 620 413 620 418 615.5 c 128,-1,37
 423 611 423 611 427 603.5 c 128,-1,38
EndSplineSet
EndChar

StartChar: adieresis
Encoding: 228 228 165
Width: 571
GlyphClass: 2
Flags: W
LayerCount: 2
Fore
SplineSet
467 242 m 1,0,1
 467 167 467 167 478 119.5 c 128,-1,2
 489 72 489 72 504 66 c 0,3,4
 510 63 510 63 518.5 62 c 128,-1,5
 527 61 527 61 530.5 59 c 128,-1,6
 534 57 534 57 534 51 c 0,7,8
 534 24 534 24 519.5 7 c 128,-1,9
 505 -10 505 -10 476 -10 c 128,-1,10
 447 -10 447 -10 431 27 c 128,-1,11
 415 64 415 64 415 122 c 1,12,13
 390 66 390 66 341.5 28 c 128,-1,14
 293 -10 293 -10 232.5 -10 c 128,-1,15
 172 -10 172 -10 128 30 c 0,16,17
 48 103 48 103 48 239 c 0,18,19
 48 348 48 348 111 429 c 128,-1,20
 174 510 174 510 273 510 c 0,21,22
 348 510 348 510 403 459 c 1,23,24
 403 510 403 510 441 510 c 0,25,26
 487 510 487 510 487 439.5 c 128,-1,27
 487 369 487 369 467 242 c 1,0,1
409 233 m 1,28,-1
 404 387 l 1,29,30
 344 445 344 445 278.5 445 c 128,-1,31
 213 445 213 445 166 386 c 128,-1,32
 119 327 119 327 119 244.5 c 128,-1,33
 119 162 119 162 149.5 108.5 c 128,-1,34
 180 55 180 55 236 55 c 128,-1,35
 292 55 292 55 338 105 c 128,-1,36
 384 155 384 155 409 233 c 1,28,-1
202 581 m 0,37,38
 160 581 160 581 160 632 c 0,39,40
 160 655 160 655 174.5 672.5 c 128,-1,41
 189 690 189 690 210 690 c 128,-1,42
 231 690 231 690 241 676.5 c 128,-1,43
 251 663 251 663 251 642.5 c 128,-1,44
 251 622 251 622 237 601.5 c 128,-1,45
 223 581 223 581 202 581 c 0,37,38
362 581 m 0,46,47
 320 581 320 581 320 632 c 0,48,49
 320 655 320 655 334.5 672.5 c 128,-1,50
 349 690 349 690 370 690 c 128,-1,51
 391 690 391 690 401 676.5 c 128,-1,52
 411 663 411 663 411 642.5 c 128,-1,53
 411 622 411 622 397 601.5 c 128,-1,54
 383 581 383 581 362 581 c 0,46,47
EndSplineSet
EndChar

StartChar: ae
Encoding: 230 230 167
Width: 838
GlyphClass: 2
Flags: W
LayerCount: 2
Fore
SplineSet
144 220.5 m 128,-1,1
 111 190 111 190 111 148.5 c 128,-1,2
 111 107 111 107 144 79 c 128,-1,3
 177 51 177 51 228.5 51 c 128,-1,4
 280 51 280 51 324.5 97.5 c 128,-1,5
 369 144 369 144 369 227 c 1,6,7
 302 251 302 251 239.5 251 c 128,-1,0
 177 251 177 251 144 220.5 c 128,-1,1
738.5 470 m 128,-1,9
 789 425 789 425 789 353 c 128,-1,10
 789 281 789 281 726.5 243.5 c 128,-1,11
 664 206 664 206 582.5 206 c 128,-1,12
 501 206 501 206 446 217 c 1,13,14
 452 149 452 149 498.5 99.5 c 128,-1,15
 545 50 545 50 602 50 c 0,16,17
 636 50 636 50 665 59.5 c 128,-1,18
 694 69 694 69 726 91 c 128,-1,19
 758 113 758 113 761 111 c 1,20,21
 774 111 774 111 781.5 103.5 c 128,-1,22
 789 96 789 96 789 85 c 0,23,24
 789 57 789 57 731.5 21 c 128,-1,25
 674 -15 674 -15 607 -15 c 0,26,27
 473 -15 473 -15 409 106 c 1,28,29
 347 -15 347 -15 218 -15 c 0,30,31
 143 -15 143 -15 91.5 31.5 c 128,-1,32
 40 78 40 78 40 149 c 128,-1,33
 40 220 40 220 93.5 268 c 128,-1,34
 147 316 147 316 215.5 316 c 128,-1,35
 284 316 284 316 371 291 c 1,36,37
 371 376 371 376 334.5 412.5 c 128,-1,38
 298 449 298 449 241 449 c 0,39,40
 213 449 213 449 190 440 c 128,-1,41
 167 431 167 431 155 420 c 0,42,43
 124 390 124 390 106 390 c 0,44,45
 72 390 72 390 72 421.5 c 128,-1,46
 72 453 72 453 123 484 c 128,-1,47
 174 515 174 515 239.5 515 c 128,-1,48
 305 515 305 515 351.5 484.5 c 128,-1,49
 398 454 398 454 422 404 c 1,50,51
 494 515 494 515 616 515 c 0,52,8
 688 515 688 515 738.5 470 c 128,-1,9
677.5 292 m 128,-1,54
 718 315 718 315 718 354 c 128,-1,55
 718 393 718 393 691.5 421.5 c 128,-1,56
 665 450 665 450 616 450 c 0,57,58
 550 450 550 450 505 399.5 c 128,-1,59
 460 349 460 349 447 282 c 1,60,61
 499 269 499 269 568 269 c 128,-1,53
 637 269 637 269 677.5 292 c 128,-1,54
EndSplineSet
EndChar

StartChar: ccedilla
Encoding: 231 231 168
Width: 509
GlyphClass: 2
Flags: W
LayerCount: 2
Fore
SplineSet
398 -137 m 0,0,1
 398 -177 398 -177 363 -203.5 c 128,-1,2
 328 -230 328 -230 279 -230 c 128,-1,3
 230 -230 230 -230 200 -207 c 128,-1,4
 170 -184 170 -184 170 -160 c 0,5,6
 170 -153 170 -153 175 -147 c 128,-1,7
 180 -141 180 -141 188 -141 c 128,-1,8
 196 -141 196 -141 222.5 -153.5 c 128,-1,9
 249 -166 249 -166 271.5 -166 c 128,-1,10
 294 -166 294 -166 309.5 -157 c 128,-1,11
 325 -148 325 -148 325 -136 c 128,-1,12
 325 -124 325 -124 310 -112 c 128,-1,13
 295 -100 295 -100 277 -89 c 128,-1,14
 259 -78 259 -78 244 -56 c 128,-1,15
 229 -34 229 -34 229 -6 c 1,16,17
 147 15 147 15 96.5 86 c 128,-1,18
 46 157 46 157 46 258.5 c 128,-1,19
 46 360 46 360 116.5 437.5 c 128,-1,20
 187 515 187 515 302 515 c 0,21,22
 365 515 365 515 413.5 486.5 c 128,-1,23
 462 458 462 458 462 428 c 0,24,25
 462 412 462 412 452 401.5 c 128,-1,26
 442 391 442 391 429 391 c 128,-1,27
 416 391 416 391 399 406 c 1,28,29
 330 446 330 446 293 450 c 1,30,31
 224 450 224 450 172.5 392 c 128,-1,32
 121 334 121 334 121 251 c 128,-1,33
 121 168 121 168 173 109 c 128,-1,34
 225 50 225 50 302 50 c 0,35,36
 361 50 361 50 417 90 c 0,37,38
 436 103 436 103 446 103 c 0,39,40
 471 103 471 103 471 76.5 c 128,-1,41
 471 50 471 50 414 18 c 128,-1,42
 357 -14 357 -14 293 -15 c 1,43,44
 296 -43 296 -43 348 -70 c 0,45,46
 367 -80 367 -80 382.5 -97.5 c 128,-1,47
 398 -115 398 -115 398 -137 c 0,0,1
EndSplineSet
EndChar

StartChar: eacute
Encoding: 233 233 170
Width: 538
GlyphClass: 2
Flags: W
LayerCount: 2
Fore
SplineSet
377.5 292 m 128,-1,1
 418 315 418 315 418 354 c 128,-1,2
 418 393 418 393 391.5 421.5 c 128,-1,3
 365 450 365 450 316 450 c 0,4,5
 250 450 250 450 205 400.5 c 128,-1,6
 160 351 160 351 147 285 c 1,7,8
 202 269 202 269 269.5 269 c 128,-1,0
 337 269 337 269 377.5 292 c 128,-1,1
438.5 470 m 128,-1,10
 489 425 489 425 489 353 c 128,-1,11
 489 281 489 281 426.5 243.5 c 128,-1,12
 364 206 364 206 273 206 c 0,13,14
 221 206 221 206 146 221 c 1,15,16
 152 151 152 151 198.5 100.5 c 128,-1,17
 245 50 245 50 302 50 c 0,18,19
 336 50 336 50 365 59.5 c 128,-1,20
 394 69 394 69 421.5 90 c 128,-1,21
 449 111 449 111 461.5 111 c 128,-1,22
 474 111 474 111 481.5 103.5 c 128,-1,23
 489 96 489 96 489 85 c 0,24,25
 489 57 489 57 431.5 21 c 128,-1,26
 374 -15 374 -15 307 -15 c 0,27,28
 203 -15 203 -15 142 58 c 128,-1,29
 81 131 81 131 76 234 c 1,30,31
 23 250 23 250 23 286 c 0,32,33
 23 301 23 301 31.5 309.5 c 128,-1,34
 40 318 40 318 52 318 c 128,-1,35
 64 318 64 318 82 309 c 1,36,37
 104 399 104 399 165.5 457 c 128,-1,38
 227 515 227 515 307.5 515 c 128,-1,9
 388 515 388 515 438.5 470 c 128,-1,10
398 692 m 0,39,40
 398 649 398 649 352.5 606 c 128,-1,41
 307 563 307 563 280 563 c 128,-1,42
 253 563 253 563 253 584 c 0,43,44
 253 596 253 596 269 614 c 128,-1,45
 285 632 285 632 292.5 641.5 c 128,-1,46
 300 651 300 651 310.5 676.5 c 128,-1,47
 321 702 321 702 332.5 716 c 128,-1,48
 344 730 344 730 362 730 c 128,-1,49
 380 730 380 730 389 718.5 c 128,-1,50
 398 707 398 707 398 692 c 0,39,40
EndSplineSet
EndChar

StartChar: ecircumflex
Encoding: 234 234 171
Width: 538
GlyphClass: 2
Flags: W
LayerCount: 2
Fore
SplineSet
377.5 292 m 128,-1,1
 418 315 418 315 418 354 c 128,-1,2
 418 393 418 393 391.5 421.5 c 128,-1,3
 365 450 365 450 316 450 c 0,4,5
 250 450 250 450 205 400.5 c 128,-1,6
 160 351 160 351 147 285 c 1,7,8
 202 269 202 269 269.5 269 c 128,-1,0
 337 269 337 269 377.5 292 c 128,-1,1
438.5 470 m 128,-1,10
 489 425 489 425 489 353 c 128,-1,11
 489 281 489 281 426.5 243.5 c 128,-1,12
 364 206 364 206 273 206 c 0,13,14
 221 206 221 206 146 221 c 1,15,16
 152 151 152 151 198.5 100.5 c 128,-1,17
 245 50 245 50 302 50 c 0,18,19
 336 50 336 50 365 59.5 c 128,-1,20
 394 69 394 69 421.5 90 c 128,-1,21
 449 111 449 111 461.5 111 c 128,-1,22
 474 111 474 111 481.5 103.5 c 128,-1,23
 489 96 489 96 489 85 c 0,24,25
 489 57 489 57 431.5 21 c 128,-1,26
 374 -15 374 -15 307 -15 c 0,27,28
 203 -15 203 -15 142 58 c 128,-1,29
 81 131 81 131 76 234 c 1,30,31
 23 250 23 250 23 286 c 0,32,33
 23 301 23 301 31.5 309.5 c 128,-1,34
 40 318 40 318 52 318 c 128,-1,35
 64 318 64 318 82 309 c 1,36,37
 104 399 104 399 165.5 457 c 128,-1,38
 227 515 227 515 307.5 515 c 128,-1,9
 388 515 388 515 438.5 470 c 128,-1,10
439 603.5 m 128,-1,40
 443 596 443 596 443 585.5 c 128,-1,41
 443 575 443 575 434 566.5 c 128,-1,42
 425 558 425 558 412.5 558 c 128,-1,43
 400 558 400 558 389 567 c 128,-1,44
 378 576 378 576 367.5 590.5 c 128,-1,45
 357 605 357 605 353 608 c 1,46,47
 313 656 313 656 297.5 656 c 128,-1,48
 282 656 282 656 242 608 c 1,49,50
 238 605 238 605 228 590 c 1,51,52
 204 558 204 558 187 558 c 128,-1,53
 170 558 170 558 161 566.5 c 128,-1,54
 152 575 152 575 152 585.5 c 128,-1,55
 152 596 152 596 156.5 603.5 c 128,-1,56
 161 611 161 611 165.5 615.5 c 128,-1,57
 170 620 170 620 183.5 631.5 c 128,-1,58
 197 643 197 643 209 654.5 c 128,-1,59
 221 666 221 666 238.5 689 c 128,-1,60
 256 712 256 712 267.5 721 c 128,-1,61
 279 730 279 730 297 730 c 128,-1,62
 315 730 315 730 327 721 c 128,-1,63
 339 712 339 712 357 689 c 128,-1,64
 375 666 375 666 387 654.5 c 128,-1,65
 399 643 399 643 412 631.5 c 128,-1,66
 425 620 425 620 430 615.5 c 128,-1,39
 435 611 435 611 439 603.5 c 128,-1,40
EndSplineSet
EndChar

StartChar: igrave
Encoding: 236 236 173
Width: 224
GlyphClass: 2
Flags: W
LayerCount: 2
Fore
SplineSet
145 250 m 1,0,-1
 150 40 l 1,1,2
 150 -10 150 -10 112 -10 c 128,-1,3
 74 -10 74 -10 74 40 c 1,4,-1
 79 250 l 1,5,6
 79 250 79 250 74 460 c 1,7,8
 74 510 74 510 112 510 c 128,-1,9
 150 510 150 510 150 460 c 1,10,-1
 145 250 l 1,0,-1
175 584 m 0,11,12
 175 563 175 563 148 563 c 128,-1,13
 121 563 121 563 75.5 606 c 128,-1,14
 30 649 30 649 30 692 c 0,15,16
 30 707 30 707 39 718.5 c 128,-1,17
 48 730 48 730 66 730 c 128,-1,18
 84 730 84 730 95.5 716 c 128,-1,19
 107 702 107 702 117.5 676.5 c 128,-1,20
 128 651 128 651 135.5 641.5 c 128,-1,21
 143 632 143 632 159 614 c 128,-1,22
 175 596 175 596 175 584 c 0,11,12
EndSplineSet
EndChar

StartChar: iacute
Encoding: 237 237 174
Width: 224
GlyphClass: 2
Flags: W
LayerCount: 2
Fore
SplineSet
145 250 m 1,0,-1
 150 40 l 1,1,2
 150 -10 150 -10 112 -10 c 128,-1,3
 74 -10 74 -10 74 40 c 1,4,-1
 79 250 l 1,5,6
 79 250 79 250 74 460 c 1,7,8
 74 510 74 510 112 510 c 128,-1,9
 150 510 150 510 150 460 c 1,10,-1
 145 250 l 1,0,-1
194 692 m 0,11,12
 194 649 194 649 148.5 606 c 128,-1,13
 103 563 103 563 76 563 c 128,-1,14
 49 563 49 563 49 584 c 0,15,16
 49 596 49 596 65 614 c 128,-1,17
 81 632 81 632 88.5 641.5 c 128,-1,18
 96 651 96 651 106.5 676.5 c 128,-1,19
 117 702 117 702 128.5 716 c 128,-1,20
 140 730 140 730 158 730 c 128,-1,21
 176 730 176 730 185 718.5 c 128,-1,22
 194 707 194 707 194 692 c 0,11,12
EndSplineSet
EndChar

StartChar: icircumflex
Encoding: 238 238 175
Width: 224
GlyphClass: 2
Flags: W
LayerCount: 2
Fore
SplineSet
145 250 m 1,0,-1
 150 40 l 1,1,2
 150 -10 150 -10 112 -10 c 128,-1,3
 74 -10 74 -10 74 40 c 1,4,-1
 79 250 l 1,5,6
 79 250 79 250 74 460 c 1,7,8
 74 510 74 510 112 510 c 128,-1,9
 150 510 150 510 150 460 c 1,10,-1
 145 250 l 1,0,-1
254 603.5 m 128,-1,12
 258 596 258 596 258 585.5 c 128,-1,13
 258 575 258 575 249 566.5 c 128,-1,14
 240 558 240 558 227.5 558 c 128,-1,15
 215 558 215 558 204 567 c 128,-1,16
 193 576 193 576 182.5 590.5 c 128,-1,17
 172 605 172 605 168 608 c 1,18,19
 128 656 128 656 112.5 656 c 128,-1,20
 97 656 97 656 57 608 c 1,21,22
 53 605 53 605 42 590 c 0,23,24
 19 558 19 558 2 558 c 128,-1,25
 -15 558 -15 558 -24 566.5 c 128,-1,26
 -33 575 -33 575 -33 585.5 c 128,-1,27
 -33 596 -33 596 -28.5 603.5 c 128,-1,28
 -24 611 -24 611 -19.5 615.5 c 128,-1,29
 -15 620 -15 620 -1.5 631.5 c 128,-1,30
 12 643 12 643 24 654.5 c 128,-1,31
 36 666 36 666 53.5 689 c 128,-1,32
 71 712 71 712 82.5 721 c 128,-1,33
 94 730 94 730 112 730 c 128,-1,34
 130 730 130 730 142 721 c 128,-1,35
 154 712 154 712 172 689 c 128,-1,36
 190 666 190 666 202 654.5 c 128,-1,37
 214 643 214 643 227 631.5 c 128,-1,38
 240 620 240 620 245 615.5 c 128,-1,11
 250 611 250 611 254 603.5 c 128,-1,12
EndSplineSet
EndChar

StartChar: idieresis
Encoding: 239 239 176
Width: 224
GlyphClass: 2
Flags: W
LayerCount: 2
Fore
SplineSet
145 250 m 1,0,-1
 150 40 l 1,1,2
 150 -10 150 -10 112 -10 c 128,-1,3
 74 -10 74 -10 74 40 c 1,4,-1
 79 250 l 1,5,6
 79 250 79 250 74 460 c 1,7,8
 74 510 74 510 112 510 c 128,-1,9
 150 510 150 510 150 460 c 1,10,-1
 145 250 l 1,0,-1
29 581 m 0,11,12
 -13 581 -13 581 -13 632 c 0,13,14
 -13 655 -13 655 1.5 672.5 c 128,-1,15
 16 690 16 690 37 690 c 128,-1,16
 58 690 58 690 68 676.5 c 128,-1,17
 78 663 78 663 78 642.5 c 128,-1,18
 78 622 78 622 64 601.5 c 128,-1,19
 50 581 50 581 29 581 c 0,11,12
189 581 m 0,20,21
 147 581 147 581 147 632 c 0,22,23
 147 655 147 655 161.5 672.5 c 128,-1,24
 176 690 176 690 197 690 c 128,-1,25
 218 690 218 690 228 676.5 c 128,-1,26
 238 663 238 663 238 642.5 c 128,-1,27
 238 622 238 622 224 601.5 c 128,-1,28
 210 581 210 581 189 581 c 0,20,21
EndSplineSet
EndChar

StartChar: eth
Encoding: 240 240 177
Width: 450
GlyphClass: 2
Flags: W
LayerCount: 2
Fore
SplineSet
327 155 m 128,-1,1
 327 199 327 199 296.5 230 c 128,-1,2
 266 261 266 261 222 261 c 128,-1,3
 178 261 178 261 147 230 c 128,-1,4
 116 199 116 199 116 155 c 128,-1,5
 116 111 116 111 147 80.5 c 128,-1,6
 178 50 178 50 222 50 c 128,-1,7
 266 50 266 50 296.5 80.5 c 128,-1,0
 327 111 327 111 327 155 c 128,-1,1
272 466 m 1,8,9
 335 424 335 424 370 350 c 128,-1,10
 405 276 405 276 405 188.5 c 128,-1,11
 405 101 405 101 355.5 43 c 128,-1,12
 306 -15 306 -15 225.5 -15 c 128,-1,13
 145 -15 145 -15 96 39.5 c 128,-1,14
 47 94 47 94 47 158 c 128,-1,15
 47 222 47 222 94.5 272.5 c 128,-1,16
 142 323 142 323 214 323 c 0,17,18
 250 323 250 323 281.5 307 c 128,-1,19
 313 291 313 291 327 271 c 1,20,21
 321 316 321 316 292 355 c 128,-1,22
 263 394 263 394 218 416 c 1,23,24
 207 404 207 404 193.5 389.5 c 128,-1,25
 180 375 180 375 175 369.5 c 128,-1,26
 170 364 170 364 161.5 356 c 128,-1,27
 153 348 153 348 139.5 348 c 128,-1,28
 126 348 126 348 117 357 c 128,-1,29
 108 366 108 366 108 374.5 c 128,-1,30
 108 383 108 383 108.5 386 c 128,-1,31
 109 389 109 389 110 391.5 c 128,-1,32
 111 394 111 394 113.5 397.5 c 128,-1,33
 116 401 116 401 117.5 403 c 128,-1,34
 119 405 119 405 123.5 409.5 c 128,-1,35
 128 414 128 414 131 416.5 c 128,-1,36
 134 419 134 419 140.5 425.5 c 128,-1,37
 147 432 147 432 152 436 c 1,38,39
 134 439 134 439 115 439 c 0,40,41
 60 439 60 439 60 474.5 c 128,-1,42
 60 510 60 510 124 510 c 0,43,44
 170 510 170 510 212 496 c 1,45,46
 219 503 219 503 228 513.5 c 128,-1,47
 237 524 237 524 242 529.5 c 128,-1,48
 247 535 247 535 249.5 537 c 128,-1,49
 252 539 252 539 256 542 c 128,-1,50
 260 545 260 545 263 545.5 c 128,-1,51
 266 546 266 546 269.5 547 c 128,-1,52
 273 548 273 548 280.5 548 c 128,-1,53
 288 548 288 548 299 539 c 1,54,55
 308 528 308 528 308 516 c 128,-1,56
 308 504 308 504 301 495 c 128,-1,57
 294 486 294 486 272 466 c 1,8,9
EndSplineSet
EndChar

StartChar: ograve
Encoding: 242 242 179
Width: 564
GlyphClass: 2
Flags: W
LayerCount: 2
Fore
SplineSet
446 251 m 128,-1,1
 446 334 446 334 399.5 392 c 128,-1,2
 353 450 353 450 284 450 c 128,-1,3
 215 450 215 450 166.5 391 c 128,-1,4
 118 332 118 332 118 249 c 128,-1,5
 118 166 118 166 164.5 108 c 128,-1,6
 211 50 211 50 280 50 c 128,-1,7
 349 50 349 50 397.5 109 c 128,-1,0
 446 168 446 168 446 251 c 128,-1,1
451 438.5 m 128,-1,9
 517 362 517 362 517 251 c 128,-1,10
 517 140 517 140 450 62.5 c 128,-1,11
 383 -15 383 -15 281 -15 c 128,-1,12
 179 -15 179 -15 113 61.5 c 128,-1,13
 47 138 47 138 47 249 c 128,-1,14
 47 360 47 360 113.5 437.5 c 128,-1,15
 180 515 180 515 282.5 515 c 128,-1,8
 385 515 385 515 451 438.5 c 128,-1,9
334 584 m 0,16,17
 334 563 334 563 307 563 c 128,-1,18
 280 563 280 563 234.5 606 c 128,-1,19
 189 649 189 649 189 692 c 0,20,21
 189 707 189 707 198 718.5 c 128,-1,22
 207 730 207 730 225 730 c 128,-1,23
 243 730 243 730 254.5 716 c 128,-1,24
 266 702 266 702 276.5 676.5 c 128,-1,25
 287 651 287 651 294.5 641.5 c 128,-1,26
 302 632 302 632 318 614 c 128,-1,27
 334 596 334 596 334 584 c 0,16,17
EndSplineSet
EndChar

StartChar: odieresis
Encoding: 246 246 183
Width: 564
GlyphClass: 2
Flags: W
LayerCount: 2
Fore
SplineSet
446 251 m 128,-1,1
 446 334 446 334 399.5 392 c 128,-1,2
 353 450 353 450 284 450 c 128,-1,3
 215 450 215 450 166.5 391 c 128,-1,4
 118 332 118 332 118 249 c 128,-1,5
 118 166 118 166 164.5 108 c 128,-1,6
 211 50 211 50 280 50 c 128,-1,7
 349 50 349 50 397.5 109 c 128,-1,0
 446 168 446 168 446 251 c 128,-1,1
451 438.5 m 128,-1,9
 517 362 517 362 517 251 c 128,-1,10
 517 140 517 140 450 62.5 c 128,-1,11
 383 -15 383 -15 281 -15 c 128,-1,12
 179 -15 179 -15 113 61.5 c 128,-1,13
 47 138 47 138 47 249 c 128,-1,14
 47 360 47 360 113.5 437.5 c 128,-1,15
 180 515 180 515 282.5 515 c 128,-1,8
 385 515 385 515 451 438.5 c 128,-1,9
198 581 m 0,16,17
 156 581 156 581 156 632 c 0,18,19
 156 655 156 655 170.5 672.5 c 128,-1,20
 185 690 185 690 206 690 c 128,-1,21
 227 690 227 690 237 676.5 c 128,-1,22
 247 663 247 663 247 642.5 c 128,-1,23
 247 622 247 622 233 601.5 c 128,-1,24
 219 581 219 581 198 581 c 0,16,17
358 581 m 0,25,26
 316 581 316 581 316 632 c 0,27,28
 316 655 316 655 330.5 672.5 c 128,-1,29
 345 690 345 690 366 690 c 128,-1,30
 387 690 387 690 397 676.5 c 128,-1,31
 407 663 407 663 407 642.5 c 128,-1,32
 407 622 407 622 393 601.5 c 128,-1,33
 379 581 379 581 358 581 c 0,25,26
EndSplineSet
EndChar

StartChar: divide
Encoding: 247 247 184
Width: 520
GlyphClass: 2
Flags: W
LayerCount: 2
Fore
SplineSet
260 289 m 1,0,-1
 437 292 l 2,1,2
 455 292 455 292 466.5 283 c 128,-1,3
 478 274 478 274 478 259 c 128,-1,4
 478 244 478 244 466.5 235 c 128,-1,5
 455 226 455 226 437 226 c 2,6,-1
 260 229 l 1,7,-1
 83 226 l 2,8,9
 65 226 65 226 53.5 235 c 128,-1,10
 42 244 42 244 42 259 c 128,-1,11
 42 274 42 274 53.5 283 c 128,-1,12
 65 292 65 292 83 292 c 2,13,14
 83 292 83 292 260 289 c 1,0,-1
294.5 134.5 m 128,-1,16
 305 120 305 120 305 97.5 c 128,-1,17
 305 75 305 75 291 56.5 c 128,-1,18
 277 38 277 38 257 38 c 128,-1,19
 237 38 237 38 226 53.5 c 128,-1,20
 215 69 215 69 215 91 c 128,-1,21
 215 113 215 113 229 131 c 128,-1,22
 243 149 243 149 263.5 149 c 128,-1,15
 284 149 284 149 294.5 134.5 c 128,-1,16
294.5 465.5 m 128,-1,24
 305 451 305 451 305 428.5 c 128,-1,25
 305 406 305 406 291 387.5 c 128,-1,26
 277 369 277 369 257 369 c 128,-1,27
 237 369 237 369 226 384.5 c 128,-1,28
 215 400 215 400 215 422 c 128,-1,29
 215 444 215 444 229 462 c 128,-1,30
 243 480 243 480 263.5 480 c 128,-1,23
 284 480 284 480 294.5 465.5 c 128,-1,24
EndSplineSet
EndChar

StartChar: oslash
Encoding: 248 248 185
Width: 564
GlyphClass: 2
Flags: W
LayerCount: 2
Fore
SplineSet
517 250 m 0,0,1
 517 140 517 140 450 62.5 c 128,-1,2
 383 -15 383 -15 282 -15 c 0,3,4
 254 -15 254 -15 218 -6 c 1,5,-1
 200 -56 l 1,6,7
 186 -91 186 -91 159 -91 c 0,8,9
 144 -91 144 -91 134 -80 c 128,-1,10
 124 -69 124 -69 124 -54 c 128,-1,11
 124 -39 124 -39 151 26 c 1,12,13
 102 61 102 61 74.5 120 c 128,-1,14
 47 179 47 179 47 250 c 0,15,16
 47 360 47 360 113.5 437.5 c 128,-1,17
 180 515 180 515 281 515 c 0,18,19
 314 515 314 515 344 506 c 1,20,21
 348 520 348 520 362 553.5 c 128,-1,22
 376 587 376 587 402 587 c 0,23,24
 417 587 417 587 427 576.5 c 128,-1,25
 437 566 437 566 437 549 c 128,-1,26
 437 532 437 532 411 474 c 1,27,28
 461 439 461 439 489 380 c 128,-1,29
 517 321 517 321 517 250 c 0,0,1
397.5 109 m 128,-1,31
 446 168 446 168 446 259 c 128,-1,32
 446 350 446 350 383 410 c 1,33,34
 322 269 322 269 241 55 c 1,35,36
 263 50 263 50 281 50 c 0,37,30
 349 50 349 50 397.5 109 c 128,-1,31
180 91 m 1,38,39
 254 260 254 260 322 444 c 1,40,41
 304 450 304 450 283 450 c 0,42,43
 215 450 215 450 166.5 391 c 128,-1,44
 118 332 118 332 118 240 c 128,-1,45
 118 148 118 148 180 91 c 1,38,39
EndSplineSet
EndChar

StartChar: uacute
Encoding: 250 250 187
Width: 585
GlyphClass: 2
Flags: W
LayerCount: 2
Fore
SplineSet
152 428 m 1,0,-1
 144 208 l 1,1,2
 144 140 144 140 173 97.5 c 128,-1,3
 202 55 202 55 253.5 55 c 128,-1,4
 305 55 305 55 353 112.5 c 128,-1,5
 401 170 401 170 420 242 c 1,6,-1
 417 459 l 2,7,8
 417 510 417 510 455 510 c 0,9,10
 501 510 501 510 501 439.5 c 128,-1,11
 501 369 501 369 481 242 c 1,12,13
 481 167 481 167 492 119.5 c 128,-1,14
 503 72 503 72 518 66 c 0,15,16
 524 63 524 63 532.5 62 c 128,-1,17
 541 61 541 61 544.5 59 c 128,-1,18
 548 57 548 57 548 51 c 0,19,20
 548 24 548 24 531.5 7 c 128,-1,21
 515 -10 515 -10 490 -10 c 0,22,23
 427 -10 427 -10 427 118 c 1,24,25
 353 -10 353 -10 241 -10 c 0,26,27
 161 -10 161 -10 117 49.5 c 128,-1,28
 73 109 73 109 73 195 c 1,29,-1
 79 346 l 1,30,31
 79 386 79 386 71 420.5 c 128,-1,32
 63 455 63 455 63 470 c 128,-1,33
 63 485 63 485 75 497.5 c 128,-1,34
 87 510 87 510 106 510 c 0,35,36
 152 510 152 510 152 428 c 1,0,-1
385 692 m 0,37,38
 385 649 385 649 339.5 606 c 128,-1,39
 294 563 294 563 267 563 c 128,-1,40
 240 563 240 563 240 584 c 0,41,42
 240 596 240 596 256 614 c 128,-1,43
 272 632 272 632 279.5 641.5 c 128,-1,44
 287 651 287 651 297.5 676.5 c 128,-1,45
 308 702 308 702 319.5 716 c 128,-1,46
 331 730 331 730 349 730 c 128,-1,47
 367 730 367 730 376 718.5 c 128,-1,48
 385 707 385 707 385 692 c 0,37,38
EndSplineSet
EndChar

StartChar: ucircumflex
Encoding: 251 251 188
Width: 585
GlyphClass: 2
Flags: W
LayerCount: 2
Fore
SplineSet
152 428 m 1,0,-1
 144 208 l 1,1,2
 144 140 144 140 173 97.5 c 128,-1,3
 202 55 202 55 253.5 55 c 128,-1,4
 305 55 305 55 353 112.5 c 128,-1,5
 401 170 401 170 420 242 c 1,6,-1
 417 459 l 2,7,8
 417 510 417 510 455 510 c 0,9,10
 501 510 501 510 501 439.5 c 128,-1,11
 501 369 501 369 481 242 c 1,12,13
 481 167 481 167 492 119.5 c 128,-1,14
 503 72 503 72 518 66 c 0,15,16
 524 63 524 63 532.5 62 c 128,-1,17
 541 61 541 61 544.5 59 c 128,-1,18
 548 57 548 57 548 51 c 0,19,20
 548 24 548 24 531.5 7 c 128,-1,21
 515 -10 515 -10 490 -10 c 0,22,23
 427 -10 427 -10 427 118 c 1,24,25
 353 -10 353 -10 241 -10 c 0,26,27
 161 -10 161 -10 117 49.5 c 128,-1,28
 73 109 73 109 73 195 c 1,29,-1
 79 346 l 1,30,31
 79 386 79 386 71 420.5 c 128,-1,32
 63 455 63 455 63 470 c 128,-1,33
 63 485 63 485 75 497.5 c 128,-1,34
 87 510 87 510 106 510 c 0,35,36
 152 510 152 510 152 428 c 1,0,-1
426 603.5 m 128,-1,38
 430 596 430 596 430 585.5 c 128,-1,39
 430 575 430 575 421 566.5 c 128,-1,40
 412 558 412 558 399.5 558 c 128,-1,41
 387 558 387 558 376 567 c 128,-1,42
 365 576 365 576 354.5 590.5 c 128,-1,43
 344 605 344 605 340 608 c 1,44,45
 300 656 300 656 284.5 656 c 128,-1,46
 269 656 269 656 229 608 c 1,47,48
 225 605 225 605 214 590 c 0,49,50
 191 558 191 558 174 558 c 128,-1,51
 157 558 157 558 148 566.5 c 128,-1,52
 139 575 139 575 139 585.5 c 128,-1,53
 139 596 139 596 143.5 603.5 c 128,-1,54
 148 611 148 611 152.5 615.5 c 128,-1,55
 157 620 157 620 170.5 631.5 c 128,-1,56
 184 643 184 643 196 654.5 c 128,-1,57
 208 666 208 666 225.5 689 c 128,-1,58
 243 712 243 712 254.5 721 c 128,-1,59
 266 730 266 730 284 730 c 128,-1,60
 302 730 302 730 314 721 c 128,-1,61
 326 712 326 712 344 689 c 128,-1,62
 362 666 362 666 374 654.5 c 128,-1,63
 386 643 386 643 399 631.5 c 128,-1,64
 412 620 412 620 417 615.5 c 128,-1,37
 422 611 422 611 426 603.5 c 128,-1,38
EndSplineSet
EndChar

StartChar: thorn
Encoding: 254 254 191
Width: 549
GlyphClass: 2
Flags: W
LayerCount: 2
Fore
SplineSet
380.5 157 m 128,-1,1
 423 199 423 199 423 255 c 128,-1,2
 423 311 423 311 393 353 c 128,-1,3
 363 395 363 395 312.5 395 c 128,-1,4
 262 395 262 395 219.5 359.5 c 128,-1,5
 177 324 177 324 150 272 c 1,6,-1
 150 173 l 1,7,8
 206 115 206 115 282 115 c 0,9,0
 338 115 338 115 380.5 157 c 128,-1,1
148 99 m 1,10,-1
 151 -15 l 2,11,12
 151 -52 151 -52 141.5 -66 c 128,-1,13
 132 -80 132 -80 110 -80 c 0,14,15
 67 -80 67 -80 67 -8 c 0,16,17
 67 42 67 42 88 221 c 1,18,19
 88 262 88 262 79 393 c 128,-1,20
 70 524 70 524 70 538.5 c 128,-1,21
 70 553 70 553 80.5 566.5 c 128,-1,22
 91 580 91 580 109 580 c 128,-1,23
 127 580 127 580 137.5 566.5 c 128,-1,24
 148 553 148 553 148 530 c 2,25,-1
 148 371 l 1,26,27
 213 460 213 460 318 460 c 0,28,29
 403 460 403 460 450 396.5 c 128,-1,30
 497 333 497 333 497 254 c 128,-1,31
 497 175 497 175 436.5 112.5 c 128,-1,32
 376 50 376 50 282 50 c 0,33,34
 211 50 211 50 148 99 c 1,10,-1
EndSplineSet
EndChar

StartChar: ydieresis
Encoding: 255 255 192
Width: 434
GlyphClass: 2
Flags: W
LayerCount: 2
Fore
SplineSet
253 138 m 1,0,-1
 255 39 l 2,1,2
 255 -10 255 -10 217.5 -10 c 128,-1,3
 180 -10 180 -10 180 39 c 2,4,-1
 182 138 l 1,5,-1
 182 198 l 2,6,7
 182 218 182 218 134.5 287 c 128,-1,8
 87 356 87 356 79 368.5 c 128,-1,9
 71 381 71 381 60 397 c 128,-1,10
 49 413 49 413 43.5 421.5 c 128,-1,11
 38 430 38 430 32 440 c 0,12,13
 15 466 15 466 15 478 c 128,-1,14
 15 490 15 490 25 500 c 128,-1,15
 35 510 35 510 44.5 510 c 128,-1,16
 54 510 54 510 60 507.5 c 128,-1,17
 66 505 66 505 70 502 c 128,-1,18
 74 499 74 499 79.5 491.5 c 128,-1,19
 85 484 85 484 88 479.5 c 128,-1,20
 91 475 91 475 97.5 464 c 128,-1,21
 104 453 104 453 117.5 430.5 c 128,-1,22
 131 408 131 408 172 346 c 128,-1,23
 213 284 213 284 220 284 c 0,24,25
 230 284 230 284 331 448 c 1,26,27
 361 500 361 500 376 507 c 0,28,29
 382 510 382 510 392 510 c 128,-1,30
 402 510 402 510 411 500.5 c 128,-1,31
 420 491 420 491 420 482.5 c 128,-1,32
 420 474 420 474 418 468 c 0,33,34
 414 458 414 458 387.5 419.5 c 128,-1,35
 361 381 361 381 347 360 c 128,-1,36
 333 339 333 339 319 318 c 0,37,38
 303 293 303 293 278 253.5 c 128,-1,39
 253 214 253 214 253 198 c 2,40,-1
 253 138 l 1,0,-1
143 581 m 0,41,42
 101 581 101 581 101 632 c 0,43,44
 101 655 101 655 115.5 672.5 c 128,-1,45
 130 690 130 690 151 690 c 128,-1,46
 172 690 172 690 182 676.5 c 128,-1,47
 192 663 192 663 192 642.5 c 128,-1,48
 192 622 192 622 178 601.5 c 128,-1,49
 164 581 164 581 143 581 c 0,41,42
303 581 m 0,50,51
 261 581 261 581 261 632 c 0,52,53
 261 655 261 655 275.5 672.5 c 128,-1,54
 290 690 290 690 311 690 c 128,-1,55
 332 690 332 690 342 676.5 c 128,-1,56
 352 663 352 663 352 642.5 c 128,-1,57
 352 622 352 622 338 601.5 c 128,-1,58
 324 581 324 581 303 581 c 0,50,51
EndSplineSet
EndChar

StartChar: Hbar
Encoding: 294 294 193
Width: 618
GlyphClass: 2
Flags: W
LayerCount: 2
Fore
SplineSet
106 40 m 1,0,-1
 111 218 l 1,1,-1
 90 218 l 2,2,3
 67 218 67 218 53.5 227.5 c 128,-1,4
 40 237 40 237 40 253 c 128,-1,5
 40 269 40 269 53.5 278.5 c 128,-1,6
 67 288 67 288 90 288 c 2,7,-1
 108 288 l 1,8,9
 108 326 108 326 106 378 c 1,10,-1
 67 378 l 2,11,12
 44 378 44 378 30.5 387.5 c 128,-1,13
 17 397 17 397 17 413 c 128,-1,14
 17 429 17 429 30.5 438.5 c 128,-1,15
 44 448 44 448 66 448 c 128,-1,16
 88 448 88 448 103 447 c 1,17,18
 103 482 103 482 112.5 496 c 128,-1,19
 122 510 122 510 142 510 c 0,20,21
 182 510 182 510 182 450 c 2,22,-1
 182 445 l 1,23,24
 260 443 260 443 310 443 c 128,-1,25
 360 443 360 443 438 445 c 1,26,-1
 438 450 l 2,27,28
 438 483 438 483 447 496.5 c 128,-1,29
 456 510 456 510 476 510 c 128,-1,30
 496 510 496 510 505 496 c 128,-1,31
 514 482 514 482 514 447 c 1,32,33
 529 448 529 448 550 448 c 0,34,35
 600 448 600 448 600 413 c 128,-1,36
 600 378 600 378 550 378 c 2,37,-1
 511 378 l 1,38,39
 509 326 509 326 509 288 c 1,40,-1
 530 288 l 2,41,42
 580 288 580 288 580 253 c 128,-1,43
 580 218 580 218 530 218 c 2,44,-1
 509 218 l 1,45,-1
 514 40 l 1,46,47
 514 -10 514 -10 476 -10 c 128,-1,48
 438 -10 438 -10 438 40 c 1,49,-1
 443 220 l 1,50,51
 323 223 323 223 308.5 223 c 128,-1,52
 294 223 294 223 177 220 c 1,53,-1
 182 40 l 1,54,55
 182 -10 182 -10 144 -10 c 128,-1,56
 106 -10 106 -10 106 40 c 1,0,-1
440 381 m 1,57,58
 360 383 360 383 309.5 383 c 128,-1,59
 259 383 259 383 179 381 c 1,60,61
 177 325 177 325 177 285 c 1,62,63
 255 283 255 283 310.5 283 c 128,-1,64
 366 283 366 283 440 285 c 1,65,-1
 440 381 l 1,57,58
EndSplineSet
EndChar

StartChar: hbar
Encoding: 295 295 194
Width: 618
GlyphClass: 2
Flags: W
LayerCount: 2
Fore
SplineSet
106 40 m 1,0,-1
 111 218 l 1,1,-1
 90 218 l 2,2,3
 67 218 67 218 53.5 227.5 c 128,-1,4
 40 237 40 237 40 253 c 128,-1,5
 40 269 40 269 53.5 278.5 c 128,-1,6
 67 288 67 288 90 288 c 2,7,-1
 108 288 l 1,8,9
 108 326 108 326 106 378 c 1,10,-1
 67 378 l 2,11,12
 44 378 44 378 30.5 387.5 c 128,-1,13
 17 397 17 397 17 413 c 128,-1,14
 17 429 17 429 30.5 438.5 c 128,-1,15
 44 448 44 448 66 448 c 128,-1,16
 88 448 88 448 103 447 c 1,17,18
 103 482 103 482 112.5 496 c 128,-1,19
 122 510 122 510 142 510 c 0,20,21
 182 510 182 510 182 450 c 2,22,-1
 182 445 l 1,23,24
 260 443 260 443 310 443 c 128,-1,25
 360 443 360 443 438 445 c 1,26,-1
 438 450 l 2,27,28
 438 483 438 483 447 496.5 c 128,-1,29
 456 510 456 510 476 510 c 128,-1,30
 496 510 496 510 505 496 c 128,-1,31
 514 482 514 482 514 447 c 1,32,33
 529 448 529 448 550 448 c 0,34,35
 600 448 600 448 600 413 c 128,-1,36
 600 378 600 378 550 378 c 2,37,-1
 511 378 l 1,38,39
 509 326 509 326 509 288 c 1,40,-1
 530 288 l 2,41,42
 580 288 580 288 580 253 c 128,-1,43
 580 218 580 218 530 218 c 2,44,-1
 509 218 l 1,45,-1
 514 40 l 1,46,47
 514 -10 514 -10 476 -10 c 128,-1,48
 438 -10 438 -10 438 40 c 1,49,-1
 443 220 l 1,50,51
 323 223 323 223 308.5 223 c 128,-1,52
 294 223 294 223 177 220 c 1,53,-1
 182 40 l 1,54,55
 182 -10 182 -10 144 -10 c 128,-1,56
 106 -10 106 -10 106 40 c 1,0,-1
440 381 m 1,57,58
 360 383 360 383 309.5 383 c 128,-1,59
 259 383 259 383 179 381 c 1,60,61
 177 325 177 325 177 285 c 1,62,63
 255 283 255 283 310.5 283 c 128,-1,64
 366 283 366 283 440 285 c 1,65,-1
 440 381 l 1,57,58
EndSplineSet
EndChar

StartChar: itilde
Encoding: 297 297 196
Width: 224
GlyphClass: 2
Flags: W
LayerCount: 2
Fore
SplineSet
145 250 m 1,0,-1
 150 40 l 1,1,2
 150 -10 150 -10 112 -10 c 128,-1,3
 74 -10 74 -10 74 40 c 1,4,-1
 79 250 l 1,5,6
 79 250 79 250 74 460 c 1,7,8
 74 510 74 510 112 510 c 128,-1,9
 150 510 150 510 150 460 c 1,10,-1
 145 250 l 1,0,-1
301 652 m 0,11,12
 301 618 301 618 275.5 592.5 c 128,-1,13
 250 567 250 567 215.5 567 c 128,-1,14
 181 567 181 567 133 594.5 c 128,-1,15
 85 622 85 622 64.5 622 c 128,-1,16
 44 622 44 622 30.5 607 c 128,-1,17
 17 592 17 592 5 576.5 c 128,-1,18
 -7 561 -7 561 -21.5 561 c 128,-1,19
 -36 561 -36 561 -46 572 c 128,-1,20
 -56 583 -56 583 -56 597 c 0,21,22
 -56 632 -56 632 -24 658.5 c 128,-1,23
 8 685 8 685 49.5 685 c 128,-1,24
 91 685 91 685 142.5 657 c 128,-1,25
 194 629 194 629 215.5 629 c 128,-1,26
 237 629 237 629 254 654.5 c 128,-1,27
 271 680 271 680 280 680 c 128,-1,28
 289 680 289 680 295 671.5 c 128,-1,29
 301 663 301 663 301 652 c 0,11,12
EndSplineSet
EndChar

StartChar: Idotaccent
Encoding: 304 304 197
Width: 430
GlyphClass: 2
Flags: W
LayerCount: 2
Fore
SplineSet
217 581 m 0,0,1
 175 581 175 581 175 632 c 0,2,3
 175 655 175 655 189.5 672.5 c 128,-1,4
 204 690 204 690 225 690 c 128,-1,5
 246 690 246 690 256 676.5 c 128,-1,6
 266 663 266 663 266 642.5 c 128,-1,7
 266 622 266 622 252 601.5 c 128,-1,8
 238 581 238 581 217 581 c 0,0,1
345 -14 m 1,9,-1
 215 -10 l 1,10,-1
 85 -14 l 1,11,12
 35 -14 35 -14 35 20.5 c 128,-1,13
 35 55 35 55 85 55 c 0,14,15
 92 55 92 55 177 50 c 1,16,17
 182 235 182 235 182 249.5 c 128,-1,18
 182 264 182 264 177 449 c 1,19,20
 111 446 111 446 85 446 c 0,21,22
 35 446 35 446 35 480 c 128,-1,23
 35 514 35 514 85 514 c 1,24,-1
 218 510 l 1,25,-1
 345 514 l 1,26,27
 395 514 395 514 395 481 c 0,28,29
 395 446 395 446 345 446 c 0,30,31
 319 446 319 446 253 449 c 1,32,33
 248 264 248 264 248 249.5 c 128,-1,34
 248 235 248 235 253 50 c 1,35,36
 338 55 338 55 345 55 c 0,37,38
 395 55 395 55 395 20.5 c 128,-1,39
 395 -14 395 -14 345 -14 c 1,9,-1
EndSplineSet
EndChar

StartChar: dotlessi
Encoding: 305 305 198
Width: 224
GlyphClass: 2
Flags: W
LayerCount: 2
Fore
SplineSet
145 250 m 1,0,-1
 150 40 l 1,1,2
 150 -10 150 -10 112 -10 c 128,-1,3
 74 -10 74 -10 74 40 c 1,4,-1
 79 250 l 1,5,6
 79 250 79 250 74 460 c 1,7,8
 74 510 74 510 112 510 c 128,-1,9
 150 510 150 510 150 460 c 1,10,-1
 145 250 l 1,0,-1
EndSplineSet
EndChar

StartChar: IJ
Encoding: 306 306 199
Width: 888
GlyphClass: 2
Flags: W
LayerCount: 2
Fore
SplineSet
348 -4 m 1,0,-1
 218 0 l 1,1,-1
 88 -4 l 1,2,3
 38 -4 38 -4 38 30.5 c 128,-1,4
 38 65 38 65 88 65 c 0,5,6
 95 65 95 65 180 60 c 1,7,8
 185 245 185 245 185 249.5 c 128,-1,9
 185 254 185 254 180 439 c 1,10,11
 114 436 114 436 88 436 c 0,12,13
 38 436 38 436 38 470 c 128,-1,14
 38 504 38 504 88 504 c 1,15,-1
 221 500 l 1,16,-1
 348 504 l 1,17,18
 398 504 398 504 398 471 c 0,19,20
 398 436 398 436 348 436 c 0,21,22
 322 436 322 436 256 439 c 1,23,24
 251 254 251 254 251 249.5 c 128,-1,25
 251 245 251 245 256 60 c 1,26,27
 341 65 341 65 348 65 c 0,28,29
 398 65 398 65 398 30.5 c 128,-1,30
 398 -4 398 -4 348 -4 c 1,0,-1
796 255 m 2,31,-1
 795 167 l 2,32,33
 795 82 795 82 745.5 36 c 128,-1,34
 696 -10 696 -10 626 -10 c 128,-1,35
 556 -10 556 -10 506 24.5 c 128,-1,36
 456 59 456 59 456 93 c 128,-1,37
 456 127 456 127 487 127 c 0,38,39
 498 127 498 127 514 109 c 0,40,41
 564 55 564 55 614 55 c 0,42,43
 714 55 714 55 724 153 c 1,44,45
 730 201 730 201 730 246.5 c 128,-1,46
 730 292 730 292 729 328.5 c 128,-1,47
 728 365 728 365 726 398 c 128,-1,48
 724 431 724 431 724 439 c 1,49,50
 710 440 710 440 682 440 c 1,51,-1
 552 435 l 1,52,53
 502 435 502 435 502 470 c 128,-1,54
 502 505 502 505 552 505 c 1,55,-1
 682 500 l 1,56,-1
 812 505 l 1,57,58
 862 505 862 505 862 470 c 128,-1,59
 862 435 862 435 800 435 c 1,60,61
 796 291 796 291 796 255 c 2,31,-1
EndSplineSet
EndChar

